999
dxfrw 0.6.3
  0
SECTION
  2
HEADER
  9
$ACADVER
  1
AC1021
  9
$DWGCODEPAGE
  3
ANSI_1252
  9
$INSBASE
 10
0
 20
0
 30
0
  9
$EXTMIN
 10
-48
 20
-48
 30
0
  9
$EXTMAX
 10
288
 20
69.91249711365566
 30
0
  9
$LIMMIN
 10
0
 20
0
  9
$LIMMAX
 10
420
 20
297
  9
$ORTHOMODE
 70
    0
  9
$REGENMODE
 70
    1
  9
$FILLMODE
 70
    1
  9
$QTEXTMODE
 70
    0
  9
$MIRRTEXT
 70
    0
  9
$LTSCALE
 40
1
  9
$ATTMODE
 70
    0
  9
$TEXTSIZE
 40
2.5
  9
$TRACEWID
 40
15.68
  9
$TEXTSTYLE
  7
STANDARD
  9
$CLAYER
  8
instrucciones y medidas
  9
$CELTYPE
  6
BYLAYER
  9
$CECOLOR
 62
  256
  9
$CELTSCALE
 40
1
  9
$DISPSILH
 70
    0
  9
$DIMSCALE
 40
2.5
  9
$DIMASZ
 40
2.5
  9
$DIMEXO
 40
0.625
  9
$DIMDLI
 40
3.75
  9
$DIMRND
 40
0
  9
$DIMDLE
 40
0
  9
$DIMEXE
 40
1.25
  9
$DIMTP
 40
0
  9
$DIMTM
 40
0
  9
$DIMTXT
 40
2.5
  9
$DIMCEN
 40
2.5
  9
$DIMTSZ
 40
0
  9
$DIMTOL
 70
    0
  9
$DIMLIM
 70
    0
  9
$DIMTIH
 70
    0
  9
$DIMTOH
 70
    0
  9
$DIMSE1
 70
    0
  9
$DIMSE2
 70
    0
  9
$DIMTAD
 70
    1
  9
$DIMZIN
 70
    8
  9
$DIMBLK
  1

  9
$DIMASO
 70
    1
  9
$DIMSHO
 70
    1
  9
$DIMPOST
  1

  9
$DIMAPOST
  1

  9
$DIMALT
 70
    0
  9
$DIMALTD
 70
    3
  9
$DIMALTF
 40
0.03937
  9
$DIMLFAC
 40
1
  9
$DIMTOFL
 70
    1
  9
$DIMTVP
 40
0
  9
$DIMTIX
 70
    0
  9
$DIMSOXD
 70
    0
  9
$DIMSAH
 70
    0
  9
$DIMBLK1
  1

  9
$DIMBLK2
  1

  9
$DIMSTYLE
  2
STANDARD
  9
$DIMCLRD
 70
    0
  9
$DIMCLRE
 70
    0
  9
$DIMCLRT
 70
    0
  9
$DIMTFAC
 40
1
  9
$DIMGAP
 40
0.625
  9
$DIMJUST
 70
    0
  9
$DIMSD1
 70
    0
  9
$DIMSD2
 70
    0
  9
$DIMTOLJ
 70
    0
  9
$DIMTZIN
 70
    8
  9
$DIMALTZ
 70
    0
  9
$DIMALTTZ
 70
    0
  9
$DIMUPT
 70
    0
  9
$DIMDEC
 70
    2
  9
$DIMTDEC
 70
    2
  9
$DIMALTU
 70
    2
  9
$DIMALTTD
 70
    3
  9
$DIMTXSTY
  7
STANDARD
  9
$DIMAUNIT
 70
    0
  9
$DIMADEC
 70
    0
  9
$DIMALTRND
 40
0
  9
$DIMAZIN
 70
    0
  9
$DIMDSEP
 70
   44
  9
$DIMATFIT
 70
    3
  9
$DIMFRAC
 70
    0
  9
$DIMLDRBLK
  1
STANDARD
  9
$DIMLUNIT
 70
    2
  9
$DIMLWD
 70
   -2
  9
$DIMLWE
 70
   -2
  9
$DIMTMOVE
 70
    0
  9
$DIMFXL
 40
1
  9
$DIMFXLON
 70
    0
  9
$DIMJOGANG
 40
0.7854
  9
$DIMTFILL
 70
    0
  9
$DIMTFILLCLR
 70
    0
  9
$DIMARCSYM
 70
    0
  9
$DIMLTYPE
  6

  9
$DIMLTEX1
  6

  9
$DIMLTEX2
  6

  9
$LUNITS
 70
    2
  9
$LUPREC
 70
    4
  9
$SKETCHINC
 40
1
  9
$FILLETRAD
 40
0
  9
$AUNITS
 70
    0
  9
$AUPREC
 70
    2
  9
$MENU
  1
.
  9
$ELEVATION
 40
0
  9
$PELEVATION
 40
0
  9
$THICKNESS
 40
0
  9
$LIMCHECK
 70
    0
  9
$CHAMFERA
 40
0
  9
$CHAMFERB
 40
0
  9
$CHAMFERC
 40
0
  9
$CHAMFERD
 40
0
  9
$SKPOLY
 70
    0
  9
$USRTIMER
 70
    1
  9
$ANGBASE
 50
0
  9
$ANGDIR
 70
    0
  9
$PDMODE
 70
   96
  9
$PDSIZE
 40
-2
  9
$PLINEWID
 40
0
  9
$SPLFRAME
 70
    0
  9
$SPLINETYPE
 70
    2
  9
$SPLINESEGS
 70
    8
  9
$HANDSEED
  5
20000
  9
$SURFTAB1
 70
    6
  9
$SURFTAB2
 70
    6
  9
$SURFTYPE
 70
    6
  9
$SURFU
 70
    6
  9
$SURFV
 70
    6
  9
$UCSBASE
  2

  9
$UCSNAME
  2

  9
$UCSORG
 10
0
 20
0
 30
0
  9
$UCSXDIR
 10
1
 20
0
 30
0
  9
$UCSYDIR
 10
0
 20
1
 30
0
  9
$UCSORTHOREF
  2

  9
$UCSORTHOVIEW
 70
    0
  9
$UCSORGTOP
 10
0
 20
0
 30
0
  9
$UCSORGBOTTOM
 10
0
 20
0
 30
0
  9
$UCSORGLEFT
 10
0
 20
0
 30
0
  9
$UCSORGRIGHT
 10
0
 20
0
 30
0
  9
$UCSORGFRONT
 10
0
 20
0
 30
0
  9
$UCSORGBACK
 10
0
 20
0
 30
0
  9
$PUCSBASE
  2

  9
$PUCSNAME
  2

  9
$PUCSORG
 10
0
 20
0
 30
0
  9
$PUCSXDIR
 10
1
 20
0
 30
0
  9
$PUCSYDIR
 10
0
 20
1
 30
0
  9
$PUCSORTHOREF
  2

  9
$PUCSORTHOVIEW
 70
    0
  9
$PUCSORGTOP
 10
0
 20
0
 30
0
  9
$PUCSORGBOTTOM
 10
0
 20
0
 30
0
  9
$PUCSORGLEFT
 10
0
 20
0
 30
0
  9
$PUCSORGRIGHT
 10
0
 20
0
 30
0
  9
$PUCSORGFRONT
 10
0
 20
0
 30
0
  9
$PUCSORGBACK
 10
0
 20
0
 30
0
  9
$USERI1
 70
    0
  9
$USERI2
 70
    0
  9
$USERI3
 70
    0
  9
$USERI4
 70
    0
  9
$USERI5
 70
    0
  9
$USERR1
 40
0
  9
$USERR2
 40
0
  9
$USERR3
 40
0
  9
$USERR4
 40
0
  9
$USERR5
 40
0
  9
$WORLDVIEW
 70
    1
  9
$SHADEDGE
 70
    3
  9
$SHADEDIF
 70
   70
  9
$TILEMODE
 70
    1
  9
$MAXACTVP
 70
   64
  9
$PINSBASE
 10
0
 20
0
 30
0
  9
$PLIMCHECK
 70
    0
  9
$PEXTMIN
 10
0
 20
0
 30
0
  9
$PEXTMAX
 10
0
 20
0
 30
0
  9
$GRIDMODE
 70
    1
  9
$SNAPSTYLE
 70
    0
  9
$PLIMMIN
 10
0
 20
0
  9
$PLIMMAX
 10
210
 20
297
  9
$UNITMODE
 70
    0
  9
$VISRETAIN
 70
    1
  9
$PLINEGEN
 70
    0
  9
$PSLTSCALE
 70
    1
  9
$TREEDEPTH
 70
 3020
  9
$CMLSTYLE
  2
Standard
  9
$CMLJUST
 70
    0
  9
$CMLSCALE
 40
20
  9
$PROXYGRAPHICS
 70
    1
  9
$MEASUREMENT
 70
    1
  9
$CELWEIGHT
370
   -1
  9
$ENDCAPS
280
    0
  9
$JOINSTYLE
280
    0
  9
$LWDISPLAY
290
    0
  9
$INSUNITS
 70
    4
  9
$HYPERLINKBASE
  1

  9
$STYLESHEET
  1

  9
$XEDIT
290
    1
  9
$CEPSNTYPE
380
    0
  9
$PSTYLEMODE
290
    1
  9
$EXTNAMES
290
    1
  9
$PSVPSCALE
 40
1
  9
$OLESTARTUP
290
    0
  9
$SORTENTS
280
  127
  9
$INDEXCTL
280
    0
  9
$HIDETEXT
280
    1
  9
$XCLIPFRAME
290
    0
  9
$HALOGAP
280
    0
  9
$OBSCOLOR
 70
  257
  9
$OBSLTYPE
280
    0
  9
$INTERSECTIONDISPLAY
280
    0
  9
$INTERSECTIONCOLOR
 70
  257
  9
$DIMASSOC
280
    1
  9
$PROJECTNAME
  1

  9
$CAMERADISPLAY
290
    0
  9
$LENSLENGTH
 40
50
  9
$CAMERAHEIGHT
 40
0
  9
$STEPSPERSEC
 40
2
  9
$STEPSIZE
 40
50
  9
$3DDWFPREC
 40
2
  9
$PSOLWIDTH
 40
5
  9
$PSOLHEIGHT
 40
80
  9
$LOFTANG1
 40
1.570796326794897
  9
$LOFTANG2
 40
1.570796326794897
  9
$LOFTMAG1
 40
0
  9
$LOFTMAG2
 40
0
  9
$LOFTPARAM
 70
    7
  9
$LOFTNORMALS
280
    1
  9
$LATITUDE
 40
1
  9
$LONGITUDE
 40
1
  9
$NORTHDIRECTION
 40
0
  9
$TIMEZONE
 70
-8000
  9
$LIGHTGLYPHDISPLAY
280
    1
  9
$TILEMODELIGHTSYNCH
280
    1
  9
$SOLIDHIST
280
    1
  9
$SHOWHIST
280
    1
  9
$DWFFRAME
280
    2
  9
$DGNFRAME
280
    0
  9
$REALWORLDSCALE
290
    1
  9
$INTERFERECOLOR
 62
    1
  9
$CSHADOW
280
    0
  9
$SHADOWPLANELOCATION
 40
0
  0
ENDSEC
  0
SECTION
  2
CLASSES
  0
ENDSEC
  0
SECTION
  2
TABLES
  0
TABLE
  2
VPORT
  5
8
330
0
100
AcDbSymbolTable
 70
    1
  0
VPORT
  5
31
330
2
100
AcDbSymbolTableRecord
100
AcDbViewportTableRecord
  2
*ACTIVE
 70
    0
 10
0
 20
0
 11
1
 21
1
 12
165.9175994367208
 22
69.07496186784641
 13
0
 23
0
 14
10
 24
10
 15
10
 25
10
 16
0
 26
0
 36
1
 17
0
 27
0
 37
0
 40
240.041229613845
 41
1.753346080305927
 42
50
 43
0
 44
0
 50
0
 51
0
 71
    0
 72
  100
 73
    1
 74
    3
 75
    0
 76
    1
 77
    0
 78
    0
281
    0
 65
    1
110
0
120
0
130
0
111
1
121
0
131
0
112
0
122
1
132
0
 79
    0
146
0
348
10020
 60
    7
 61
    5
292
1
282
    1
141
0
142
0
 63
  250
421
3358443
  0
ENDTAB
  0
TABLE
  2
LTYPE
  5
5
330
0
100
AcDbSymbolTable
 70
    4
  0
LTYPE
  5
14
330
5
100
AcDbSymbolTableRecord
100
AcDbLinetypeTableRecord
  2
ByBlock
 70
    0
  3

 72
   65
 73
    0
 40
0
  0
LTYPE
  5
15
330
5
100
AcDbSymbolTableRecord
100
AcDbLinetypeTableRecord
  2
ByLayer
 70
    0
  3

 72
   65
 73
    0
 40
0
  0
LTYPE
  5
16
330
5
100
AcDbSymbolTableRecord
100
AcDbLinetypeTableRecord
  2
Continuous
 70
    0
  3
Solid line
 72
   65
 73
    0
 40
0
  0
LTYPE
  5
32
330
5
100
AcDbSymbolTableRecord
100
AcDbLinetypeTableRecord
  2
DOT
 70
    0
  3
Dot . . . . . . . . . . . . . . . . . . . . . .
 72
   65
 73
    2
 40
6.35
 49
0
 74
    0
 49
-6.35
 74
    0
  0
LTYPE
  5
33
330
5
100
AcDbSymbolTableRecord
100
AcDbLinetypeTableRecord
  2
DOTTINY
 70
    0
  3
Dot (.15x) .....................................
 72
   65
 73
    2
 40
0.9525
 49
0
 74
    0
 49
-0.9525
 74
    0
  0
LTYPE
  5
34
330
5
100
AcDbSymbolTableRecord
100
AcDbLinetypeTableRecord
  2
DOT2
 70
    0
  3
Dot (.5x) .....................................
 72
   65
 73
    2
 40
3.175
 49
0
 74
    0
 49
-3.175
 74
    0
  0
LTYPE
  5
35
330
5
100
AcDbSymbolTableRecord
100
AcDbLinetypeTableRecord
  2
DOTX2
 70
    0
  3
Dot (2x) .  .  .  .  .  .  .  .  .  .  .  .  .
 72
   65
 73
    2
 40
12.7
 49
0
 74
    0
 49
-12.7
 74
    0
  0
LTYPE
  5
36
330
5
100
AcDbSymbolTableRecord
100
AcDbLinetypeTableRecord
  2
DASHED
 70
    0
  3
Dashed _ _ _ _ _ _ _ _ _ _ _ _ _ _ _ _ _
 72
   65
 73
    2
 40
19.05
 49
12.7
 74
    0
 49
-6.35
 74
    0
  0
LTYPE
  5
37
330
5
100
AcDbSymbolTableRecord
100
AcDbLinetypeTableRecord
  2
DASHEDTINY
 70
    0
  3
Dashed (.15x) _ _ _ _ _ _ _ _ _ _ _ _ _ _ _ _ _
 72
   65
 73
    2
 40
2.8575
 49
1.905
 74
    0
 49
-0.9525
 74
    0
  0
LTYPE
  5
38
330
5
100
AcDbSymbolTableRecord
100
AcDbLinetypeTableRecord
  2
DASHED2
 70
    0
  3
Dashed (.5x) _ _ _ _ _ _ _ _ _ _ _ _ _ _ _ _ _
 72
   65
 73
    2
 40
9.524999999999999
 49
6.35
 74
    0
 49
-3.175
 74
    0
  0
LTYPE
  5
39
330
5
100
AcDbSymbolTableRecord
100
AcDbLinetypeTableRecord
  2
DASHEDX2
 70
    0
  3
Dashed (2x) ____  ____  ____  ____  ____  ___
 72
   65
 73
    2
 40
38.09999999999999
 49
25.4
 74
    0
 49
-12.7
 74
    0
  0
LTYPE
  5
3A
330
5
100
AcDbSymbolTableRecord
100
AcDbLinetypeTableRecord
  2
DASHDOT
 70
    0
  3
Dash dot __ . __ . __ . __ . __ . __ . __ . __
 72
   65
 73
    4
 40
25.4
 49
12.7
 74
    0
 49
-6.35
 74
    0
 49
0
 74
    0
 49
-6.35
 74
    0
  0
LTYPE
  5
3B
330
5
100
AcDbSymbolTableRecord
100
AcDbLinetypeTableRecord
  2
DASHDOTTINY
 70
    0
  3
Dash dot (.15x) _._._._._._._._._._._._._._._.
 72
   65
 73
    4
 40
3.81
 49
1.905
 74
    0
 49
-0.9525
 74
    0
 49
0
 74
    0
 49
-0.9525
 74
    0
  0
LTYPE
  5
3C
330
5
100
AcDbSymbolTableRecord
100
AcDbLinetypeTableRecord
  2
DASHDOT2
 70
    0
  3
Dash dot (.5x) _._._._._._._._._._._._._._._.
 72
   65
 73
    4
 40
12.7
 49
6.35
 74
    0
 49
-3.175
 74
    0
 49
0
 74
    0
 49
-3.175
 74
    0
  0
LTYPE
  5
3D
330
5
100
AcDbSymbolTableRecord
100
AcDbLinetypeTableRecord
  2
DASHDOTX2
 70
    0
  3
Dash dot (2x) ____  .  ____  .  ____  .  ___
 72
   65
 73
    4
 40
50.8
 49
25.4
 74
    0
 49
-12.7
 74
    0
 49
0
 74
    0
 49
-12.7
 74
    0
  0
LTYPE
  5
3E
330
5
100
AcDbSymbolTableRecord
100
AcDbLinetypeTableRecord
  2
DIVIDE
 70
    0
  3
Divide ____ . . ____ . . ____ . . ____ . . ____
 72
   65
 73
    6
 40
31.75
 49
12.7
 74
    0
 49
-6.35
 74
    0
 49
0
 74
    0
 49
-6.35
 74
    0
 49
0
 74
    0
 49
-6.35
 74
    0
  0
LTYPE
  5
3F
330
5
100
AcDbSymbolTableRecord
100
AcDbLinetypeTableRecord
  2
DIVIDETINY
 70
    0
  3
Divide (.15x) __..__..__..__..__..__..__..__.._
 72
   65
 73
    6
 40
4.7625
 49
1.905
 74
    0
 49
-0.9525
 74
    0
 49
0
 74
    0
 49
-0.9525
 74
    0
 49
0
 74
    0
 49
-0.9525
 74
    0
  0
LTYPE
  5
40
330
5
100
AcDbSymbolTableRecord
100
AcDbLinetypeTableRecord
  2
DIVIDE2
 70
    0
  3
Divide (.5x) __..__..__..__..__..__..__..__.._
 72
   65
 73
    6
 40
15.875
 49
6.35
 74
    0
 49
-3.175
 74
    0
 49
0
 74
    0
 49
-3.175
 74
    0
 49
0
 74
    0
 49
-3.175
 74
    0
  0
LTYPE
  5
41
330
5
100
AcDbSymbolTableRecord
100
AcDbLinetypeTableRecord
  2
DIVIDEX2
 70
    0
  3
Divide (2x) ________  .  .  ________  .  .  _
 72
   65
 73
    6
 40
63.5
 49
25.4
 74
    0
 49
-12.7
 74
    0
 49
0
 74
    0
 49
-12.7
 74
    0
 49
0
 74
    0
 49
-12.7
 74
    0
  0
LTYPE
  5
42
330
5
100
AcDbSymbolTableRecord
100
AcDbLinetypeTableRecord
  2
BORDER
 70
    0
  3
Border __ __ . __ __ . __ __ . __ __ . __ __ .
 72
   65
 73
    6
 40
44.45
 49
12.7
 74
    0
 49
-6.35
 74
    0
 49
12.7
 74
    0
 49
-6.35
 74
    0
 49
0
 74
    0
 49
-6.35
 74
    0
  0
LTYPE
  5
43
330
5
100
AcDbSymbolTableRecord
100
AcDbLinetypeTableRecord
  2
BORDERTINY
 70
    0
  3
Border (.15x) __.__.__.__.__.__.__.__.__.__.__.
 72
   65
 73
    6
 40
6.6675
 49
1.905
 74
    0
 49
-0.9525
 74
    0
 49
1.905
 74
    0
 49
-0.9525
 74
    0
 49
0
 74
    0
 49
-0.9525
 74
    0
  0
LTYPE
  5
44
330
5
100
AcDbSymbolTableRecord
100
AcDbLinetypeTableRecord
  2
BORDER2
 70
    0
  3
Border (.5x) __.__.__.__.__.__.__.__.__.__.__.
 72
   65
 73
    6
 40
22.225
 49
6.35
 74
    0
 49
-3.175
 74
    0
 49
6.35
 74
    0
 49
-3.175
 74
    0
 49
0
 74
    0
 49
-3.175
 74
    0
  0
LTYPE
  5
45
330
5
100
AcDbSymbolTableRecord
100
AcDbLinetypeTableRecord
  2
BORDERX2
 70
    0
  3
Border (2x) ____  ____  .  ____  ____  .  ___
 72
   65
 73
    6
 40
88.89999999999999
 49
25.4
 74
    0
 49
-12.7
 74
    0
 49
25.4
 74
    0
 49
-12.7
 74
    0
 49
0
 74
    0
 49
-12.7
 74
    0
  0
LTYPE
  5
46
330
5
100
AcDbSymbolTableRecord
100
AcDbLinetypeTableRecord
  2
CENTER
 70
    0
  3
Center ____ _ ____ _ ____ _ ____ _ ____ _ ____
 72
   65
 73
    4
 40
50.8
 49
31.75
 74
    0
 49
-6.35
 74
    0
 49
6.35
 74
    0
 49
-6.35
 74
    0
  0
LTYPE
  5
47
330
5
100
AcDbSymbolTableRecord
100
AcDbLinetypeTableRecord
  2
CENTERTINY
 70
    0
  3
Center (.15x) ___ _ ___ _ ___ _ ___ _ ___ _ ___
 72
   65
 73
    4
 40
7.619999999999999
 49
4.7625
 74
    0
 49
-0.9525
 74
    0
 49
0.9525
 74
    0
 49
-0.9525
 74
    0
  0
LTYPE
  5
48
330
5
100
AcDbSymbolTableRecord
100
AcDbLinetypeTableRecord
  2
CENTER2
 70
    0
  3
Center (.5x) ___ _ ___ _ ___ _ ___ _ ___ _ ___
 72
   65
 73
    4
 40
28.575
 49
19.05
 74
    0
 49
-3.175
 74
    0
 49
3.175
 74
    0
 49
-3.175
 74
    0
  0
LTYPE
  5
49
330
5
100
AcDbSymbolTableRecord
100
AcDbLinetypeTableRecord
  2
CENTERX2
 70
    0
  3
Center (2x) ________  __  ________  __  _____
 72
   65
 73
    4
 40
101.6
 49
63.5
 74
    0
 49
-12.7
 74
    0
 49
12.7
 74
    0
 49
-12.7
 74
    0
  0
ENDTAB
  0
TABLE
  2
LAYER
  5
2
330
0
100
AcDbSymbolTable
 70
    1
  0
LAYER
  5
10
330
2
100
AcDbSymbolTableRecord
100
AcDbLayerTableRecord
  2
0
 70
    1
 62
    7
  6
CONTINUOUS
370
   25
390
F
  0
LAYER
  5
4A
330
2
100
AcDbSymbolTableRecord
100
AcDbLayerTableRecord
  2
espaciador tipo 3
 70
    0
 62
    5
  6
CONTINUOUS
370
    0
390
F
  0
LAYER
  5
4B
330
2
100
AcDbSymbolTableRecord
100
AcDbLayerTableRecord
  2
espaciador tipo 1
 70
    1
 62
    1
  6
CONTINUOUS
370
    0
390
F
  0
LAYER
  5
4C
330
2
100
AcDbSymbolTableRecord
100
AcDbLayerTableRecord
  2
espaciador tipo 2
 70
    1
 62
   96
420
32768
  6
CONTINUOUS
370
    0
390
F
  0
LAYER
  5
4D
330
2
100
AcDbSymbolTableRecord
100
AcDbLayerTableRecord
  2
disco A
 70
    0
 62
    4
  6
CONTINUOUS
370
    0
390
F
  0
LAYER
  5
4E
330
2
100
AcDbSymbolTableRecord
100
AcDbLayerTableRecord
  2
instrucciones y medidas
 70
    0
 62
    9
  6
CONTINUOUS
370
    0
390
F
  0
ENDTAB
  0
TABLE
  2
STYLE
  5
3
330
0
100
AcDbSymbolTable
 70
    3
  0
STYLE
  5
4F
330
2
100
AcDbSymbolTableRecord
100
AcDbTextStyleTableRecord
  2
standard
 70
    0
 40
0
 41
1
 50
0
 71
    0
 42
1
  3
standard
  4

  0
ENDTAB
  0
TABLE
  2
VIEW
  5
6
330
0
100
AcDbSymbolTable
 70
    0
  0
ENDTAB
  0
TABLE
  2
UCS
  5
7
330
0
100
AcDbSymbolTable
 70
    0
  0
ENDTAB
  0
TABLE
  2
APPID
  5
9
330
0
100
AcDbSymbolTable
 70
    1
  0
APPID
  5
12
330
9
100
AcDbSymbolTableRecord
100
AcDbRegAppTableRecord
  2
ACAD
 70
    0
  0
APPID
  5
50
330
9
100
AcDbSymbolTableRecord
100
AcDbRegAppTableRecord
  2
LibreCad
 70
    0
  0
ENDTAB
  0
TABLE
  2
DIMSTYLE
  5
A
330
0
100
AcDbSymbolTable
 70
    1
100
AcDbDimStyleTable
 71
    1
  0
DIMSTYLE
105
51
330
A
100
AcDbSymbolTableRecord
100
AcDbDimStyleTableRecord
  2
Standard
 70
    0
 40
2.5
 41
2.5
 42
0.625
 43
0.38
 44
1.25
 45
0
 46
0
 47
0
 48
0
 49
1
140
2.5
141
0.09
142
0
143
25.4
144
1
145
0
146
1
147
0.625
148
0
 71
    0
 72
    0
 73
    0
 74
    1
 75
    0
 76
    0
 77
    0
 78
    8
 79
    0
170
    0
171
    2
172
    0
173
    0
174
    0
175
    0
176
    0
177
    0
178
    0
179
    0
271
    2
272
    4
273
    2
274
    2
275
    0
276
    0
277
    2
278
   44
279
    0
280
    0
281
    0
282
    0
283
    1
284
    0
285
    0
286
    0
288
    0
289
    3
340
4F
  0
ENDTAB
  0
TABLE
  2
BLOCK_RECORD
  5
1
330
0
100
AcDbSymbolTable
 70
    2
  0
BLOCK_RECORD
  5
1F
330
1
100
AcDbSymbolTableRecord
100
AcDbBlockTableRecord
  2
*Model_Space
 70
    0
280
    1
281
    0
  0
BLOCK_RECORD
  5
1E
330
1
100
AcDbSymbolTableRecord
100
AcDbBlockTableRecord
  2
*Paper_Space
 70
    0
280
    1
281
    0
  0
BLOCK_RECORD
  5
52
330
1
100
AcDbSymbolTableRecord
100
AcDbBlockTableRecord
  2
*D1
 70
    0
280
    1
281
    0
  0
BLOCK_RECORD
  5
55
330
1
100
AcDbSymbolTableRecord
100
AcDbBlockTableRecord
  2
*D2
 70
    0
280
    1
281
    0
  0
BLOCK_RECORD
  5
58
330
1
100
AcDbSymbolTableRecord
100
AcDbBlockTableRecord
  2
*D3
 70
    0
280
    1
281
    0
  0
BLOCK_RECORD
  5
5B
330
1
100
AcDbSymbolTableRecord
100
AcDbBlockTableRecord
  2
disco A
 70
    0
280
    1
281
    0
  0
BLOCK_RECORD
  5
5E
330
1
100
AcDbSymbolTableRecord
100
AcDbBlockTableRecord
  2
espaciador t 1
 70
    0
280
    1
281
    0
  0
BLOCK_RECORD
  5
61
330
1
100
AcDbSymbolTableRecord
100
AcDbBlockTableRecord
  2
espaciador t 3
 70
    0
280
    1
281
    0
  0
BLOCK_RECORD
  5
64
330
1
100
AcDbSymbolTableRecord
100
AcDbBlockTableRecord
  2
espaciador t 2
 70
    0
280
    1
281
    0
  0
ENDTAB
  0
ENDSEC
  0
SECTION
  2
BLOCKS
  0
BLOCK
  5
20
330
1F
100
AcDbEntity
  8
0
100
AcDbBlockBegin
  2
*Model_Space
 70
    0
 10
0
 20
0
 30
0
  3
*Model_Space
  1

  0
ENDBLK
  5
21
330
1F
100
AcDbEntity
  8
0
100
AcDbBlockEnd
  0
BLOCK
  5
1C
330
1B
100
AcDbEntity
  8
0
100
AcDbBlockBegin
  2
*Paper_Space
 70
    0
 10
0
 20
0
 30
0
  3
*Paper_Space
  1

  0
ENDBLK
  5
1D
330
1F
100
AcDbEntity
  8
0
100
AcDbBlockEnd
  0
BLOCK
  5
53
330
52
100
AcDbEntity
  8
0
100
AcDbBlockBegin
  2
*D1
 70
    1
 10
0
 20
0
  3
*D1
  1

  0
LINE
  5
67
100
AcDbEntity
  8
instrucciones y medidas
  6
ByBlock
 62
    0
370
   -2
100
AcDbLine
 10
-47.99999999999999
 20
62.09999711365567
 11
48
 21
62.09999711365567
  0
MTEXT
  5
68
100
AcDbEntity
  8
instrucciones y medidas
  6
CONTINUOUS
 62
    0
370
   -2
100
AcDbMText
 10
3.839740272350662e-15
 20
66.78749711365566
 30
0
 40
6.25
 41
7.638888888890051
 71
    5
 72
    1
  1
96
  7
STANDARD
210
0
220
0
230
1
 50
0
 73
    2
 44
1
  0
SOLID
  5
69
100
AcDbEntity
  8
instrucciones y medidas
  6
ByBlock
 62
    0
370
   -2
100
AcDbTrace
 10
-47.99999999999999
 20
62.09999711365567
 30
0
 11
-41.74999999999999
 21
63.14070875808777
 31
0
 12
-41.74999999999999
 22
61.05928546922357
 32
0
 13
-41.74999999999999
 23
61.05928546922357
 33
0
  0
SOLID
  5
6A
100
AcDbEntity
  8
instrucciones y medidas
  6
ByBlock
 62
    0
370
   -2
100
AcDbTrace
 10
48
 20
62.09999711365567
 30
0
 11
41.75
 21
61.05928546922357
 31
0
 12
41.75
 22
63.14070875808777
 32
0
 13
41.75
 23
63.14070875808777
 33
0
  0
LINE
  5
6B
100
AcDbEntity
  8
instrucciones y medidas
  6
ByBlock
 62
    0
370
   -2
100
AcDbLine
 10
-48
 20
1.562500000000006
 11
-47.99999999999999
 21
65.22499711365566
  0
LINE
  5
6C
100
AcDbEntity
  8
instrucciones y medidas
  6
ByBlock
 62
    0
370
   -2
100
AcDbLine
 10
48
 20
1.5625
 11
48
 21
65.22499711365566
  0
ENDBLK
  5
54
330
52
100
AcDbEntity
  8
0
100
AcDbBlockEnd
  0
BLOCK
  5
56
330
55
100
AcDbEntity
  8
0
100
AcDbBlockBegin
  2
*D2
 70
    1
 10
0
 20
0
  3
*D2
  1

  0
LINE
  5
6D
100
AcDbEntity
  8
instrucciones y medidas
  6
ByBlock
 62
    0
370
   -2
100
AcDbLine
 10
31
 20
-7.592810154713589e-15
 11
-31
 21
3.796405077356794e-15
  0
MTEXT
  5
6E
100
AcDbEntity
  8
instrucciones y medidas
  6
CONTINUOUS
 62
    0
370
   -2
100
AcDbMText
 10
2.870265935501609e-16
 20
4.687499999999998
 30
0
 40
6.25
 41
7.638888888889276
 71
    5
 72
    1
  1
62
  7
STANDARD
210
0
220
0
230
1
 50
0
 73
    2
 44
1
  0
SOLID
  5
6F
100
AcDbEntity
  8
instrucciones y medidas
  6
ByBlock
 62
    0
370
   -2
100
AcDbTrace
 10
31
 20
-7.592810154713589e-15
 30
0
 11
24.75
 21
-1.040711644432109
 31
0
 12
24.75
 22
1.040711644432094
 32
0
 13
24.75
 23
1.040711644432094
 33
0
  0
SOLID
  5
70
100
AcDbEntity
  8
instrucciones y medidas
  6
ByBlock
 62
    0
370
   -2
100
AcDbTrace
 10
-31
 20
3.796405077356794e-15
 30
0
 11
-24.75
 21
1.040711644432104
 31
0
 12
-24.75
 22
-1.040711644432098
 32
0
 13
-24.75
 23
-1.040711644432098
 33
0
  0
ENDBLK
  5
57
330
55
100
AcDbEntity
  8
0
100
AcDbBlockEnd
  0
BLOCK
  5
59
330
58
100
AcDbEntity
  8
0
100
AcDbBlockBegin
  2
*D3
 70
    1
 10
0
 20
0
  3
*D3
  1

  0
LINE
  5
71
100
AcDbEntity
  8
instrucciones y medidas
  6
ByBlock
 62
    0
370
   -2
100
AcDbLine
 10
36.50002861439176
 20
-36.37308347947322
 11
5.500028614391759
 21
-36.37308347947322
  0
MTEXT
  5
72
100
AcDbEntity
  8
instrucciones y medidas
  6
CONTINUOUS
 62
    0
370
   -2
100
AcDbMText
 10
21.00002861439176
 20
-31.68558347947322
 30
0
 40
6.25
 41
2.777777777778165
 71
    5
 72
    1
  1
6
  7
STANDARD
210
0
220
0
230
1
 50
0
 73
    2
 44
1
  0
SOLID
  5
73
100
AcDbEntity
  8
instrucciones y medidas
  6
ByBlock
 62
    0
370
   -2
100
AcDbTrace
 10
24.00002861439176
 20
-36.37308347947322
 30
0
 11
30.25002861439176
 21
-35.33237183504112
 31
0
 12
30.25002861439176
 22
-37.41379512390532
 32
0
 13
30.25002861439176
 23
-37.41379512390532
 33
0
  0
SOLID
  5
74
100
AcDbEntity
  8
instrucciones y medidas
  6
ByBlock
 62
    0
370
   -2
100
AcDbTrace
 10
18.00002861439176
 20
-36.37308347947322
 30
0
 11
11.75002861439176
 21
-37.41379512390532
 31
0
 12
11.75002861439176
 22
-35.33237183504112
 32
0
 13
11.75002861439176
 23
-35.33237183504112
 33
0
  0
ENDBLK
  5
5A
330
58
100
AcDbEntity
  8
0
100
AcDbBlockEnd
  0
BLOCK
  5
5C
330
5B
100
AcDbEntity
  8
0
100
AcDbBlockBegin
  2
disco A
 70
    0
 10
0
 20
0
  3
disco A
  1

  0
CIRCLE
  5
75
100
AcDbEntity
  8
espaciador tipo 3
  6
ByLayer
 62
  256
370
   -1
100
AcDbCircle
 10
0
 20
0
 40
48
  0
CIRCLE
  5
76
100
AcDbEntity
  8
espaciador tipo 3
  6
ByLayer
 62
  256
370
   -1
100
AcDbCircle
 10
21
 20
-36.3731
 40
3
  0
CIRCLE
  5
77
100
AcDbEntity
  8
espaciador tipo 3
  6
ByLayer
 62
  256
370
   -1
100
AcDbCircle
 10
42
 20
0
 40
3
  0
CIRCLE
  5
78
100
AcDbEntity
  8
espaciador tipo 3
  6
ByLayer
 62
  256
370
   -1
100
AcDbCircle
 10
21
 20
36.3731
 40
3
  0
CIRCLE
  5
79
100
AcDbEntity
  8
espaciador tipo 3
  6
ByLayer
 62
  256
370
   -1
100
AcDbCircle
 10
-21
 20
36.3731
 40
3
  0
CIRCLE
  5
7A
100
AcDbEntity
  8
espaciador tipo 3
  6
ByLayer
 62
  256
370
   -1
100
AcDbCircle
 10
-42
 20
0
 40
3
  0
CIRCLE
  5
7B
100
AcDbEntity
  8
espaciador tipo 3
  6
ByLayer
 62
  256
370
   -1
100
AcDbCircle
 10
-21
 20
-36.3731
 40
3
  0
ARC
  5
7C
100
AcDbEntity
  8
espaciador tipo 3
  6
ByLayer
 62
  256
370
   -1
100
AcDbCircle
 10
0
 20
0
 40
35
100
AcDbArc
 50
70
 51
110
  0
ARC
  5
7D
100
AcDbEntity
  8
espaciador tipo 3
  6
ByLayer
 62
  256
370
   -1
100
AcDbCircle
 10
0
 20
0
 40
31
100
AcDbArc
 50
110
 51
130
  0
LINE
  5
7E
100
AcDbEntity
  8
espaciador tipo 3
  6
ByLayer
 62
  256
370
   -1
100
AcDbLine
 10
10.60262444309573
 20
29.13047124436316
 11
11.97070501639841
 21
32.88924172750679
  0
LINE
  5
7F
100
AcDbEntity
  8
espaciador tipo 3
  6
ByLayer
 62
  256
370
   -1
100
AcDbLine
 10
-11.97070501639841
 20
32.88924172750679
 11
-10.60262444309573
 21
29.13047124436316
  0
ARC
  5
80
100
AcDbEntity
  8
espaciador tipo 3
  6
ByLayer
 62
  256
370
   -1
100
AcDbCircle
 10
0
 20
0
 40
35
100
AcDbArc
 50
130
 51
170
  0
ARC
  5
81
100
AcDbEntity
  8
espaciador tipo 3
  6
ByLayer
 62
  256
370
   -1
100
AcDbCircle
 10
0
 20
0
 40
31
100
AcDbArc
 50
170
 51
190
  0
LINE
  5
82
100
AcDbEntity
  8
espaciador tipo 3
  6
ByLayer
 62
  256
370
   -1
100
AcDbLine
 10
-19.92641590028271
 20
23.74737773668832
 11
-22.49756633902887
 21
26.81155550916424
  0
LINE
  5
83
100
AcDbEntity
  8
espaciador tipo 3
  6
ByLayer
 62
  256
370
   -1
100
AcDbLine
 10
-34.46827135542728
 20
6.077686218342562
 11
-30.52904034337845
 21
5.38309350767484
  0
ARC
  5
84
100
AcDbEntity
  8
espaciador tipo 3
  6
ByLayer
 62
  256
370
   -1
100
AcDbCircle
 10
0
 20
0
 40
35
100
AcDbArc
 50
190
 51
230
  0
ARC
  5
85
100
AcDbEntity
  8
espaciador tipo 3
  6
ByLayer
 62
  256
370
   -1
100
AcDbCircle
 10
0
 20
0
 40
31
100
AcDbArc
 50
230
 51
250
  0
LINE
  5
86
100
AcDbEntity
  8
espaciador tipo 3
  6
ByLayer
 62
  256
370
   -1
100
AcDbLine
 10
-30.52904034337845
 20
-5.383093507674829
 11
-34.46827135542728
 21
-6.077686218342549
  0
LINE
  5
87
100
AcDbEntity
  8
espaciador tipo 3
  6
ByLayer
 62
  256
370
   -1
100
AcDbLine
 10
-22.49756633902888
 20
-26.81155550916423
 11
-19.92641590028272
 21
-23.74737773668831
  0
ARC
  5
88
100
AcDbEntity
  8
espaciador tipo 3
  6
ByLayer
 62
  256
370
   -1
100
AcDbCircle
 10
0
 20
0
 40
35
100
AcDbArc
 50
250
 51
290
  0
ARC
  5
89
100
AcDbEntity
  8
espaciador tipo 3
  6
ByLayer
 62
  256
370
   -1
100
AcDbCircle
 10
0
 20
0
 40
31
100
AcDbArc
 50
290
 51
309.9999999999999
  0
LINE
  5
8A
100
AcDbEntity
  8
espaciador tipo 3
  6
ByLayer
 62
  256
370
   -1
100
AcDbLine
 10
-10.60262444309575
 20
-29.13047124436315
 11
-11.97070501639842
 21
-32.88924172750679
  0
LINE
  5
8B
100
AcDbEntity
  8
espaciador tipo 3
  6
ByLayer
 62
  256
370
   -1
100
AcDbLine
 10
11.9707050163984
 20
-32.88924172750679
 11
10.60262444309572
 21
-29.13047124436316
  0
ARC
  5
8C
100
AcDbEntity
  8
espaciador tipo 3
  6
ByLayer
 62
  256
370
   -1
100
AcDbCircle
 10
0
 20
0
 40
35
100
AcDbArc
 50
250
 51
290
  0
ARC
  5
8D
100
AcDbEntity
  8
espaciador tipo 3
  6
ByLayer
 62
  256
370
   -1
100
AcDbCircle
 10
0
 20
0
 40
31
100
AcDbArc
 50
290
 51
310
  0
LINE
  5
8E
100
AcDbEntity
  8
espaciador tipo 3
  6
ByLayer
 62
  256
370
   -1
100
AcDbLine
 10
-10.60262444309574
 20
-29.13047124436316
 11
-11.97070501639841
 21
-32.88924172750679
  0
LINE
  5
8F
100
AcDbEntity
  8
espaciador tipo 3
  6
ByLayer
 62
  256
370
   -1
100
AcDbLine
 10
11.97070501639841
 20
-32.88924172750679
 11
10.60262444309573
 21
-29.13047124436316
  0
ARC
  5
90
100
AcDbEntity
  8
espaciador tipo 3
  6
ByLayer
 62
  256
370
   -1
100
AcDbCircle
 10
0
 20
0
 40
35
100
AcDbArc
 50
310
 51
350
  0
ARC
  5
91
100
AcDbEntity
  8
espaciador tipo 3
  6
ByLayer
 62
  256
370
   -1
100
AcDbCircle
 10
0
 20
0
 40
31
100
AcDbArc
 50
350
 51
9.999999999999989
  0
LINE
  5
92
100
AcDbEntity
  8
espaciador tipo 3
  6
ByLayer
 62
  256
370
   -1
100
AcDbLine
 10
19.92641590028271
 20
-23.74737773668833
 11
22.49756633902887
 21
-26.81155550916424
  0
LINE
  5
93
100
AcDbEntity
  8
espaciador tipo 3
  6
ByLayer
 62
  256
370
   -1
100
AcDbLine
 10
34.46827135542728
 20
-6.077686218342566
 11
30.52904034337845
 21
-5.383093507674843
  0
ARC
  5
94
100
AcDbEntity
  8
espaciador tipo 3
  6
ByLayer
 62
  256
370
   -1
100
AcDbCircle
 10
0
 20
0
 40
35
100
AcDbArc
 50
9.999999999999989
 51
49.99999999999999
  0
ARC
  5
95
100
AcDbEntity
  8
espaciador tipo 3
  6
ByLayer
 62
  256
370
   -1
100
AcDbCircle
 10
0
 20
0
 40
31
100
AcDbArc
 50
49.99999999999999
 51
70.00000000000003
  0
LINE
  5
96
100
AcDbEntity
  8
espaciador tipo 3
  6
ByLayer
 62
  256
370
   -1
100
AcDbLine
 10
30.52904034337845
 20
5.383093507674825
 11
34.46827135542728
 21
6.077686218342545
  0
LINE
  5
97
100
AcDbEntity
  8
espaciador tipo 3
  6
ByLayer
 62
  256
370
   -1
100
AcDbLine
 10
22.49756633902888
 20
26.81155550916423
 11
19.92641590028272
 21
23.74737773668831
  0
ARC
  5
98
100
AcDbEntity
  8
espaciador tipo 3
  6
ByLayer
 62
  256
370
   -1
100
AcDbCircle
 10
0
 20
0
 40
35
100
AcDbArc
 50
70.00000000000003
 51
110
  0
ARC
  5
99
100
AcDbEntity
  8
espaciador tipo 3
  6
ByLayer
 62
  256
370
   -1
100
AcDbCircle
 10
0
 20
0
 40
31
100
AcDbArc
 50
110
 51
129.9999999999999
  0
LINE
  5
9A
100
AcDbEntity
  8
espaciador tipo 3
  6
ByLayer
 62
  256
370
   -1
100
AcDbLine
 10
10.60262444309575
 20
29.13047124436315
 11
11.97070501639842
 21
32.88924172750679
  0
LINE
  5
9B
100
AcDbEntity
  8
espaciador tipo 3
  6
ByLayer
 62
  256
370
   -1
100
AcDbLine
 10
-11.9707050163984
 20
32.88924172750679
 11
-10.60262444309572
 21
29.13047124436316
  0
ENDBLK
  5
5D
330
5B
100
AcDbEntity
  8
0
100
AcDbBlockEnd
  0
BLOCK
  5
5F
330
5E
100
AcDbEntity
  8
0
100
AcDbBlockBegin
  2
espaciador t 1
 70
    0
 10
0
 20
0
  3
espaciador t 1
  1

  0
CIRCLE
  5
9C
100
AcDbEntity
  8
espaciador tipo 1
  6
ByLayer
 62
  256
370
   -1
100
AcDbCircle
 10
0
 20
0
 40
35
  0
CIRCLE
  5
9D
100
AcDbEntity
  8
espaciador tipo 1
  6
ByLayer
 62
  256
370
   -1
100
AcDbCircle
 10
42
 20
0
 40
3
  0
CIRCLE
  5
9E
100
AcDbEntity
  8
espaciador tipo 1
  6
ByLayer
 62
  256
370
   -1
100
AcDbCircle
 10
-21
 20
36.3731
 40
3
  0
CIRCLE
  5
9F
100
AcDbEntity
  8
espaciador tipo 1
  6
ByLayer
 62
  256
370
   -1
100
AcDbCircle
 10
-21
 20
-36.3731
 40
3
  0
ARC
  5
A0
100
AcDbEntity
  8
espaciador tipo 1
  6
CONTINUOUS
 62
    7
370
    0
100
AcDbCircle
 10
-19.99999999999999
 20
34.64101615137756
 40
10
100
AcDbArc
 50
299.9999368752868
 51
300.0000012408221
  0
ARC
  5
A1
100
AcDbEntity
  8
espaciador tipo 1
  6
CONTINUOUS
 62
    1
370
    0
100
AcDbCircle
 10
0
 20
0
 40
40
100
AcDbArc
 50
254.362
 51
345.638
  0
ARC
  5
A2
100
AcDbEntity
  8
espaciador tipo 1
  6
CONTINUOUS
 62
    1
370
    0
100
AcDbCircle
 10
0
 20
0
 40
40
100
AcDbArc
 50
14.3615
 51
105.638
  0
ARC
  5
A3
100
AcDbEntity
  8
espaciador tipo 1
  6
CONTINUOUS
 62
    1
370
    0
100
AcDbCircle
 10
-20
 20
34.641
 40
10
100
AcDbArc
 50
22.8192
 51
217.181
  0
ARC
  5
A4
100
AcDbEntity
  8
espaciador tipo 1
  6
CONTINUOUS
 62
    1
370
    0
100
AcDbCircle
 10
0
 20
0
 40
40
100
AcDbArc
 50
134.362
 51
225.638
  0
ARC
  5
A5
100
AcDbEntity
  8
espaciador tipo 1
  6
CONTINUOUS
 62
    1
370
    0
100
AcDbCircle
 10
-20
 20
-34.641
 40
10
100
AcDbArc
 50
142.819
 51
337.181
  0
ARC
  5
A6
100
AcDbEntity
  8
espaciador tipo 1
  6
CONTINUOUS
 62
  256
370
    0
100
AcDbCircle
 10
40
 20
-9.79717e-15
 40
10
100
AcDbArc
 50
262.819
 51
97.1808
  0
ENDBLK
  5
60
330
5E
100
AcDbEntity
  8
0
100
AcDbBlockEnd
  0
BLOCK
  5
62
330
61
100
AcDbEntity
  8
0
100
AcDbBlockBegin
  2
espaciador t 3
 70
    0
 10
0
 20
0
  3
espaciador t 3
  1

  0
INSERT
  5
A7
100
AcDbEntity
  8
disco A
  6
ByLayer
 62
  256
370
   -1
100
AcDbBlockReference
  2
espaciador t 1
 10
0
 20
0
 30
0
 41
1
 42
1
 43
0
 50
0
 70
    1
 71
    1
 44
1
 45
1
  0
INSERT
  5
A8
100
AcDbEntity
  8
disco A
  6
ByLayer
 62
  256
370
   -1
100
AcDbBlockReference
  2
espaciador t 1
 10
0
 20
0
 30
0
 41
1
 42
1
 43
0
 50
0
 70
    1
 71
    1
 44
1
 45
1
  0
INSERT
  5
A9
100
AcDbEntity
  8
disco A
  6
ByLayer
 62
  256
370
   -1
100
AcDbBlockReference
  2
espaciador t 1
 10
0
 20
0
 30
0
 41
1
 42
1
 43
0
 50
0
 70
    1
 71
    1
 44
1
 45
1
  0
INSERT
  5
AA
100
AcDbEntity
  8
disco A
  6
ByLayer
 62
  256
370
   -1
100
AcDbBlockReference
  2
espaciador t 1
 10
0
 20
0
 30
0
 41
1
 42
1
 43
0
 50
0
 70
    1
 71
    1
 44
1
 45
1
  0
INSERT
  5
AB
100
AcDbEntity
  8
disco A
  6
ByLayer
 62
  256
370
   -1
100
AcDbBlockReference
  2
espaciador t 1
 10
0
 20
0
 30
0
 41
1
 42
1
 43
0
 50
0
 70
    1
 71
    1
 44
1
 45
1
  0
CIRCLE
  5
AC
100
AcDbEntity
  8
disco A
  6
ByLayer
 62
  256
370
   -1
100
AcDbCircle
 10
42
 20
0
 40
3
  0
CIRCLE
  5
AD
100
AcDbEntity
  8
disco A
  6
ByLayer
 62
  256
370
   -1
100
AcDbCircle
 10
-21
 20
36.3731
 40
3
  0
CIRCLE
  5
AE
100
AcDbEntity
  8
disco A
  6
ByLayer
 62
  256
370
   -1
100
AcDbCircle
 10
-21
 20
-36.3731
 40
3
  0
ARC
  5
AF
100
AcDbEntity
  8
disco A
  6
CONTINUOUS
 62
    7
370
    0
100
AcDbCircle
 10
-19.99999999999999
 20
34.64101615137756
 40
10
100
AcDbArc
 50
299.9999368752868
 51
300.0000012408221
  0
CIRCLE
  5
B0
100
AcDbEntity
  8
disco A
  6
ByLayer
 62
  256
370
   -1
100
AcDbCircle
 10
21
 20
36.37306695894642
 40
3
  0
CIRCLE
  5
B1
100
AcDbEntity
  8
disco A
  6
ByLayer
 62
  256
370
   -1
100
AcDbCircle
 10
-42.00002861439177
 20
1.652052679190774e-05
 40
3
  0
CIRCLE
  5
B2
100
AcDbEntity
  8
disco A
  6
ByLayer
 62
  256
370
   -1
100
AcDbCircle
 10
21.00002861439176
 20
-36.37308347947322
 40
3
  0
CIRCLE
  5
B3
100
AcDbEntity
  8
disco A
  6
ByLayer
 62
  256
370
   -1
100
AcDbCircle
 10
0
 20
0
 40
31
  0
CIRCLE
  5
B4
100
AcDbEntity
  8
disco A
  6
ByLayer
 62
  256
370
   -1
100
AcDbCircle
 10
0
 20
0
 40
48
  0
ENDBLK
  5
63
330
61
100
AcDbEntity
  8
0
100
AcDbBlockEnd
  0
BLOCK
  5
65
330
64
100
AcDbEntity
  8
0
100
AcDbBlockBegin
  2
espaciador t 2
 70
    0
 10
0
 20
0
  3
espaciador t 2
  1

  0
INSERT
  5
B5
100
AcDbEntity
  8
espaciador tipo 2
  6
ByLayer
 62
  256
370
   -1
100
AcDbBlockReference
  2
espaciador t 1
 10
0
 20
0
 30
0
 41
1
 42
1
 43
0
 50
0
 70
    1
 71
    1
 44
1
 45
1
  0
INSERT
  5
B6
100
AcDbEntity
  8
espaciador tipo 2
  6
ByLayer
 62
  256
370
   -1
100
AcDbBlockReference
  2
espaciador t 1
 10
0
 20
0
 30
0
 41
1
 42
1
 43
0
 50
0
 70
    1
 71
    1
 44
1
 45
1
  0
INSERT
  5
B7
100
AcDbEntity
  8
espaciador tipo 2
  6
ByLayer
 62
  256
370
   -1
100
AcDbBlockReference
  2
espaciador t 1
 10
0
 20
0
 30
0
 41
1
 42
1
 43
0
 50
0
 70
    1
 71
    1
 44
1
 45
1
  0
INSERT
  5
B8
100
AcDbEntity
  8
espaciador tipo 2
  6
ByLayer
 62
  256
370
   -1
100
AcDbBlockReference
  2
espaciador t 1
 10
0
 20
0
 30
0
 41
1
 42
1
 43
0
 50
0
 70
    1
 71
    1
 44
1
 45
1
  0
INSERT
  5
B9
100
AcDbEntity
  8
espaciador tipo 2
  6
ByLayer
 62
  256
370
   -1
100
AcDbBlockReference
  2
espaciador t 1
 10
0
 20
0
 30
0
 41
1
 42
1
 43
0
 50
0
 70
    1
 71
    1
 44
1
 45
1
  0
CIRCLE
  5
BA
100
AcDbEntity
  8
espaciador tipo 2
  6
ByLayer
 62
  256
370
   -1
100
AcDbCircle
 10
42
 20
0
 40
3
  0
CIRCLE
  5
BB
100
AcDbEntity
  8
espaciador tipo 2
  6
ByLayer
 62
  256
370
   -1
100
AcDbCircle
 10
-21
 20
36.3731
 40
3
  0
CIRCLE
  5
BC
100
AcDbEntity
  8
espaciador tipo 2
  6
ByLayer
 62
  256
370
   -1
100
AcDbCircle
 10
-21
 20
-36.3731
 40
3
  0
ARC
  5
BD
100
AcDbEntity
  8
espaciador tipo 2
  6
CONTINUOUS
 62
    7
370
    0
100
AcDbCircle
 10
-19.99999999999999
 20
34.64101615137756
 40
10
100
AcDbArc
 50
299.9999368752868
 51
300.0000012408221
  0
ARC
  5
BE
100
AcDbEntity
  8
espaciador tipo 2
  6
CONTINUOUS
 62
  256
370
    0
100
AcDbCircle
 10
40
 20
-9.79717e-15
 40
10
100
AcDbArc
 50
262.819
 51
97.1808
  0
ARC
  5
BF
100
AcDbEntity
  8
espaciador tipo 2
  6
CONTINUOUS
 62
  256
370
    0
100
AcDbCircle
 10
-20
 20
34.641
 40
10
100
AcDbArc
 50
22.8192
 51
217.181
  0
ARC
  5
C0
100
AcDbEntity
  8
espaciador tipo 2
  6
CONTINUOUS
 62
  256
370
    0
100
AcDbCircle
 10
-20
 20
-34.641
 40
10
100
AcDbArc
 50
142.819
 51
337.181
  0
ARC
  5
C1
100
AcDbEntity
  8
espaciador tipo 2
  6
CONTINUOUS
 62
  256
370
    0
100
AcDbCircle
 10
20.00000000000001
 20
34.64101615137753
 40
10
100
AcDbArc
 50
322.819
 51
157.1808
  0
ARC
  5
C2
100
AcDbEntity
  8
espaciador tipo 2
  6
CONTINUOUS
 62
  256
370
    0
100
AcDbCircle
 10
-39.99998601249673
 20
-8.075688768371947e-06
 40
10
100
AcDbArc
 50
82.8192
 51
277.181
  0
ARC
  5
C3
100
AcDbEntity
  8
espaciador tipo 2
  6
CONTINUOUS
 62
  256
370
    0
100
AcDbCircle
 10
19.99998601249673
 20
-34.64100807568877
 40
10
100
AcDbArc
 50
202.819
 51
37.18099999999996
  0
ARC
  5
C4
100
AcDbEntity
  8
espaciador tipo 2
  6
CONTINUOUS
 62
   96
420
32768
370
    0
100
AcDbCircle
 10
0
 20
0
 40
40
100
AcDbArc
 50
14.3615
 51
45.63848843708344
  0
ARC
  5
C5
100
AcDbEntity
  8
espaciador tipo 2
  6
CONTINUOUS
 62
   96
420
32768
370
    0
100
AcDbCircle
 10
0
 20
0
 40
40
100
AcDbArc
 50
74.36151156291653
 51
105.638
  0
ARC
  5
C6
100
AcDbEntity
  8
espaciador tipo 2
  6
CONTINUOUS
 62
   96
420
32768
370
    0
100
AcDbCircle
 10
0
 20
0
 40
40
100
AcDbArc
 50
254.362
 51
285.6384743452697
  0
ARC
  5
C7
100
AcDbEntity
  8
espaciador tipo 2
  6
CONTINUOUS
 62
   96
420
32768
370
    0
100
AcDbCircle
 10
0
 20
0
 40
40
100
AcDbArc
 50
314.361502519578
 51
345.638
  0
ARC
  5
C8
100
AcDbEntity
  8
espaciador tipo 2
  6
CONTINUOUS
 62
   96
420
32768
370
    0
100
AcDbCircle
 10
0
 20
0
 40
40
100
AcDbArc
 50
134.362
 51
165.638497480422
  0
ARC
  5
C9
100
AcDbEntity
  8
espaciador tipo 2
  6
CONTINUOUS
 62
   96
420
32768
370
    0
100
AcDbCircle
 10
0
 20
0
 40
40
100
AcDbArc
 50
194.3615256547303
 51
225.638
  0
CIRCLE
  5
CA
100
AcDbEntity
  8
espaciador tipo 2
  6
ByLayer
 62
  256
370
   -1
100
AcDbCircle
 10
21
 20
36.37306695894642
 40
3
  0
CIRCLE
  5
CB
100
AcDbEntity
  8
espaciador tipo 2
  6
ByLayer
 62
  256
370
   -1
100
AcDbCircle
 10
-42.00002861439177
 20
1.652052679190774e-05
 40
3
  0
CIRCLE
  5
CC
100
AcDbEntity
  8
espaciador tipo 2
  6
ByLayer
 62
  256
370
   -1
100
AcDbCircle
 10
21.00002861439176
 20
-36.37308347947322
 40
3
  0
CIRCLE
  5
CD
100
AcDbEntity
  8
espaciador tipo 2
  6
ByLayer
 62
  256
370
   -1
100
AcDbCircle
 10
0
 20
0
 40
31
  0
ENDBLK
  5
66
330
64
100
AcDbEntity
  8
0
100
AcDbBlockEnd
  0
ENDSEC
  0
SECTION
  2
ENTITIES
  0
INSERT
  5
CE
100
AcDbEntity
  8
espaciador tipo 3
  6
ByLayer
 62
  256
370
   -1
100
AcDbBlockReference
  2
disco A
 10
0
 20
0
 30
0
 41
1
 42
1
 43
0
 50
0
 70
    1
 71
    1
 44
0
 45
0
  0
INSERT
  5
CF
100
AcDbEntity
  8
0
  6
ByLayer
 62
  256
370
   -1
100
AcDbBlockReference
  2
espaciador t 1
 10
0
 20
0
 30
0
 41
1
 42
1
 43
0
 50
0
 70
    1
 71
    1
 44
0
 45
0
  0
INSERT
  5
D0
100
AcDbEntity
  8
espaciador tipo 1
  6
ByLayer
 62
  256
370
   -1
100
AcDbBlockReference
  2
espaciador t 1
 10
0
 20
0
 30
0
 41
1
 42
1
 43
0
 50
0
 70
    1
 71
    1
 44
1
 45
1
  0
INSERT
  5
D1
100
AcDbEntity
  8
disco A
  6
ByLayer
 62
  256
370
   -1
100
AcDbBlockReference
  2
espaciador t 3
 10
0
 20
0
 30
0
 41
1
 42
1
 43
0
 50
0
 70
    1
 71
    1
 44
0
 45
0
  0
INSERT
  5
D2
100
AcDbEntity
  8
espaciador tipo 2
  6
ByLayer
 62
  256
370
   -1
100
AcDbBlockReference
  2
espaciador t 2
 10
0
 20
0
 30
0
 41
1
 42
1
 43
0
 50
0
 70
    1
 71
    1
 44
0
 45
0
  0
DIMENSION
  5
D3
100
AcDbEntity
  8
instrucciones y medidas
  6
ByLayer
 62
  256
370
   -1
100
AcDbDimension
  2
*D1
 10
48.00000000000001
 20
62.09999711365567
 30
0
 11
3.839740272350662e-15
 21
66.78749711365566
 31
0
 70
   32
 71
    5
  3
Standard
 53
0
210
0
220
0
230
1
100
AcDbAlignedDimension
 13
-48
 23
5.878304635907295e-15
 33
0
 14
48
 24
0
 34
0
100
AcDbRotatedDimension
  0
DIMENSION
  5
D4
100
AcDbEntity
  8
instrucciones y medidas
  6
ByLayer
 62
  256
370
   -1
100
AcDbDimension
  2
*D2
 10
31
 20
-7.592810154713589e-15
 30
0
 11
2.870265935501609e-16
 21
4.687499999999998
 31
0
 70
   35
 71
    5
  3
Standard
 53
0
210
0
220
0
230
1
100
AcDbDiametricDimension
 15
-31
 25
3.796405077356794e-15
 35
0
 40
0
  0
DIMENSION
  5
D5
100
AcDbEntity
  8
instrucciones y medidas
  6
ByLayer
 62
  256
370
   -1
100
AcDbDimension
  2
*D3
 10
24.00002861439176
 20
-36.37308347947322
 30
0
 11
21.00002861439176
 21
-31.68558347947322
 31
0
 70
   35
 71
    5
  3
Standard
 53
0
210
0
220
0
230
1
100
AcDbDiametricDimension
 15
18.00002861439176
 25
-36.37308347947322
 35
0
 40
0
  0
TEXT
  5
D6
100
AcDbEntity
  8
instrucciones y medidas
  6
ByLayer
 62
  256
370
   -1
100
AcDbText
 10
-20
 20
-20
 30
0
 40
4
  1
Doblar patillas
 50
0
 41
1
 51
0
  7
standard
 71
    0
210
0
220
0
230
1
100
AcDbText
  0
INSERT
  5
D7
100
AcDbEntity
  8
disco A
  6
ByLayer
 62
  256
370
   -1
100
AcDbBlockReference
  2
espaciador t 3
 10
120
 20
0
 30
0
 41
1
 42
1
 43
0
 50
0
 70
    1
 71
    1
 44
0
 45
0
  0
INSERT
  5
D8
100
AcDbEntity
  8
espaciador tipo 3
  6
ByLayer
 62
  256
370
   -1
100
AcDbBlockReference
  2
disco A
 10
240
 20
0
 30
0
 41
1
 42
1
 43
0
 50
0
 70
    1
 71
    1
 44
0
 45
0
  0
TEXT
  5
D9
100
AcDbEntity
  8
instrucciones y medidas
  6
ByLayer
 62
  256
370
   -1
100
AcDbText
 10
110
 20
60
 30
0
 40
6
  1
Disco
 50
0
 41
1
 51
0
  7
standard
 71
    0
210
0
220
0
230
1
100
AcDbText
  0
TEXT
  5
DA
100
AcDbEntity
  8
instrucciones y medidas
  6
ByLayer
 62
  256
370
   -1
100
AcDbText
 10
220
 20
60
 30
0
 40
6
  1
Espaciador
 50
0
 41
1
 51
0
  7
standard
 71
    0
210
0
220
0
230
1
100
AcDbText
  0
ENDSEC
  0
SECTION
  2
OBJECTS
  0
DICTIONARY
  5
C
330
0
100
AcDbDictionary
281
    1
  3
ACAD_GROUP
350
D
  0
DICTIONARY
  5
D
330
C
100
AcDbDictionary
281
    1
  0
PLOTSETTINGS
  5
DB
100
AcDbPlotSettings
  6
1x1
 40
0
 41
0
 42
0
 43
0
  0
ENDSEC
  0
EOF
