999
dxfrw 0.6.3
  0
SECTION
  2
HEADER
  9
$ACADVER
  1
AC1021
  9
$DWGCODEPAGE
  3
ANSI_1252
  9
$INSBASE
 10
0
 20
0
 30
0
  9
$EXTMIN
 10
-48
 20
-48
 30
0
  9
$EXTMAX
 10
48
 20
48
 30
0
  9
$LIMMIN
 10
0
 20
0
  9
$LIMMAX
 10
420
 20
297
  9
$ORTHOMODE
 70
    0
  9
$REGENMODE
 70
    1
  9
$FILLMODE
 70
    1
  9
$QTEXTMODE
 70
    0
  9
$MIRRTEXT
 70
    1
  9
$LTSCALE
 40
1
  9
$ATTMODE
 70
    1
  9
$TEXTSIZE
 40
2.5
  9
$TRACEWID
 40
1
  9
$TEXTSTYLE
  7
OpenSans
  9
$CLAYER
  8
0
  9
$CELTYPE
  6
ByLayer
  9
$CECOLOR
 62
  256
  9
$CELTSCALE
 40
1
  9
$DISPSILH
 70
    0
  9
$DIMSCALE
 40
1
  9
$DIMASZ
 40
0.175
  9
$DIMEXO
 40
0.125
  9
$DIMDLI
 40
3.75
  9
$DIMRND
 40
0
  9
$DIMDLE
 40
0
  9
$DIMEXE
 40
0.375
  9
$DIMTP
 40
0
  9
$DIMTM
 40
0
  9
$DIMTXT
 40
0.25
  9
$DIMCEN
 40
2.5
  9
$DIMTSZ
 40
0
  9
$DIMTOL
 70
    0
  9
$DIMLIM
 70
    0
  9
$DIMTIH
 70
    0
  9
$DIMTOH
 70
    0
  9
$DIMSE1
 70
    0
  9
$DIMSE2
 70
    0
  9
$DIMTAD
 70
    1
  9
$DIMZIN
 70
   12
  9
$DIMBLK
  1
ARCHTICK
  9
$DIMASO
 70
    1
  9
$DIMSHO
 70
    1
  9
$DIMPOST
  1

  9
$DIMAPOST
  1

  9
$DIMALT
 70
    0
  9
$DIMALTD
 70
    3
  9
$DIMALTF
 40
0.03937007874
  9
$DIMLFAC
 40
100
  9
$DIMTOFL
 70
    1
  9
$DIMTVP
 40
0
  9
$DIMTIX
 70
    0
  9
$DIMSOXD
 70
    0
  9
$DIMSAH
 70
    0
  9
$DIMBLK1
  1

  9
$DIMBLK2
  1

  9
$DIMSTYLE
  2
EZDXF
  9
$DIMCLRD
 70
    0
  9
$DIMCLRE
 70
    0
  9
$DIMCLRT
 70
    0
  9
$DIMTFAC
 40
0.5
  9
$DIMGAP
 40
0.1
  9
$DIMJUST
 70
    0
  9
$DIMSD1
 70
    0
  9
$DIMSD2
 70
    0
  9
$DIMTOLJ
 70
    0
  9
$DIMTZIN
 70
    8
  9
$DIMALTZ
 70
    0
  9
$DIMALTTZ
 70
    0
  9
$DIMUPT
 70
    1
  9
$DIMDEC
 70
    2
  9
$DIMTDEC
 70
    2
  9
$DIMALTU
 70
    2
  9
$DIMALTTD
 70
    3
  9
$DIMTXSTY
  7
OpenSansCondensed-Light
  9
$DIMAUNIT
 70
    0
  9
$DIMADEC
 70
    2
  9
$DIMALTRND
 40
0
  9
$DIMAZIN
 70
    3
  9
$DIMDSEP
 70
   46
  9
$DIMATFIT
 70
    3
  9
$DIMFRAC
 70
    0
  9
$DIMLDRBLK
  1

  9
$DIMLUNIT
 70
    2
  9
$DIMLWD
 70
   -2
  9
$DIMLWE
 70
   -2
  9
$DIMTMOVE
 70
    2
  9
$DIMFXL
 40
1
  9
$DIMFXLON
 70
    0
  9
$DIMJOGANG
 40
0.785398163397
  9
$DIMTFILL
 70
    0
  9
$DIMTFILLCLR
 70
    0
  9
$DIMARCSYM
 70
    0
  9
$DIMLTYPE
  6

  9
$DIMLTEX1
  6

  9
$DIMLTEX2
  6

  9
$LUNITS
 70
    2
  9
$LUPREC
 70
    4
  9
$SKETCHINC
 40
1
  9
$FILLETRAD
 40
10
  9
$AUNITS
 70
    0
  9
$AUPREC
 70
    2
  9
$MENU
  1
.
  9
$ELEVATION
 40
0
  9
$PELEVATION
 40
0
  9
$THICKNESS
 40
0
  9
$LIMCHECK
 70
    0
  9
$CHAMFERA
 40
0
  9
$CHAMFERB
 40
0
  9
$CHAMFERC
 40
0
  9
$CHAMFERD
 40
0
  9
$SKPOLY
 70
    0
  9
$USRTIMER
 70
    1
  9
$ANGBASE
 50
0
  9
$ANGDIR
 70
    0
  9
$PDMODE
 70
    0
  9
$PDSIZE
 40
0
  9
$PLINEWID
 40
0
  9
$SPLFRAME
 70
    0
  9
$SPLINETYPE
 70
    6
  9
$SPLINESEGS
 70
    8
  9
$HANDSEED
  5
20000
  9
$SURFTAB1
 70
    6
  9
$SURFTAB2
 70
    6
  9
$SURFTYPE
 70
    6
  9
$SURFU
 70
    6
  9
$SURFV
 70
    6
  9
$UCSBASE
  2

  9
$UCSNAME
  2

  9
$UCSORG
 10
0
 20
0
 30
0
  9
$UCSXDIR
 10
1
 20
0
 30
0
  9
$UCSYDIR
 10
0
 20
1
 30
0
  9
$UCSORTHOREF
  2

  9
$UCSORTHOVIEW
 70
    0
  9
$UCSORGTOP
 10
0
 20
0
 30
0
  9
$UCSORGBOTTOM
 10
0
 20
0
 30
0
  9
$UCSORGLEFT
 10
0
 20
0
 30
0
  9
$UCSORGRIGHT
 10
0
 20
0
 30
0
  9
$UCSORGFRONT
 10
0
 20
0
 30
0
  9
$UCSORGBACK
 10
0
 20
0
 30
0
  9
$PUCSBASE
  2

  9
$PUCSNAME
  2

  9
$PUCSORG
 10
0
 20
0
 30
0
  9
$PUCSXDIR
 10
1
 20
0
 30
0
  9
$PUCSYDIR
 10
0
 20
1
 30
0
  9
$PUCSORTHOREF
  2

  9
$PUCSORTHOVIEW
 70
    0
  9
$PUCSORGTOP
 10
0
 20
0
 30
0
  9
$PUCSORGBOTTOM
 10
0
 20
0
 30
0
  9
$PUCSORGLEFT
 10
0
 20
0
 30
0
  9
$PUCSORGRIGHT
 10
0
 20
0
 30
0
  9
$PUCSORGFRONT
 10
0
 20
0
 30
0
  9
$PUCSORGBACK
 10
0
 20
0
 30
0
  9
$USERI1
 70
    0
  9
$USERI2
 70
    0
  9
$USERI3
 70
    0
  9
$USERI4
 70
    0
  9
$USERI5
 70
    0
  9
$USERR1
 40
0
  9
$USERR2
 40
0
  9
$USERR3
 40
0
  9
$USERR4
 40
0
  9
$USERR5
 40
0
  9
$WORLDVIEW
 70
    1
  9
$SHADEDGE
 70
    3
  9
$SHADEDIF
 70
   70
  9
$TILEMODE
 70
    1
  9
$MAXACTVP
 70
   64
  9
$PINSBASE
 10
0
 20
0
 30
0
  9
$PLIMCHECK
 70
    0
  9
$PEXTMIN
 10
1e+20
 20
1e+20
 30
1e+20
  9
$PEXTMAX
 10
-1e+20
 20
-1e+20
 30
-1e+20
  9
$GRIDMODE
 70
    0
  9
$SNAPSTYLE
 70
    0
  9
$PLIMMIN
 10
0
 20
0
  9
$PLIMMAX
 10
420
 20
297
  9
$UNITMODE
 70
    0
  9
$VISRETAIN
 70
    1
  9
$PLINEGEN
 70
    0
  9
$PSLTSCALE
 70
    1
  9
$TREEDEPTH
 70
 3020
  9
$CMLSTYLE
  2
Standard
  9
$CMLJUST
 70
    0
  9
$CMLSCALE
 40
20
  9
$PROXYGRAPHICS
 70
    1
  9
$MEASUREMENT
 70
    1
  9
$CELWEIGHT
370
   -1
  9
$ENDCAPS
280
    0
  9
$JOINSTYLE
280
    0
  9
$LWDISPLAY
290
    0
  9
$INSUNITS
 70
    4
  9
$HYPERLINKBASE
  1

  9
$STYLESHEET
  1

  9
$XEDIT
290
    1
  9
$CEPSNTYPE
380
    0
  9
$PSTYLEMODE
290
    1
  9
$EXTNAMES
290
    1
  9
$PSVPSCALE
 40
0
  9
$OLESTARTUP
290
    0
  9
$SORTENTS
280
  127
  9
$INDEXCTL
280
    0
  9
$HIDETEXT
280
    1
  9
$XCLIPFRAME
290
    1
  9
$HALOGAP
280
    0
  9
$OBSCOLOR
 70
  257
  9
$OBSLTYPE
280
    0
  9
$INTERSECTIONDISPLAY
280
    0
  9
$INTERSECTIONCOLOR
 70
  257
  9
$DIMASSOC
280
    2
  9
$PROJECTNAME
  1

  9
$CAMERADISPLAY
290
    0
  9
$LENSLENGTH
 40
50
  9
$CAMERAHEIGHT
 40
0
  9
$STEPSPERSEC
 40
24
  9
$STEPSIZE
 40
100
  9
$3DDWFPREC
 40
2
  9
$PSOLWIDTH
 40
0.005
  9
$PSOLHEIGHT
 40
0.08
  9
$LOFTANG1
 40
1.570796326795
  9
$LOFTANG2
 40
1.570796326795
  9
$LOFTMAG1
 40
0
  9
$LOFTMAG2
 40
0
  9
$LOFTPARAM
 70
    7
  9
$LOFTNORMALS
280
    1
  9
$LATITUDE
 40
37.795
  9
$LONGITUDE
 40
-122.394
  9
$NORTHDIRECTION
 40
0
  9
$TIMEZONE
 70
-8000
  9
$LIGHTGLYPHDISPLAY
280
    1
  9
$TILEMODELIGHTSYNCH
280
    1
  9
$SOLIDHIST
280
    0
  9
$SHOWHIST
280
    1
  9
$DWFFRAME
280
    2
  9
$DGNFRAME
280
    2
  9
$REALWORLDSCALE
290
    1
  9
$INTERFERECOLOR
 62
  256
  9
$CSHADOW
280
    0
  9
$SHADOWPLANELOCATION
 40
0
  0
ENDSEC
  0
SECTION
  2
CLASSES
  0
ENDSEC
  0
SECTION
  2
TABLES
  0
TABLE
  2
VPORT
  5
8
330
0
100
AcDbSymbolTable
 70
    1
  0
VPORT
  5
31
330
2
100
AcDbSymbolTableRecord
100
AcDbViewportTableRecord
  2
*ACTIVE
 70
    0
 10
0
 20
0
 11
1
 21
1
 12
56.61194685594988
 22
28.62984040083506
 13
0
 23
0
 14
10
 24
10
 15
10
 25
10
 16
0
 26
0
 36
1
 17
0
 27
0
 37
0
 40
129.287695565762
 41
1.837675350701403
 42
50
 43
0
 44
0
 50
0
 51
0
 71
    0
 72
  100
 73
    1
 74
    3
 75
    0
 76
    0
 77
    0
 78
    0
281
    0
 65
    1
110
0
120
0
130
0
111
1
121
0
131
0
112
0
122
1
132
0
 79
    0
146
0
348
10020
 60
    7
 61
    5
292
1
282
    1
141
0
142
0
 63
  250
421
3358443
  0
ENDTAB
  0
TABLE
  2
LTYPE
  5
5
330
0
100
AcDbSymbolTable
 70
    4
  0
LTYPE
  5
14
330
5
100
AcDbSymbolTableRecord
100
AcDbLinetypeTableRecord
  2
ByBlock
 70
    0
  3

 72
   65
 73
    0
 40
0
  0
LTYPE
  5
15
330
5
100
AcDbSymbolTableRecord
100
AcDbLinetypeTableRecord
  2
ByLayer
 70
    0
  3

 72
   65
 73
    0
 40
0
  0
LTYPE
  5
16
330
5
100
AcDbSymbolTableRecord
100
AcDbLinetypeTableRecord
  2
Continuous
 70
    0
  3
Solid line
 72
   65
 73
    0
 40
0
  0
LTYPE
  5
32
330
5
100
AcDbSymbolTableRecord
100
AcDbLinetypeTableRecord
  2
DOT
 70
    0
  3
Dot . . . . . . . . . . . . . . . . . . . . . .
 72
   65
 73
    2
 40
6.35
 49
0
 74
    0
 49
-6.35
 74
    0
  0
LTYPE
  5
33
330
5
100
AcDbSymbolTableRecord
100
AcDbLinetypeTableRecord
  2
DOTTINY
 70
    0
  3
Dot (.15x) .....................................
 72
   65
 73
    2
 40
0.9525
 49
0
 74
    0
 49
-0.9525
 74
    0
  0
LTYPE
  5
34
330
5
100
AcDbSymbolTableRecord
100
AcDbLinetypeTableRecord
  2
DOT2
 70
    0
  3
Dot (.5x) .....................................
 72
   65
 73
    2
 40
3.175
 49
0
 74
    0
 49
-3.175
 74
    0
  0
LTYPE
  5
35
330
5
100
AcDbSymbolTableRecord
100
AcDbLinetypeTableRecord
  2
DOTX2
 70
    0
  3
Dot (2x) .  .  .  .  .  .  .  .  .  .  .  .  .
 72
   65
 73
    2
 40
12.7
 49
0
 74
    0
 49
-12.7
 74
    0
  0
LTYPE
  5
36
330
5
100
AcDbSymbolTableRecord
100
AcDbLinetypeTableRecord
  2
DASHED
 70
    0
  3
Dashed _ _ _ _ _ _ _ _ _ _ _ _ _ _ _ _ _
 72
   65
 73
    2
 40
19.05
 49
12.7
 74
    0
 49
-6.35
 74
    0
  0
LTYPE
  5
37
330
5
100
AcDbSymbolTableRecord
100
AcDbLinetypeTableRecord
  2
DASHEDTINY
 70
    0
  3
Dashed (.15x) _ _ _ _ _ _ _ _ _ _ _ _ _ _ _ _ _
 72
   65
 73
    2
 40
2.8575
 49
1.905
 74
    0
 49
-0.9525
 74
    0
  0
LTYPE
  5
38
330
5
100
AcDbSymbolTableRecord
100
AcDbLinetypeTableRecord
  2
DASHED2
 70
    0
  3
Dashed (.5x) _ _ _ _ _ _ _ _ _ _ _ _ _ _ _ _ _
 72
   65
 73
    2
 40
9.524999999999999
 49
6.35
 74
    0
 49
-3.175
 74
    0
  0
LTYPE
  5
39
330
5
100
AcDbSymbolTableRecord
100
AcDbLinetypeTableRecord
  2
DASHEDX2
 70
    0
  3
Dashed (2x) ____  ____  ____  ____  ____  ___
 72
   65
 73
    2
 40
38.09999999999999
 49
25.4
 74
    0
 49
-12.7
 74
    0
  0
LTYPE
  5
3A
330
5
100
AcDbSymbolTableRecord
100
AcDbLinetypeTableRecord
  2
DASHDOT
 70
    0
  3
Dash dot __ . __ . __ . __ . __ . __ . __ . __
 72
   65
 73
    4
 40
25.4
 49
12.7
 74
    0
 49
-6.35
 74
    0
 49
0
 74
    0
 49
-6.35
 74
    0
  0
LTYPE
  5
3B
330
5
100
AcDbSymbolTableRecord
100
AcDbLinetypeTableRecord
  2
DASHDOTTINY
 70
    0
  3
Dash dot (.15x) _._._._._._._._._._._._._._._.
 72
   65
 73
    4
 40
3.81
 49
1.905
 74
    0
 49
-0.9525
 74
    0
 49
0
 74
    0
 49
-0.9525
 74
    0
  0
LTYPE
  5
3C
330
5
100
AcDbSymbolTableRecord
100
AcDbLinetypeTableRecord
  2
DASHDOT2
 70
    0
  3
Dash dot (.5x) _._._._._._._._._._._._._._._.
 72
   65
 73
    4
 40
12.7
 49
6.35
 74
    0
 49
-3.175
 74
    0
 49
0
 74
    0
 49
-3.175
 74
    0
  0
LTYPE
  5
3D
330
5
100
AcDbSymbolTableRecord
100
AcDbLinetypeTableRecord
  2
DASHDOTX2
 70
    0
  3
Dash dot (2x) ____  .  ____  .  ____  .  ___
 72
   65
 73
    4
 40
50.8
 49
25.4
 74
    0
 49
-12.7
 74
    0
 49
0
 74
    0
 49
-12.7
 74
    0
  0
LTYPE
  5
3E
330
5
100
AcDbSymbolTableRecord
100
AcDbLinetypeTableRecord
  2
DIVIDE
 70
    0
  3
Divide ____ . . ____ . . ____ . . ____ . . ____
 72
   65
 73
    6
 40
31.75
 49
12.7
 74
    0
 49
-6.35
 74
    0
 49
0
 74
    0
 49
-6.35
 74
    0
 49
0
 74
    0
 49
-6.35
 74
    0
  0
LTYPE
  5
3F
330
5
100
AcDbSymbolTableRecord
100
AcDbLinetypeTableRecord
  2
DIVIDETINY
 70
    0
  3
Divide (.15x) __..__..__..__..__..__..__..__.._
 72
   65
 73
    6
 40
4.7625
 49
1.905
 74
    0
 49
-0.9525
 74
    0
 49
0
 74
    0
 49
-0.9525
 74
    0
 49
0
 74
    0
 49
-0.9525
 74
    0
  0
LTYPE
  5
40
330
5
100
AcDbSymbolTableRecord
100
AcDbLinetypeTableRecord
  2
DIVIDE2
 70
    0
  3
Divide (.5x) __..__..__..__..__..__..__..__.._
 72
   65
 73
    6
 40
15.875
 49
6.35
 74
    0
 49
-3.175
 74
    0
 49
0
 74
    0
 49
-3.175
 74
    0
 49
0
 74
    0
 49
-3.175
 74
    0
  0
LTYPE
  5
41
330
5
100
AcDbSymbolTableRecord
100
AcDbLinetypeTableRecord
  2
DIVIDEX2
 70
    0
  3
Divide (2x) ________  .  .  ________  .  .  _
 72
   65
 73
    6
 40
63.5
 49
25.4
 74
    0
 49
-12.7
 74
    0
 49
0
 74
    0
 49
-12.7
 74
    0
 49
0
 74
    0
 49
-12.7
 74
    0
  0
LTYPE
  5
42
330
5
100
AcDbSymbolTableRecord
100
AcDbLinetypeTableRecord
  2
BORDER
 70
    0
  3
Border __ __ . __ __ . __ __ . __ __ . __ __ .
 72
   65
 73
    6
 40
44.45
 49
12.7
 74
    0
 49
-6.35
 74
    0
 49
12.7
 74
    0
 49
-6.35
 74
    0
 49
0
 74
    0
 49
-6.35
 74
    0
  0
LTYPE
  5
43
330
5
100
AcDbSymbolTableRecord
100
AcDbLinetypeTableRecord
  2
BORDERTINY
 70
    0
  3
Border (.15x) __.__.__.__.__.__.__.__.__.__.__.
 72
   65
 73
    6
 40
6.6675
 49
1.905
 74
    0
 49
-0.9525
 74
    0
 49
1.905
 74
    0
 49
-0.9525
 74
    0
 49
0
 74
    0
 49
-0.9525
 74
    0
  0
LTYPE
  5
44
330
5
100
AcDbSymbolTableRecord
100
AcDbLinetypeTableRecord
  2
BORDER2
 70
    0
  3
Border (.5x) __.__.__.__.__.__.__.__.__.__.__.
 72
   65
 73
    6
 40
22.225
 49
6.35
 74
    0
 49
-3.175
 74
    0
 49
6.35
 74
    0
 49
-3.175
 74
    0
 49
0
 74
    0
 49
-3.175
 74
    0
  0
LTYPE
  5
45
330
5
100
AcDbSymbolTableRecord
100
AcDbLinetypeTableRecord
  2
BORDERX2
 70
    0
  3
Border (2x) ____  ____  .  ____  ____  .  ___
 72
   65
 73
    6
 40
88.89999999999999
 49
25.4
 74
    0
 49
-12.7
 74
    0
 49
25.4
 74
    0
 49
-12.7
 74
    0
 49
0
 74
    0
 49
-12.7
 74
    0
  0
LTYPE
  5
46
330
5
100
AcDbSymbolTableRecord
100
AcDbLinetypeTableRecord
  2
CENTER
 70
    0
  3
Center ____ _ ____ _ ____ _ ____ _ ____ _ ____
 72
   65
 73
    4
 40
50.8
 49
31.75
 74
    0
 49
-6.35
 74
    0
 49
6.35
 74
    0
 49
-6.35
 74
    0
  0
LTYPE
  5
47
330
5
100
AcDbSymbolTableRecord
100
AcDbLinetypeTableRecord
  2
CENTERTINY
 70
    0
  3
Center (.15x) ___ _ ___ _ ___ _ ___ _ ___ _ ___
 72
   65
 73
    4
 40
7.619999999999999
 49
4.7625
 74
    0
 49
-0.9525
 74
    0
 49
0.9525
 74
    0
 49
-0.9525
 74
    0
  0
LTYPE
  5
48
330
5
100
AcDbSymbolTableRecord
100
AcDbLinetypeTableRecord
  2
CENTER2
 70
    0
  3
Center (.5x) ___ _ ___ _ ___ _ ___ _ ___ _ ___
 72
   65
 73
    4
 40
28.575
 49
19.05
 74
    0
 49
-3.175
 74
    0
 49
3.175
 74
    0
 49
-3.175
 74
    0
  0
LTYPE
  5
49
330
5
100
AcDbSymbolTableRecord
100
AcDbLinetypeTableRecord
  2
CENTERX2
 70
    0
  3
Center (2x) ________  __  ________  __  _____
 72
   65
 73
    4
 40
101.6
 49
63.5
 74
    0
 49
-12.7
 74
    0
 49
12.7
 74
    0
 49
-12.7
 74
    0
  0
ENDTAB
  0
TABLE
  2
LAYER
  5
2
330
0
100
AcDbSymbolTable
 70
    1
  0
LAYER
  5
10
330
2
100
AcDbSymbolTableRecord
100
AcDbLayerTableRecord
  2
0
 70
    0
 62
    7
  6
CONTINUOUS
370
   -3
390
F
  0
LAYER
  5
4A
330
2
100
AcDbSymbolTableRecord
100
AcDbLayerTableRecord
  2
DISCO_A
 70
    0
 62
    5
  6
CONTINUOUS
370
   -3
390
F
  0
LAYER
  5
4B
330
2
100
AcDbSymbolTableRecord
100
AcDbLayerTableRecord
  2
Defpoints
 70
    1
 62
    7
  6
CONTINUOUS
290
0
370
   -3
390
F
  0
LAYER
  5
4C
330
2
100
AcDbSymbolTableRecord
100
AcDbLayerTableRecord
  2
ESPACIADOR_B
 70
    0
 62
    1
  6
CONTINUOUS
370
   -3
390
F
  0
ENDTAB
  0
TABLE
  2
STYLE
  5
3
330
0
100
AcDbSymbolTable
 70
    3
  0
STYLE
  5
4D
330
2
100
AcDbSymbolTableRecord
100
AcDbTextStyleTableRecord
  2
Standard
 70
    0
 40
0
 41
1
 50
0
 71
    0
 42
1
  3
txt
  4

  0
ENDTAB
  0
TABLE
  2
VIEW
  5
6
330
0
100
AcDbSymbolTable
 70
    0
  0
ENDTAB
  0
TABLE
  2
UCS
  5
7
330
0
100
AcDbSymbolTable
 70
    0
  0
ENDTAB
  0
TABLE
  2
APPID
  5
9
330
0
100
AcDbSymbolTable
 70
    1
  0
APPID
  5
12
330
9
100
AcDbSymbolTableRecord
100
AcDbRegAppTableRecord
  2
ACAD
 70
    0
  0
APPID
  5
4E
330
9
100
AcDbSymbolTableRecord
100
AcDbRegAppTableRecord
  2
LibreCad
 70
    0
  0
ENDTAB
  0
TABLE
  2
DIMSTYLE
  5
A
330
0
100
AcDbSymbolTable
 70
    1
100
AcDbDimStyleTable
 71
    1
  0
DIMSTYLE
105
4F
330
A
100
AcDbSymbolTableRecord
100
AcDbDimStyleTableRecord
  2
Standard
 70
    0
 40
1
 41
0.175
 42
0.125
 43
0.38
 44
0.375
 45
0
 46
0
 47
0
 48
0
 49
1
140
0.25
141
0.09
142
0
143
25.4
144
100
145
0
146
1
147
0.1
148
0
 71
    0
 72
    0
 73
    0
 74
    1
 75
    0
 76
    0
 77
    0
 78
   12
 79
    3
170
    0
171
    2
172
    0
173
    0
174
    0
175
    0
176
    0
177
    0
178
    0
179
    2
271
    2
272
    4
273
    2
274
    2
275
    0
276
    0
277
    2
278
   46
279
    0
280
    0
281
    0
282
    0
283
    1
284
    0
285
    0
286
    0
288
    0
289
    3
  0
ENDTAB
  0
TABLE
  2
BLOCK_RECORD
  5
1
330
0
100
AcDbSymbolTable
 70
    2
  0
BLOCK_RECORD
  5
1F
330
1
100
AcDbSymbolTableRecord
100
AcDbBlockTableRecord
  2
*Model_Space
 70
    0
280
    1
281
    0
  0
BLOCK_RECORD
  5
1E
330
1
100
AcDbSymbolTableRecord
100
AcDbBlockTableRecord
  2
*Paper_Space
 70
    0
280
    1
281
    0
  0
BLOCK_RECORD
  5
50
330
1
100
AcDbSymbolTableRecord
100
AcDbBlockTableRecord
  2
_ARCHTICK
 70
    0
280
    1
281
    0
  0
BLOCK_RECORD
  5
53
330
1
100
AcDbSymbolTableRecord
100
AcDbBlockTableRecord
  2
_CLOSEDFILLED
 70
    0
280
    1
281
    0
  0
BLOCK_RECORD
  5
56
330
1
100
AcDbSymbolTableRecord
100
AcDbBlockTableRecord
  2
_CLOSEDBLANK
 70
    0
280
    1
281
    0
  0
ENDTAB
  0
ENDSEC
  0
SECTION
  2
BLOCKS
  0
BLOCK
  5
20
330
1F
100
AcDbEntity
  8
0
100
AcDbBlockBegin
  2
*Model_Space
 70
    0
 10
0
 20
0
 30
0
  3
*Model_Space
  1

  0
ENDBLK
  5
21
330
1F
100
AcDbEntity
  8
0
100
AcDbBlockEnd
  0
BLOCK
  5
1C
330
1B
100
AcDbEntity
  8
0
100
AcDbBlockBegin
  2
*Paper_Space
 70
    0
 10
0
 20
0
 30
0
  3
*Paper_Space
  1

  0
ENDBLK
  5
1D
330
1F
100
AcDbEntity
  8
0
100
AcDbBlockEnd
  0
BLOCK
  5
51
330
50
100
AcDbEntity
  8
0
100
AcDbBlockBegin
  2
_ARCHTICK
 70
    0
 10
0
 20
0
  3
_ARCHTICK
  1

  0
LWPOLYLINE
  5
59
100
AcDbEntity
  8
0
  6
ByBlock
 62
    0
370
   -1
100
AcDbPolyline
 90
    2
 70
    0
 43
0
 10
-0.5
 20
-0.5
 10
0.5
 20
0.5
  0
ENDBLK
  5
52
330
50
100
AcDbEntity
  8
0
100
AcDbBlockEnd
  0
BLOCK
  5
54
330
53
100
AcDbEntity
  8
0
100
AcDbBlockBegin
  2
_CLOSEDFILLED
 70
    0
 10
0
 20
0
  3
_CLOSEDFILLED
  1

  0
SOLID
  5
5A
100
AcDbEntity
  8
0
  6
ByBlock
 62
    0
370
   -1
100
AcDbTrace
 10
-1
 20
0.1643989837240254
 30
0
 11
0
 21
0
 31
0
 12
-1
 22
-0.1643989837240254
 32
0
 13
-1
 23
-0.1643989837240254
 33
0
  0
ENDBLK
  5
55
330
53
100
AcDbEntity
  8
0
100
AcDbBlockEnd
  0
BLOCK
  5
57
330
56
100
AcDbEntity
  8
0
100
AcDbBlockBegin
  2
_CLOSEDBLANK
 70
    0
 10
0
 20
0
  3
_CLOSEDBLANK
  1

  0
LWPOLYLINE
  5
5B
100
AcDbEntity
  8
0
  6
ByBlock
 62
    0
370
   -1
100
AcDbPolyline
 90
    3
 70
    1
 43
0
 10
-1
 20
0.1643989837240254
 10
0
 20
0
 10
-1
 20
-0.1643989837240254
  0
ENDBLK
  5
58
330
56
100
AcDbEntity
  8
0
100
AcDbBlockEnd
  0
ENDSEC
  0
SECTION
  2
ENTITIES
  0
CIRCLE
  5
5C
100
AcDbEntity
  8
DISCO_A
  6
ByLayer
 62
  256
370
   -1
100
AcDbCircle
 10
0
 20
0
 40
48
  0
CIRCLE
  5
5D
100
AcDbEntity
  8
DISCO_A
  6
ByLayer
 62
  256
370
   -1
100
AcDbCircle
 10
0
 20
0
 40
31
  0
CIRCLE
  5
5E
100
AcDbEntity
  8
DISCO_A
  6
ByLayer
 62
  256
370
   -1
100
AcDbCircle
 10
-42
 20
0
 40
3
  0
CIRCLE
  5
5F
100
AcDbEntity
  8
DISCO_A
  6
ByLayer
 62
  256
370
   -1
100
AcDbCircle
 10
42
 20
0
 40
3
  0
CIRCLE
  5
60
100
AcDbEntity
  8
DISCO_A
  6
ByLayer
 62
  256
370
   -1
100
AcDbCircle
 10
-20.99999999999999
 20
36.37306695894642
 40
3
  0
CIRCLE
  5
61
100
AcDbEntity
  8
DISCO_A
  6
ByLayer
 62
  256
370
   -1
100
AcDbCircle
 10
21.00000000000001
 20
36.37306695894642
 40
3
  0
CIRCLE
  5
62
100
AcDbEntity
  8
DISCO_A
  6
ByLayer
 62
  256
370
   -1
100
AcDbCircle
 10
21.00000000000001
 20
-36.37306695894642
 40
3
  0
CIRCLE
  5
63
100
AcDbEntity
  8
DISCO_A
  6
ByLayer
 62
  256
370
   -1
100
AcDbCircle
 10
-21.00000000000002
 20
-36.37306695894642
 40
3
  0
LWPOLYLINE
  5
64
100
AcDbEntity
  8
ESPACIADOR_B
  6
ByLayer
 62
  256
370
   -1
100
AcDbPolyline
 90
  178
 70
    1
 43
0
 10
-15.00722726276898
 20
-36.66747300491092
 10
-15.14578721976885
 20
-37.68767439988763
 10
-15.40204320699158
 20
-38.53243717815634
 10
-15.77947805334775
 20
-39.33045611232512
 10
-16.3619372798236
 20
-40.17942666392828
 10
-17.08096294227736
 20
-40.91632003798532
 10
-17.79001428067743
 20
-41.44218835044465
 10
-18.56855211597008
 20
-41.8583254931676
 10
-19.39972345515063
 20
-42.15572335371905
 10
-20.41189715802265
 20
-42.34417531897959
 10
-21.29440604596453
 20
-42.36583969617745
 10
-22.17054193209679
 20
-42.25777864136579
 10
-23.02133912035334
 20
-42.02233135004454
 10
-23.82838042095601
 20
-41.66459454503654
 10
-24.69138954348378
 20
-41.10314552470605
 10
-25.44570675212977
 20
-40.40242068802852
 10
-25.98881767381529
 20
-39.70648835706402
 10
-26.64926439109814
 20
-38.39440607929973
 10
-26.9711083600332
 20
-36.96116980092378
 10
-26.9350590597887
 20
-35.49268411221424
 10
-26.59795679300845
 20
-34.21369673973648
 10
-25.90550887890952
 20
-32.91821781043934
 10
-25.02935372908213
 20
-31.92736020681666
 10
-23.82838042095601
 20
-31.08153937285628
 10
-22.55851952328914
 20
-30.5794046802027
 10
-24.10694479821852
 20
-29.37439722778401
 10
-25.691522735862
 20
-27.99902961734006
 10
-27.19777136078511
 20
-26.53829747754097
 10
-28.46718299189145
 20
-25.17179954842653
 10
-29.81315069191185
 20
-23.562174047005
 10
-30.93338052882604
 20
-22.07093040763905
 10
-32.10443547948887
 20
-20.32990955570969
 10
-33.17760917989502
 20
-18.52690608564057
 10
-34.14962969637025
 20
-16.66741706446405
 10
-34.9263263642222
 20
-14.97169752231983
 10
-35.69945049688322
 20
-13.02110725785579
 10
-36.36373275782393
 20
-11.03081773566957
 10
-36.86118762139267
 20
-9.233246836324035
 10
-37.3146270261631
 20
-7.184609237692642
 10
-37.65430014625564
 20
-5.114066923270799
 10
-37.8791713730643
 20
-3.027932642914347
 10
-37.99356210824129
 20
-0.6994557364205939
 10
-37.95422733579655
 20
1.864571624441874
 10
-37.74205407092219
 20
4.42010797465237
 10
-37.39998351070331
 20
6.72616037566165
 10
-36.91714785747757
 20
9.006897027785945
 10
-36.29536439561929
 20
11.2537337532577
 10
-35.53697337768001
 20
13.45821396597862
 10
-34.54838335743985
 20
15.8243232837102
 10
-33.51300804523749
 20
17.91307599938791
 10
-32.35149733800008
 20
19.93440794178181
 10
-31.06822289976018
 20
21.88071127387812
 10
-29.52176169558283
 20
23.92625307876722
 10
-27.99902961734006
 20
25.691522735862
 10
-26.20254070000855
 20
27.52138915215574
 10
-24.46559862981208
 20
29.07635609365344
 10
-22.55851952328911
 20
30.57940468020271
 10
-23.69766797792763
 20
31.01372115177333
 10
-24.69138954348375
 20
31.64298839318679
 10
-25.5432530790389
 20
32.45402990122376
 10
-26.29152758609012
 20
33.54468653799044
 10
-26.78265639477263
 20
34.77279041409703
 10
-26.98374274007213
 20
35.93167957734842
 10
-26.93505905978867
 20
37.25344980567859
 10
-26.64926439109811
 20
38.39440607929974
 10
-26.29152758609012
 20
39.20144737990241
 10
-25.90550887890949
 20
39.8279161074535
 10
-25.34548249770879
 20
40.51031022736883
 10
-24.69138954348375
 20
41.10314552470606
 10
-23.9573891533787
 20
41.59358890559869
 10
-23.15937021920992
 20
41.97102375195486
 10
-22.31460744094121
 20
42.2272797391776
 10
-21.44138738159799
 20
42.35680969901857
 10
-19.97422866743818
 20
42.28473281328007
 10
-18.56855211597005
 20
41.85832549316761
 10
-17.30861045651623
 20
41.10314552470606
 10
-16.36193727982357
 20
40.1794266639283
 10
-15.6406541928269
 20
39.07073493687407
 10
-15.14578721976882
 20
37.68767439988765
 10
-15.00180708782276
 20
36.22581958780895
 10
-15.20329906909521
 20
34.8260762746072
 10
-13.23990984947852
 20
35.61888245267784
 10
-11.03081773566957
 20
36.36373275782393
 10
-8.780208114665497
 20
36.97171818381128
 10
-6.496551772891464
 20
37.44055041077976
 10
-4.420107974652381
 20
37.74205407092219
 10
-2.097419285288209
 20
37.9420720617852
 10
0.2331636166678538
 20
37.99928466073884
 10
2.562868943419227
 20
37.91347653247928
 10
4.882928210164143
 20
37.68497063942579
 10
6.955515742295343
 20
37.35800852238622
 10
9.233246836324023
 20
36.86118762139267
 10
11.47622607413067
 20
36.22562953345937
 10
13.67601138832953
 20
35.45372635572009
 10
15.8243232837102
 20
34.54838335743985
 10
17.70710683918272
 20
33.62228974037563
 10
19.73552762629239
 20
32.47320355788523
 10
21.4978088097773
 20
31.33439350583096
 10
23.19454663849975
 20
30.10004993740808
 10
24.82056803224352
 20
28.77393616724641
 10
26.53829747754095
 20
27.19777136078512
 10
27.99902961734005
 20
25.69152273586201
 10
29.37439722778399
 20
24.10694479821855
 10
30.7973735335986
 20
22.26031858334468
 10
31.97908914260214
 20
20.52651596373592
 10
33.17760917989501
 20
18.52690608564058
 10
34.14962969637025
 20
16.66741706446405
 10
35.01753349499759
 20
14.75711177455541
 10
35.77867447695479
 20
12.80181442890436
 10
36.43073204604312
 20
10.80748641402834
 10
37.02489654585188
 20
8.553188631672134
 10
37.44055041077976
 20
6.496551772891467
 10
37.7617929691008
 20
4.246966838924919
 10
38.4258041730454
 20
4.819245188883871
 10
39.17161957904401
 20
5.29152758609013
 10
39.97866087964668
 20
5.649264391098125
 10
40.82945806790323
 20
5.884711682419382
 10
41.55861261840199
 20
5.983742740072142
 10
42.44138738159801
 20
5.983742740072142
 10
43.31460744094122
 20
5.854212780231172
 10
44.15937021920993
 20
5.597956793008434
 10
44.95738915337871
 20
5.220521946652269
 10
45.69138954348377
 20
4.730078565759637
 10
46.3454824977088
 20
4.137243268422403
 10
46.81924518888387
 20
3.574195826954599
 10
47.29152758609013
 20
2.828380420955988
 10
47.64926439109813
 20
2.02133912035332
 10
47.85421278023117
 20
1.314607440941221
 10
47.98374274007215
 20
0.4413873815980045
 10
47.98374274007215
 20
-0.4413873815980046
 10
47.85421278023117
 20
-1.314607440941219
 10
47.59795679300844
 20
-2.159370219209928
 10
47.14637166000163
 20
-3.08461646515933
 10
46.63806272017642
 20
-3.806359704981873
 10
46.02935372908211
 20
-4.445706752129754
 10
45.33342139811761
 20
-4.988817673815271
 10
44.56533056058169
 20
-5.42393575874066
 10
43.74170806352677
 20
-5.741642014393253
 10
42.88038284673217
 20
-5.935059059788686
 10
41.85275262886253
 20
-5.998192912177226
 10
40.97422866743819
 20
-5.911665854333648
 10
40.11790955760665
 20
-5.69716908355822
 10
39.30233202207236
 20
-5.359345807173091
 10
38.54515085149293
 20
-4.905508878909503
 10
37.7617929691008
 20
-4.246966838924919
 10
37.44055041077976
 20
-6.496551772891446
 10
37.02489654585188
 20
-8.553188631672128
 10
36.43073204604312
 20
-10.80748641402833
 10
35.77867447695479
 20
-12.80181442890436
 10
34.9263263642222
 20
-14.97169752231983
 10
34.04671749073504
 20
-16.87664149367631
 10
32.94775732959632
 20
-18.93265134496571
 10
31.85253881108385
 20
-20.72234956003777
 10
30.52188619626451
 20
-22.63657357071247
 10
29.22592683053203
 20
-24.28672890482348
 10
27.84086232355169
 20
-25.86283791622721
 10
26.37091551380685
 20
-27.3600953025325
 10
24.64354723884028
 20
-28.92569064840195
 10
23.00941957336437
 20
-30.24180237513757
 10
21.11166885474489
 20
-31.59584526749672
 10
19.33554541663807
 20
-32.71294366823516
 10
17.70710683918271
 20
-33.62228974037563
 10
15.82432328371022
 20
-34.54838335743985
 10
13.89329391658141
 20
-35.36914452100138
 10
12.1410771710086
 20
-36.00825245867416
 10
10.13508478404614
 20
-36.62349050022672
 10
8.325847125961051
 20
-37.07668094146408
 10
6.266698578618863
 20
-37.47970769529475
 10
4.420107974652385
 20
-37.74205407092219
 10
1.864571624441889
 20
-37.95422733579655
 10
-0.6994557364205785
 20
-37.99356210824129
 10
-3.027932642914341
 20
-37.8791713730643
 10
-5.575758029303742
 20
-37.58870737866168
 10
-8.098192156811468
 20
-37.12706942099467
 10
-10.58374819663201
 20
-36.4963597377915
 10
-13.02110725785578
 20
-35.69945049688322
 10
-15.20329906909524
 20
-34.82607627460718
 10
-15.02889163996684
 20
-35.78496411696905
  0
CIRCLE
  5
65
100
AcDbEntity
  8
ESPACIADOR_B
  6
ByLayer
 62
  256
370
   -1
100
AcDbCircle
 10
0
 20
0
 40
31
  0
CIRCLE
  5
66
100
AcDbEntity
  8
ESPACIADOR_B
  6
ByLayer
 62
  256
370
   -1
100
AcDbCircle
 10
42
 20
0
 40
3
  0
CIRCLE
  5
67
100
AcDbEntity
  8
ESPACIADOR_B
  6
ByLayer
 62
  256
370
   -1
100
AcDbCircle
 10
-20.99999999999999
 20
36.37306695894642
 40
3
  0
CIRCLE
  5
68
100
AcDbEntity
  8
ESPACIADOR_B
  6
ByLayer
 62
  256
370
   -1
100
AcDbCircle
 10
-21.00000000000002
 20
-36.37306695894641
 40
3
  0
ENDSEC
  0
SECTION
  2
OBJECTS
  0
DICTIONARY
  5
C
330
0
100
AcDbDictionary
281
    1
  3
ACAD_GROUP
350
D
  0
DICTIONARY
  5
D
330
C
100
AcDbDictionary
281
    1
  0
PLOTSETTINGS
  5
69
100
AcDbPlotSettings
  6
1x1
 40
0
 41
0
 42
0
 43
0
  0
ENDSEC
  0
EOF
