999
dxfrw 0.6.3
  0
SECTION
  2
HEADER
  9
$ACADVER
  1
AC1021
  9
$DWGCODEPAGE
  3
ANSI_1252
  9
$INSBASE
 10
0
 20
0
 30
0
  9
$EXTMIN
 10
-48
 20
-48
 30
0
  9
$EXTMAX
 10
48
 20
48
 30
0
  9
$LIMMIN
 10
0
 20
0
  9
$LIMMAX
 10
420
 20
297
  9
$ORTHOMODE
 70
    0
  9
$REGENMODE
 70
    1
  9
$FILLMODE
 70
    1
  9
$QTEXTMODE
 70
    0
  9
$MIRRTEXT
 70
    1
  9
$LTSCALE
 40
1
  9
$ATTMODE
 70
    1
  9
$TEXTSIZE
 40
2.5
  9
$TRACEWID
 40
1
  9
$TEXTSTYLE
  7
OpenSans
  9
$CLAYER
  8
0
  9
$CELTYPE
  6
ByLayer
  9
$CECOLOR
 62
  256
  9
$CELTSCALE
 40
1
  9
$DISPSILH
 70
    0
  9
$DIMSCALE
 40
1
  9
$DIMASZ
 40
0.175
  9
$DIMEXO
 40
0.125
  9
$DIMDLI
 40
3.75
  9
$DIMRND
 40
0
  9
$DIMDLE
 40
0
  9
$DIMEXE
 40
0.375
  9
$DIMTP
 40
0
  9
$DIMTM
 40
0
  9
$DIMTXT
 40
0.25
  9
$DIMCEN
 40
2.5
  9
$DIMTSZ
 40
0
  9
$DIMTOL
 70
    0
  9
$DIMLIM
 70
    0
  9
$DIMTIH
 70
    0
  9
$DIMTOH
 70
    0
  9
$DIMSE1
 70
    0
  9
$DIMSE2
 70
    0
  9
$DIMTAD
 70
    1
  9
$DIMZIN
 70
   12
  9
$DIMBLK
  1
ARCHTICK
  9
$DIMASO
 70
    1
  9
$DIMSHO
 70
    1
  9
$DIMPOST
  1

  9
$DIMAPOST
  1

  9
$DIMALT
 70
    0
  9
$DIMALTD
 70
    3
  9
$DIMALTF
 40
0.03937007874
  9
$DIMLFAC
 40
100
  9
$DIMTOFL
 70
    1
  9
$DIMTVP
 40
0
  9
$DIMTIX
 70
    0
  9
$DIMSOXD
 70
    0
  9
$DIMSAH
 70
    0
  9
$DIMBLK1
  1

  9
$DIMBLK2
  1

  9
$DIMSTYLE
  2
EZDXF
  9
$DIMCLRD
 70
    0
  9
$DIMCLRE
 70
    0
  9
$DIMCLRT
 70
    0
  9
$DIMTFAC
 40
0.5
  9
$DIMGAP
 40
0.1
  9
$DIMJUST
 70
    0
  9
$DIMSD1
 70
    0
  9
$DIMSD2
 70
    0
  9
$DIMTOLJ
 70
    0
  9
$DIMTZIN
 70
    8
  9
$DIMALTZ
 70
    0
  9
$DIMALTTZ
 70
    0
  9
$DIMUPT
 70
    1
  9
$DIMDEC
 70
    2
  9
$DIMTDEC
 70
    2
  9
$DIMALTU
 70
    2
  9
$DIMALTTD
 70
    3
  9
$DIMTXSTY
  7
OpenSansCondensed-Light
  9
$DIMAUNIT
 70
    0
  9
$DIMADEC
 70
    2
  9
$DIMALTRND
 40
0
  9
$DIMAZIN
 70
    3
  9
$DIMDSEP
 70
   46
  9
$DIMATFIT
 70
    3
  9
$DIMFRAC
 70
    0
  9
$DIMLDRBLK
  1

  9
$DIMLUNIT
 70
    2
  9
$DIMLWD
 70
   -2
  9
$DIMLWE
 70
   -2
  9
$DIMTMOVE
 70
    2
  9
$DIMFXL
 40
1
  9
$DIMFXLON
 70
    0
  9
$DIMJOGANG
 40
0.785398163397
  9
$DIMTFILL
 70
    0
  9
$DIMTFILLCLR
 70
    0
  9
$DIMARCSYM
 70
    0
  9
$DIMLTYPE
  6

  9
$DIMLTEX1
  6

  9
$DIMLTEX2
  6

  9
$LUNITS
 70
    2
  9
$LUPREC
 70
    4
  9
$SKETCHINC
 40
1
  9
$FILLETRAD
 40
10
  9
$AUNITS
 70
    0
  9
$AUPREC
 70
    2
  9
$MENU
  1
.
  9
$ELEVATION
 40
0
  9
$PELEVATION
 40
0
  9
$THICKNESS
 40
0
  9
$LIMCHECK
 70
    0
  9
$CHAMFERA
 40
0
  9
$CHAMFERB
 40
0
  9
$CHAMFERC
 40
0
  9
$CHAMFERD
 40
0
  9
$SKPOLY
 70
    0
  9
$USRTIMER
 70
    1
  9
$ANGBASE
 50
0
  9
$ANGDIR
 70
    0
  9
$PDMODE
 70
    0
  9
$PDSIZE
 40
0
  9
$PLINEWID
 40
0
  9
$SPLFRAME
 70
    0
  9
$SPLINETYPE
 70
    6
  9
$SPLINESEGS
 70
    8
  9
$HANDSEED
  5
20000
  9
$SURFTAB1
 70
    6
  9
$SURFTAB2
 70
    6
  9
$SURFTYPE
 70
    6
  9
$SURFU
 70
    6
  9
$SURFV
 70
    6
  9
$UCSBASE
  2

  9
$UCSNAME
  2

  9
$UCSORG
 10
0
 20
0
 30
0
  9
$UCSXDIR
 10
1
 20
0
 30
0
  9
$UCSYDIR
 10
0
 20
1
 30
0
  9
$UCSORTHOREF
  2

  9
$UCSORTHOVIEW
 70
    0
  9
$UCSORGTOP
 10
0
 20
0
 30
0
  9
$UCSORGBOTTOM
 10
0
 20
0
 30
0
  9
$UCSORGLEFT
 10
0
 20
0
 30
0
  9
$UCSORGRIGHT
 10
0
 20
0
 30
0
  9
$UCSORGFRONT
 10
0
 20
0
 30
0
  9
$UCSORGBACK
 10
0
 20
0
 30
0
  9
$PUCSBASE
  2

  9
$PUCSNAME
  2

  9
$PUCSORG
 10
0
 20
0
 30
0
  9
$PUCSXDIR
 10
1
 20
0
 30
0
  9
$PUCSYDIR
 10
0
 20
1
 30
0
  9
$PUCSORTHOREF
  2

  9
$PUCSORTHOVIEW
 70
    0
  9
$PUCSORGTOP
 10
0
 20
0
 30
0
  9
$PUCSORGBOTTOM
 10
0
 20
0
 30
0
  9
$PUCSORGLEFT
 10
0
 20
0
 30
0
  9
$PUCSORGRIGHT
 10
0
 20
0
 30
0
  9
$PUCSORGFRONT
 10
0
 20
0
 30
0
  9
$PUCSORGBACK
 10
0
 20
0
 30
0
  9
$USERI1
 70
    0
  9
$USERI2
 70
    0
  9
$USERI3
 70
    0
  9
$USERI4
 70
    0
  9
$USERI5
 70
    0
  9
$USERR1
 40
0
  9
$USERR2
 40
0
  9
$USERR3
 40
0
  9
$USERR4
 40
0
  9
$USERR5
 40
0
  9
$WORLDVIEW
 70
    1
  9
$SHADEDGE
 70
    3
  9
$SHADEDIF
 70
   70
  9
$TILEMODE
 70
    1
  9
$MAXACTVP
 70
   64
  9
$PINSBASE
 10
0
 20
0
 30
0
  9
$PLIMCHECK
 70
    0
  9
$PEXTMIN
 10
1e+20
 20
1e+20
 30
1e+20
  9
$PEXTMAX
 10
-1e+20
 20
-1e+20
 30
-1e+20
  9
$GRIDMODE
 70
    0
  9
$SNAPSTYLE
 70
    0
  9
$PLIMMIN
 10
0
 20
0
  9
$PLIMMAX
 10
420
 20
297
  9
$UNITMODE
 70
    0
  9
$VISRETAIN
 70
    1
  9
$PLINEGEN
 70
    0
  9
$PSLTSCALE
 70
    1
  9
$TREEDEPTH
 70
 3020
  9
$CMLSTYLE
  2
Standard
  9
$CMLJUST
 70
    0
  9
$CMLSCALE
 40
20
  9
$PROXYGRAPHICS
 70
    1
  9
$MEASUREMENT
 70
    1
  9
$CELWEIGHT
370
   -1
  9
$ENDCAPS
280
    0
  9
$JOINSTYLE
280
    0
  9
$LWDISPLAY
290
    0
  9
$INSUNITS
 70
    4
  9
$HYPERLINKBASE
  1

  9
$STYLESHEET
  1

  9
$XEDIT
290
    1
  9
$CEPSNTYPE
380
    0
  9
$PSTYLEMODE
290
    1
  9
$EXTNAMES
290
    1
  9
$PSVPSCALE
 40
0
  9
$OLESTARTUP
290
    0
  9
$SORTENTS
280
  127
  9
$INDEXCTL
280
    0
  9
$HIDETEXT
280
    1
  9
$XCLIPFRAME
290
    1
  9
$HALOGAP
280
    0
  9
$OBSCOLOR
 70
  257
  9
$OBSLTYPE
280
    0
  9
$INTERSECTIONDISPLAY
280
    0
  9
$INTERSECTIONCOLOR
 70
  257
  9
$DIMASSOC
280
    2
  9
$PROJECTNAME
  1

  9
$CAMERADISPLAY
290
    0
  9
$LENSLENGTH
 40
50
  9
$CAMERAHEIGHT
 40
0
  9
$STEPSPERSEC
 40
24
  9
$STEPSIZE
 40
100
  9
$3DDWFPREC
 40
2
  9
$PSOLWIDTH
 40
0.005
  9
$PSOLHEIGHT
 40
0.08
  9
$LOFTANG1
 40
1.570796326795
  9
$LOFTANG2
 40
1.570796326795
  9
$LOFTMAG1
 40
0
  9
$LOFTMAG2
 40
0
  9
$LOFTPARAM
 70
    7
  9
$LOFTNORMALS
280
    1
  9
$LATITUDE
 40
37.795
  9
$LONGITUDE
 40
-122.394
  9
$NORTHDIRECTION
 40
0
  9
$TIMEZONE
 70
-8000
  9
$LIGHTGLYPHDISPLAY
280
    1
  9
$TILEMODELIGHTSYNCH
280
    1
  9
$SOLIDHIST
280
    0
  9
$SHOWHIST
280
    1
  9
$DWFFRAME
280
    2
  9
$DGNFRAME
280
    2
  9
$REALWORLDSCALE
290
    1
  9
$INTERFERECOLOR
 62
  256
  9
$CSHADOW
280
    0
  9
$SHADOWPLANELOCATION
 40
0
  0
ENDSEC
  0
SECTION
  2
CLASSES
  0
ENDSEC
  0
SECTION
  2
TABLES
  0
TABLE
  2
VPORT
  5
8
330
0
100
AcDbSymbolTable
 70
    1
  0
VPORT
  5
31
330
2
100
AcDbSymbolTableRecord
100
AcDbViewportTableRecord
  2
*ACTIVE
 70
    0
 10
0
 20
0
 11
1
 21
1
 12
69.69617255949898
 22
31.09122939457203
 13
0
 23
0
 14
10
 24
10
 15
10
 25
10
 16
0
 26
0
 36
1
 17
0
 27
0
 37
0
 40
129.287695565762
 41
1.837675350701403
 42
50
 43
0
 44
0
 50
0
 51
0
 71
    0
 72
  100
 73
    1
 74
    3
 75
    0
 76
    0
 77
    0
 78
    0
281
    0
 65
    1
110
0
120
0
130
0
111
1
121
0
131
0
112
0
122
1
132
0
 79
    0
146
0
348
10020
 60
    7
 61
    5
292
1
282
    1
141
0
142
0
 63
  250
421
3358443
  0
ENDTAB
  0
TABLE
  2
LTYPE
  5
5
330
0
100
AcDbSymbolTable
 70
    4
  0
LTYPE
  5
14
330
5
100
AcDbSymbolTableRecord
100
AcDbLinetypeTableRecord
  2
ByBlock
 70
    0
  3

 72
   65
 73
    0
 40
0
  0
LTYPE
  5
15
330
5
100
AcDbSymbolTableRecord
100
AcDbLinetypeTableRecord
  2
ByLayer
 70
    0
  3

 72
   65
 73
    0
 40
0
  0
LTYPE
  5
16
330
5
100
AcDbSymbolTableRecord
100
AcDbLinetypeTableRecord
  2
Continuous
 70
    0
  3
Solid line
 72
   65
 73
    0
 40
0
  0
LTYPE
  5
32
330
5
100
AcDbSymbolTableRecord
100
AcDbLinetypeTableRecord
  2
DOT
 70
    0
  3
Dot . . . . . . . . . . . . . . . . . . . . . .
 72
   65
 73
    2
 40
6.35
 49
0
 74
    0
 49
-6.35
 74
    0
  0
LTYPE
  5
33
330
5
100
AcDbSymbolTableRecord
100
AcDbLinetypeTableRecord
  2
DOTTINY
 70
    0
  3
Dot (.15x) .....................................
 72
   65
 73
    2
 40
0.9525
 49
0
 74
    0
 49
-0.9525
 74
    0
  0
LTYPE
  5
34
330
5
100
AcDbSymbolTableRecord
100
AcDbLinetypeTableRecord
  2
DOT2
 70
    0
  3
Dot (.5x) .....................................
 72
   65
 73
    2
 40
3.175
 49
0
 74
    0
 49
-3.175
 74
    0
  0
LTYPE
  5
35
330
5
100
AcDbSymbolTableRecord
100
AcDbLinetypeTableRecord
  2
DOTX2
 70
    0
  3
Dot (2x) .  .  .  .  .  .  .  .  .  .  .  .  .
 72
   65
 73
    2
 40
12.7
 49
0
 74
    0
 49
-12.7
 74
    0
  0
LTYPE
  5
36
330
5
100
AcDbSymbolTableRecord
100
AcDbLinetypeTableRecord
  2
DASHED
 70
    0
  3
Dashed _ _ _ _ _ _ _ _ _ _ _ _ _ _ _ _ _
 72
   65
 73
    2
 40
19.05
 49
12.7
 74
    0
 49
-6.35
 74
    0
  0
LTYPE
  5
37
330
5
100
AcDbSymbolTableRecord
100
AcDbLinetypeTableRecord
  2
DASHEDTINY
 70
    0
  3
Dashed (.15x) _ _ _ _ _ _ _ _ _ _ _ _ _ _ _ _ _
 72
   65
 73
    2
 40
2.8575
 49
1.905
 74
    0
 49
-0.9525
 74
    0
  0
LTYPE
  5
38
330
5
100
AcDbSymbolTableRecord
100
AcDbLinetypeTableRecord
  2
DASHED2
 70
    0
  3
Dashed (.5x) _ _ _ _ _ _ _ _ _ _ _ _ _ _ _ _ _
 72
   65
 73
    2
 40
9.524999999999999
 49
6.35
 74
    0
 49
-3.175
 74
    0
  0
LTYPE
  5
39
330
5
100
AcDbSymbolTableRecord
100
AcDbLinetypeTableRecord
  2
DASHEDX2
 70
    0
  3
Dashed (2x) ____  ____  ____  ____  ____  ___
 72
   65
 73
    2
 40
38.09999999999999
 49
25.4
 74
    0
 49
-12.7
 74
    0
  0
LTYPE
  5
3A
330
5
100
AcDbSymbolTableRecord
100
AcDbLinetypeTableRecord
  2
DASHDOT
 70
    0
  3
Dash dot __ . __ . __ . __ . __ . __ . __ . __
 72
   65
 73
    4
 40
25.4
 49
12.7
 74
    0
 49
-6.35
 74
    0
 49
0
 74
    0
 49
-6.35
 74
    0
  0
LTYPE
  5
3B
330
5
100
AcDbSymbolTableRecord
100
AcDbLinetypeTableRecord
  2
DASHDOTTINY
 70
    0
  3
Dash dot (.15x) _._._._._._._._._._._._._._._.
 72
   65
 73
    4
 40
3.81
 49
1.905
 74
    0
 49
-0.9525
 74
    0
 49
0
 74
    0
 49
-0.9525
 74
    0
  0
LTYPE
  5
3C
330
5
100
AcDbSymbolTableRecord
100
AcDbLinetypeTableRecord
  2
DASHDOT2
 70
    0
  3
Dash dot (.5x) _._._._._._._._._._._._._._._.
 72
   65
 73
    4
 40
12.7
 49
6.35
 74
    0
 49
-3.175
 74
    0
 49
0
 74
    0
 49
-3.175
 74
    0
  0
LTYPE
  5
3D
330
5
100
AcDbSymbolTableRecord
100
AcDbLinetypeTableRecord
  2
DASHDOTX2
 70
    0
  3
Dash dot (2x) ____  .  ____  .  ____  .  ___
 72
   65
 73
    4
 40
50.8
 49
25.4
 74
    0
 49
-12.7
 74
    0
 49
0
 74
    0
 49
-12.7
 74
    0
  0
LTYPE
  5
3E
330
5
100
AcDbSymbolTableRecord
100
AcDbLinetypeTableRecord
  2
DIVIDE
 70
    0
  3
Divide ____ . . ____ . . ____ . . ____ . . ____
 72
   65
 73
    6
 40
31.75
 49
12.7
 74
    0
 49
-6.35
 74
    0
 49
0
 74
    0
 49
-6.35
 74
    0
 49
0
 74
    0
 49
-6.35
 74
    0
  0
LTYPE
  5
3F
330
5
100
AcDbSymbolTableRecord
100
AcDbLinetypeTableRecord
  2
DIVIDETINY
 70
    0
  3
Divide (.15x) __..__..__..__..__..__..__..__.._
 72
   65
 73
    6
 40
4.7625
 49
1.905
 74
    0
 49
-0.9525
 74
    0
 49
0
 74
    0
 49
-0.9525
 74
    0
 49
0
 74
    0
 49
-0.9525
 74
    0
  0
LTYPE
  5
40
330
5
100
AcDbSymbolTableRecord
100
AcDbLinetypeTableRecord
  2
DIVIDE2
 70
    0
  3
Divide (.5x) __..__..__..__..__..__..__..__.._
 72
   65
 73
    6
 40
15.875
 49
6.35
 74
    0
 49
-3.175
 74
    0
 49
0
 74
    0
 49
-3.175
 74
    0
 49
0
 74
    0
 49
-3.175
 74
    0
  0
LTYPE
  5
41
330
5
100
AcDbSymbolTableRecord
100
AcDbLinetypeTableRecord
  2
DIVIDEX2
 70
    0
  3
Divide (2x) ________  .  .  ________  .  .  _
 72
   65
 73
    6
 40
63.5
 49
25.4
 74
    0
 49
-12.7
 74
    0
 49
0
 74
    0
 49
-12.7
 74
    0
 49
0
 74
    0
 49
-12.7
 74
    0
  0
LTYPE
  5
42
330
5
100
AcDbSymbolTableRecord
100
AcDbLinetypeTableRecord
  2
BORDER
 70
    0
  3
Border __ __ . __ __ . __ __ . __ __ . __ __ .
 72
   65
 73
    6
 40
44.45
 49
12.7
 74
    0
 49
-6.35
 74
    0
 49
12.7
 74
    0
 49
-6.35
 74
    0
 49
0
 74
    0
 49
-6.35
 74
    0
  0
LTYPE
  5
43
330
5
100
AcDbSymbolTableRecord
100
AcDbLinetypeTableRecord
  2
BORDERTINY
 70
    0
  3
Border (.15x) __.__.__.__.__.__.__.__.__.__.__.
 72
   65
 73
    6
 40
6.6675
 49
1.905
 74
    0
 49
-0.9525
 74
    0
 49
1.905
 74
    0
 49
-0.9525
 74
    0
 49
0
 74
    0
 49
-0.9525
 74
    0
  0
LTYPE
  5
44
330
5
100
AcDbSymbolTableRecord
100
AcDbLinetypeTableRecord
  2
BORDER2
 70
    0
  3
Border (.5x) __.__.__.__.__.__.__.__.__.__.__.
 72
   65
 73
    6
 40
22.225
 49
6.35
 74
    0
 49
-3.175
 74
    0
 49
6.35
 74
    0
 49
-3.175
 74
    0
 49
0
 74
    0
 49
-3.175
 74
    0
  0
LTYPE
  5
45
330
5
100
AcDbSymbolTableRecord
100
AcDbLinetypeTableRecord
  2
BORDERX2
 70
    0
  3
Border (2x) ____  ____  .  ____  ____  .  ___
 72
   65
 73
    6
 40
88.89999999999999
 49
25.4
 74
    0
 49
-12.7
 74
    0
 49
25.4
 74
    0
 49
-12.7
 74
    0
 49
0
 74
    0
 49
-12.7
 74
    0
  0
LTYPE
  5
46
330
5
100
AcDbSymbolTableRecord
100
AcDbLinetypeTableRecord
  2
CENTER
 70
    0
  3
Center ____ _ ____ _ ____ _ ____ _ ____ _ ____
 72
   65
 73
    4
 40
50.8
 49
31.75
 74
    0
 49
-6.35
 74
    0
 49
6.35
 74
    0
 49
-6.35
 74
    0
  0
LTYPE
  5
47
330
5
100
AcDbSymbolTableRecord
100
AcDbLinetypeTableRecord
  2
CENTERTINY
 70
    0
  3
Center (.15x) ___ _ ___ _ ___ _ ___ _ ___ _ ___
 72
   65
 73
    4
 40
7.619999999999999
 49
4.7625
 74
    0
 49
-0.9525
 74
    0
 49
0.9525
 74
    0
 49
-0.9525
 74
    0
  0
LTYPE
  5
48
330
5
100
AcDbSymbolTableRecord
100
AcDbLinetypeTableRecord
  2
CENTER2
 70
    0
  3
Center (.5x) ___ _ ___ _ ___ _ ___ _ ___ _ ___
 72
   65
 73
    4
 40
28.575
 49
19.05
 74
    0
 49
-3.175
 74
    0
 49
3.175
 74
    0
 49
-3.175
 74
    0
  0
LTYPE
  5
49
330
5
100
AcDbSymbolTableRecord
100
AcDbLinetypeTableRecord
  2
CENTERX2
 70
    0
  3
Center (2x) ________  __  ________  __  _____
 72
   65
 73
    4
 40
101.6
 49
63.5
 74
    0
 49
-12.7
 74
    0
 49
12.7
 74
    0
 49
-12.7
 74
    0
  0
ENDTAB
  0
TABLE
  2
LAYER
  5
2
330
0
100
AcDbSymbolTable
 70
    1
  0
LAYER
  5
10
330
2
100
AcDbSymbolTableRecord
100
AcDbLayerTableRecord
  2
0
 70
    0
 62
    7
  6
CONTINUOUS
370
   -3
390
F
  0
LAYER
  5
4A
330
2
100
AcDbSymbolTableRecord
100
AcDbLayerTableRecord
  2
CONTORNO
 70
    0
 62
    5
  6
CONTINUOUS
370
   -3
390
F
  0
LAYER
  5
4B
330
2
100
AcDbSymbolTableRecord
100
AcDbLayerTableRecord
  2
Defpoints
 70
    0
 62
    7
  6
CONTINUOUS
290
0
370
   -3
390
F
  0
LAYER
  5
4C
330
2
100
AcDbSymbolTableRecord
100
AcDbLayerTableRecord
  2
RANURAS
 70
    0
 62
    1
  6
CONTINUOUS
370
   -3
390
F
  0
ENDTAB
  0
TABLE
  2
STYLE
  5
3
330
0
100
AcDbSymbolTable
 70
    3
  0
STYLE
  5
4D
330
2
100
AcDbSymbolTableRecord
100
AcDbTextStyleTableRecord
  2
Standard
 70
    0
 40
0
 41
1
 50
0
 71
    0
 42
1
  3
txt
  4

  0
ENDTAB
  0
TABLE
  2
VIEW
  5
6
330
0
100
AcDbSymbolTable
 70
    0
  0
ENDTAB
  0
TABLE
  2
UCS
  5
7
330
0
100
AcDbSymbolTable
 70
    0
  0
ENDTAB
  0
TABLE
  2
APPID
  5
9
330
0
100
AcDbSymbolTable
 70
    1
  0
APPID
  5
12
330
9
100
AcDbSymbolTableRecord
100
AcDbRegAppTableRecord
  2
ACAD
 70
    0
  0
APPID
  5
4E
330
9
100
AcDbSymbolTableRecord
100
AcDbRegAppTableRecord
  2
LibreCad
 70
    0
  0
ENDTAB
  0
TABLE
  2
DIMSTYLE
  5
A
330
0
100
AcDbSymbolTable
 70
    1
100
AcDbDimStyleTable
 71
    1
  0
DIMSTYLE
105
4F
330
A
100
AcDbSymbolTableRecord
100
AcDbDimStyleTableRecord
  2
Standard
 70
    0
 40
1
 41
0.175
 42
0.125
 43
0.38
 44
0.375
 45
0
 46
0
 47
0
 48
0
 49
1
140
0.25
141
0.09
142
0
143
25.4
144
100
145
0
146
1
147
0.1
148
0
 71
    0
 72
    0
 73
    0
 74
    1
 75
    0
 76
    0
 77
    0
 78
   12
 79
    3
170
    0
171
    2
172
    0
173
    0
174
    0
175
    0
176
    0
177
    0
178
    0
179
    2
271
    2
272
    4
273
    2
274
    2
275
    0
276
    0
277
    2
278
   46
279
    0
280
    0
281
    0
282
    0
283
    1
284
    0
285
    0
286
    0
288
    0
289
    3
  0
ENDTAB
  0
TABLE
  2
BLOCK_RECORD
  5
1
330
0
100
AcDbSymbolTable
 70
    2
  0
BLOCK_RECORD
  5
1F
330
1
100
AcDbSymbolTableRecord
100
AcDbBlockTableRecord
  2
*Model_Space
 70
    0
280
    1
281
    0
  0
BLOCK_RECORD
  5
1E
330
1
100
AcDbSymbolTableRecord
100
AcDbBlockTableRecord
  2
*Paper_Space
 70
    0
280
    1
281
    0
  0
BLOCK_RECORD
  5
50
330
1
100
AcDbSymbolTableRecord
100
AcDbBlockTableRecord
  2
_ARCHTICK
 70
    0
280
    1
281
    0
  0
BLOCK_RECORD
  5
53
330
1
100
AcDbSymbolTableRecord
100
AcDbBlockTableRecord
  2
_CLOSEDFILLED
 70
    0
280
    1
281
    0
  0
BLOCK_RECORD
  5
56
330
1
100
AcDbSymbolTableRecord
100
AcDbBlockTableRecord
  2
_CLOSEDBLANK
 70
    0
280
    1
281
    0
  0
ENDTAB
  0
ENDSEC
  0
SECTION
  2
BLOCKS
  0
BLOCK
  5
20
330
1F
100
AcDbEntity
  8
0
100
AcDbBlockBegin
  2
*Model_Space
 70
    0
 10
0
 20
0
 30
0
  3
*Model_Space
  1

  0
ENDBLK
  5
21
330
1F
100
AcDbEntity
  8
0
100
AcDbBlockEnd
  0
BLOCK
  5
1C
330
1B
100
AcDbEntity
  8
0
100
AcDbBlockBegin
  2
*Paper_Space
 70
    0
 10
0
 20
0
 30
0
  3
*Paper_Space
  1

  0
ENDBLK
  5
1D
330
1F
100
AcDbEntity
  8
0
100
AcDbBlockEnd
  0
BLOCK
  5
51
330
50
100
AcDbEntity
  8
0
100
AcDbBlockBegin
  2
_ARCHTICK
 70
    0
 10
0
 20
0
  3
_ARCHTICK
  1

  0
LWPOLYLINE
  5
59
100
AcDbEntity
  8
0
  6
ByBlock
 62
    0
370
   -1
100
AcDbPolyline
 90
    2
 70
    0
 43
0
 10
-0.5
 20
-0.5
 10
0.5
 20
0.5
  0
ENDBLK
  5
52
330
50
100
AcDbEntity
  8
0
100
AcDbBlockEnd
  0
BLOCK
  5
54
330
53
100
AcDbEntity
  8
0
100
AcDbBlockBegin
  2
_CLOSEDFILLED
 70
    0
 10
0
 20
0
  3
_CLOSEDFILLED
  1

  0
SOLID
  5
5A
100
AcDbEntity
  8
0
  6
ByBlock
 62
    0
370
   -1
100
AcDbTrace
 10
-1
 20
0.1643989837240254
 30
0
 11
0
 21
0
 31
0
 12
-1
 22
-0.1643989837240254
 32
0
 13
-1
 23
-0.1643989837240254
 33
0
  0
ENDBLK
  5
55
330
53
100
AcDbEntity
  8
0
100
AcDbBlockEnd
  0
BLOCK
  5
57
330
56
100
AcDbEntity
  8
0
100
AcDbBlockBegin
  2
_CLOSEDBLANK
 70
    0
 10
0
 20
0
  3
_CLOSEDBLANK
  1

  0
LWPOLYLINE
  5
5B
100
AcDbEntity
  8
0
  6
ByBlock
 62
    0
370
   -1
100
AcDbPolyline
 90
    3
 70
    1
 43
0
 10
-1
 20
0.1643989837240254
 10
0
 20
0
 10
-1
 20
-0.1643989837240254
  0
ENDBLK
  5
58
330
56
100
AcDbEntity
  8
0
100
AcDbBlockEnd
  0
ENDSEC
  0
SECTION
  2
ENTITIES
  0
CIRCLE
  5
5C
100
AcDbEntity
  8
CONTORNO
  6
ByLayer
 62
  256
370
   -1
100
AcDbCircle
 10
0
 20
0
 40
48
  0
CIRCLE
  5
5D
100
AcDbEntity
  8
CONTORNO
  6
ByLayer
 62
  256
370
   -1
100
AcDbCircle
 10
0
 20
0
 40
31
  0
LWPOLYLINE
  5
5E
100
AcDbEntity
  8
RANURAS
  6
ByLayer
 62
  256
370
   -1
100
AcDbPolyline
 90
  258
 70
    1
 43
0
 10
43.5
 20
3
 10
43.57362368556873
 20
2.999096456088613
 10
43.64720302298225
 20
2.996386368615517
 10
43.720693690799
 20
2.991871370036071
 10
43.79405142098868
 20
2.985554180016591
 10
43.86723202559765
 20
2.97743860379613
 10
43.94019142336609
 20
2.967529529894343
 10
44.0128856662809
 20
2.955832927166824
 10
44.08527096604838
 20
2.942355841209691
 10
44.15730372047061
 20
2.927106390115586
 10
44.22894053970979
 20
2.910093759583632
 10
44.3001382724247
 20
2.891328197386319
 10
44.37085403176339
 20
2.870821007196627
 10
44.44104522119667
 20
2.84858454177911
 10
44.51066956017666
 20
2.824632195549063
 10
44.57968510960497
 20
2.798978396504217
 10
44.64805029709527
 20
2.77163859753386
 10
44.71572394201497
 20
2.742629267110592
 10
44.78266528029085
 20
2.71196787937033
 10
44.84883398896382
 20
2.679672903586546
 10
44.91419021047799
 20
2.645763793045065
 10
44.97869457668935
 20
2.610260973326134
 10
45.04230823257966
 20
2.573185830000816
 10
45.10499285966129
 20
2.534560695749121
 10
45.1667106990588
 20
2.494408836907636
 10
45.22742457425353
 20
2.452754439454751
 10
45.2870979134773
 20
2.409622594441934
 10
45.34569477174188
 20
2.365039282879819
 10
45.40317985249094
 20
2.319031360088211
 10
45.45951852886133
 20
2.271626539519453
 10
45.51467686454105
 20
2.222853376064877
 10
45.5686216342112
 20
2.1727412488544
 10
45.62132034355965
 20
2.121320343559642
 10
45.6727412488544
 20
2.0686216342112
 10
45.72285337606488
 20
2.014676864541055
 10
45.77162653951945
 20
1.95951852886133
 10
45.81903136008821
 20
1.903179852490936
 10
45.86503928287982
 20
1.845694771741881
 10
45.90962259444193
 20
1.7870979134773
 10
45.95275443945475
 20
1.727424574253536
 10
45.99440883690764
 20
1.666710699058807
 10
46.03456069574912
 20
1.604992859661292
 10
46.07318583000082
 20
1.542308232579665
 10
46.11026097332613
 20
1.478694576689352
 10
46.14576379304506
 20
1.414190210477993
 10
46.17967290358655
 20
1.34883398896382
 10
46.21196787937033
 20
1.282665280290846
 10
46.24262926711059
 20
1.215723942014969
 10
46.27163859753386
 20
1.148050297095269
 10
46.29897839650422
 20
1.079685109604965
 10
46.32463219554906
 20
1.01066956017666
 10
46.34858454177911
 20
0.9410452211966746
 10
46.37082100719662
 20
0.8708540317633868
 10
46.39132819738632
 20
0.800138272424695
 10
46.41009375958363
 20
0.7289405397097918
 10
46.42710639011558
 20
0.6573037204706091
 10
46.44235584120969
 20
0.5852709660483848
 10
46.45583292716682
 20
0.5128856662809039
 10
46.46752952989434
 20
0.4401914233660851
 10
46.47743860379613
 20
0.3672320255976487
 10
46.48555418001659
 20
0.2940514209886821
 10
46.49187137003607
 20
0.2206936907990022
 10
46.49638636861552
 20
0.1472030229822542
 10
46.49909645608862
 20
0.07362368556873661
 10
46.5
 20
0
 10
46.49909645608862
 20
-0.07362368556873661
 10
46.49638636861552
 20
-0.1472030229822542
 10
46.49187137003607
 20
-0.2206936907990022
 10
46.48555418001659
 20
-0.2940514209886821
 10
46.47743860379613
 20
-0.3672320255976487
 10
46.46752952989434
 20
-0.4401914233660851
 10
46.45583292716682
 20
-0.5128856662809039
 10
46.44235584120969
 20
-0.5852709660483848
 10
46.42710639011558
 20
-0.6573037204706091
 10
46.41009375958363
 20
-0.7289405397097918
 10
46.39132819738632
 20
-0.800138272424695
 10
46.37082100719662
 20
-0.8708540317633868
 10
46.34858454177911
 20
-0.9410452211966746
 10
46.32463219554906
 20
-1.01066956017666
 10
46.29897839650422
 20
-1.079685109604965
 10
46.27163859753386
 20
-1.148050297095269
 10
46.24262926711059
 20
-1.215723942014969
 10
46.21196787937033
 20
-1.282665280290846
 10
46.17967290358654
 20
-1.34883398896382
 10
46.14576379304506
 20
-1.414190210477993
 10
46.11026097332613
 20
-1.478694576689352
 10
46.07318583000082
 20
-1.542308232579665
 10
46.03456069574912
 20
-1.604992859661291
 10
45.99440883690764
 20
-1.666710699058806
 10
45.95275443945475
 20
-1.727424574253536
 10
45.90962259444193
 20
-1.7870979134773
 10
45.86503928287982
 20
-1.845694771741881
 10
45.81903136008821
 20
-1.903179852490936
 10
45.77162653951945
 20
-1.95951852886133
 10
45.72285337606488
 20
-2.014676864541056
 10
45.6727412488544
 20
-2.068621634211201
 10
45.62132034355965
 20
-2.121320343559642
 10
45.5686216342112
 20
-2.1727412488544
 10
45.51467686454106
 20
-2.222853376064877
 10
45.45951852886133
 20
-2.271626539519454
 10
45.40317985249094
 20
-2.319031360088211
 10
45.34569477174188
 20
-2.365039282879819
 10
45.2870979134773
 20
-2.409622594441934
 10
45.22742457425353
 20
-2.452754439454751
 10
45.1667106990588
 20
-2.494408836907636
 10
45.10499285966129
 20
-2.534560695749121
 10
45.04230823257966
 20
-2.573185830000816
 10
44.97869457668935
 20
-2.610260973326134
 10
44.91419021047799
 20
-2.645763793045065
 10
44.84883398896382
 20
-2.679672903586546
 10
44.78266528029084
 20
-2.71196787937033
 10
44.71572394201497
 20
-2.742629267110592
 10
44.64805029709527
 20
-2.77163859753386
 10
44.57968510960497
 20
-2.798978396504217
 10
44.51066956017666
 20
-2.824632195549062
 10
44.44104522119667
 20
-2.84858454177911
 10
44.37085403176339
 20
-2.870821007196627
 10
44.3001382724247
 20
-2.891328197386319
 10
44.22894053970979
 20
-2.910093759583632
 10
44.15730372047061
 20
-2.927106390115585
 10
44.08527096604838
 20
-2.942355841209691
 10
44.0128856662809
 20
-2.955832927166824
 10
43.94019142336609
 20
-2.967529529894343
 10
43.86723202559765
 20
-2.97743860379613
 10
43.79405142098868
 20
-2.985554180016591
 10
43.720693690799
 20
-2.991871370036071
 10
43.64720302298225
 20
-2.996386368615517
 10
43.57362368556873
 20
-2.999096456088613
 10
43.5
 20
-3
 10
40.5
 20
-3
 10
40.42637631443127
 20
-2.999096456088613
 10
40.35279697701775
 20
-2.996386368615517
 10
40.279306309201
 20
-2.991871370036071
 10
40.20594857901132
 20
-2.985554180016591
 10
40.13276797440236
 20
-2.97743860379613
 10
40.05980857663391
 20
-2.967529529894342
 10
39.98711433371909
 20
-2.955832927166823
 10
39.91472903395162
 20
-2.942355841209691
 10
39.84269627952939
 20
-2.927106390115585
 10
39.77105946029021
 20
-2.910093759583632
 10
39.6998617275753
 20
-2.891328197386319
 10
39.62914596823661
 20
-2.870821007196627
 10
39.55895477880333
 20
-2.84858454177911
 10
39.48933043982334
 20
-2.824632195549063
 10
39.42031489039503
 20
-2.798978396504217
 10
39.35194970290473
 20
-2.77163859753386
 10
39.28427605798503
 20
-2.742629267110591
 10
39.21733471970915
 20
-2.711967879370329
 10
39.15116601103618
 20
-2.679672903586546
 10
39.08580978952201
 20
-2.645763793045065
 10
39.02130542331065
 20
-2.610260973326134
 10
38.95769176742034
 20
-2.573185830000816
 10
38.89500714033871
 20
-2.534560695749121
 10
38.8332893009412
 20
-2.494408836907636
 10
38.77257542574647
 20
-2.452754439454751
 10
38.7129020865227
 20
-2.409622594441935
 10
38.65430522825812
 20
-2.365039282879818
 10
38.59682014750906
 20
-2.31903136008821
 10
38.54048147113867
 20
-2.271626539519453
 10
38.48532313545894
 20
-2.222853376064877
 10
38.4313783657888
 20
-2.1727412488544
 10
38.37867965644035
 20
-2.121320343559642
 10
38.3272587511456
 20
-2.0686216342112
 10
38.27714662393512
 20
-2.014676864541055
 10
38.22837346048055
 20
-1.959518528861331
 10
38.18096863991179
 20
-1.903179852490936
 10
38.13496071712018
 20
-1.84569477174188
 10
38.09037740555807
 20
-1.7870979134773
 10
38.04724556054525
 20
-1.727424574253536
 10
38.00559116309236
 20
-1.666710699058806
 10
37.96543930425088
 20
-1.604992859661291
 10
37.92681416999918
 20
-1.542308232579665
 10
37.88973902667387
 20
-1.478694576689352
 10
37.85423620695494
 20
-1.414190210477993
 10
37.82032709641345
 20
-1.34883398896382
 10
37.78803212062967
 20
-1.282665280290847
 10
37.75737073288941
 20
-1.215723942014969
 10
37.72836140246614
 20
-1.148050297095269
 10
37.70102160349578
 20
-1.079685109604964
 10
37.67536780445094
 20
-1.010669560176659
 10
37.65141545822089
 20
-0.9410452211966736
 10
37.62917899280338
 20
-0.8708540317633864
 10
37.60867180261368
 20
-0.8001382724246948
 10
37.58990624041637
 20
-0.7289405397097914
 10
37.57289360988442
 20
-0.6573037204706094
 10
37.55764415879031
 20
-0.585270966048385
 10
37.54416707283318
 20
-0.5128856662809043
 10
37.53247047010566
 20
-0.4401914233660847
 10
37.52256139620387
 20
-0.3672320255976483
 10
37.51444581998341
 20
-0.2940514209886818
 10
37.50812862996393
 20
-0.2206936907990011
 10
37.50361363138448
 20
-0.1472030229822532
 10
37.50090354391138
 20
-0.07362368556873625
 10
37.5
 20
0
 10
37.50090354391138
 20
0.07362368556873698
 10
37.50361363138448
 20
0.1472030229822539
 10
37.50812862996393
 20
0.2206936907990019
 10
37.51444581998341
 20
0.2940514209886825
 10
37.52256139620387
 20
0.3672320255976491
 10
37.53247047010566
 20
0.4401914233660854
 10
37.54416707283318
 20
0.5128856662809049
 10
37.55764415879031
 20
0.5852709660483858
 10
37.57289360988442
 20
0.6573037204706101
 10
37.58990624041637
 20
0.7289405397097922
 10
37.60867180261368
 20
0.8001382724246955
 10
37.62917899280338
 20
0.8708540317633872
 10
37.65141545822089
 20
0.9410452211966742
 10
37.67536780445094
 20
1.01066956017666
 10
37.70102160349578
 20
1.079685109604965
 10
37.72836140246614
 20
1.14805029709527
 10
37.75737073288941
 20
1.21572394201497
 10
37.78803212062967
 20
1.282665280290846
 10
37.82032709641346
 20
1.348833988963821
 10
37.85423620695494
 20
1.414190210477994
 10
37.88973902667387
 20
1.478694576689352
 10
37.92681416999918
 20
1.542308232579665
 10
37.96543930425088
 20
1.604992859661291
 10
38.00559116309236
 20
1.666710699058807
 10
38.04724556054525
 20
1.727424574253536
 10
38.09037740555807
 20
1.7870979134773
 10
38.13496071712018
 20
1.845694771741881
 10
38.18096863991179
 20
1.903179852490936
 10
38.22837346048055
 20
1.95951852886133
 10
38.27714662393512
 20
2.014676864541056
 10
38.3272587511456
 20
2.068621634211201
 10
38.37867965644035
 20
2.121320343559643
 10
38.4313783657888
 20
2.1727412488544
 10
38.48532313545894
 20
2.222853376064877
 10
38.54048147113867
 20
2.271626539519454
 10
38.59682014750906
 20
2.319031360088212
 10
38.65430522825812
 20
2.365039282879819
 10
38.7129020865227
 20
2.409622594441935
 10
38.77257542574647
 20
2.452754439454751
 10
38.8332893009412
 20
2.494408836907636
 10
38.89500714033871
 20
2.534560695749122
 10
38.95769176742034
 20
2.573185830000816
 10
39.02130542331065
 20
2.610260973326135
 10
39.08580978952201
 20
2.645763793045065
 10
39.15116601103618
 20
2.679672903586546
 10
39.21733471970916
 20
2.71196787937033
 10
39.28427605798503
 20
2.742629267110592
 10
39.35194970290473
 20
2.77163859753386
 10
39.42031489039503
 20
2.798978396504217
 10
39.48933043982334
 20
2.824632195549062
 10
39.55895477880333
 20
2.84858454177911
 10
39.62914596823661
 20
2.870821007196627
 10
39.6998617275753
 20
2.891328197386319
 10
39.77105946029021
 20
2.910093759583632
 10
39.84269627952939
 20
2.927106390115586
 10
39.91472903395162
 20
2.942355841209691
 10
39.9871143337191
 20
2.955832927166824
 10
40.05980857663391
 20
2.967529529894343
 10
40.13276797440235
 20
2.97743860379613
 10
40.20594857901132
 20
2.985554180016591
 10
40.279306309201
 20
2.991871370036071
 10
40.35279697701775
 20
2.996386368615517
 10
40.42637631443127
 20
2.999096456088613
 10
40.5
 20
3
  0
LWPOLYLINE
  5
5F
100
AcDbEntity
  8
RANURAS
  6
ByLayer
 62
  256
370
   -1
100
AcDbPolyline
 90
  258
 70
    1
 43
0
 10
19.15192378864669
 20
39.17210506462308
 10
19.18951812341175
 20
39.23541327469015
 10
19.22865479671669
 20
39.29777980634734
 10
19.26931023409292
 20
39.359167092328
 10
19.31145994622516
 20
39.41953815522649
 10
19.35507854370291
 20
39.47885662977193
 10
19.40013975231405
 20
39.53708678473331
 10
19.44661642887147
 20
39.59419354444266
 10
19.49448057756307
 20
39.65014250992328
 10
19.54370336681545
 20
39.70489997961045
 10
19.59425514666091
 20
39.75843296965192
 10
19.64610546659753
 20
39.81070923377622
 10
19.69922309393139
 20
39.86169728271659
 10
19.75357603258998
 20
39.9113664031789
 10
19.80913154239543
 20
39.95968667634224
 10
19.865856158786
 20
40.00662899588087
 10
19.92371571297384
 20
40.05216508549679
 10
19.98267535252702
 20
40.0962675159523
 10
20.04269956236331
 20
40.13890972159241
 10
20.10375218614315
 20
40.18006601634692
 10
20.1657964480489
 20
40.21971160920282
 10
20.22879497493715
 20
40.25782261913741
 10
20.29270981885098
 20
40.29437608950336
 10
20.35750247987835
 20
40.32935000185695
 10
20.423133929343
 20
40.36272328922115
 10
20.4895646333139
 20
40.39447584877554
 10
20.55675457641897
 20
40.42458855396556
 10
20.62466328594889
 20
40.45304326602358
 10
20.6932498562363
 20
40.47982284489506
 10
20.76247297329589
 20
40.50491115956303
 10
20.83229093971034
 20
40.52829309776485
 10
20.90266169974737
 20
40.54995457509526
 10
20.97354286469244
 20
40.56988254349029
 10
21.04489173838222
 20
40.58806499908692
 10
21.11666534292311
 20
40.6044909894538
 10
21.18882044457951
 20
40.61915062018853
 10
21.26131357981624
 20
40.63203506087772
 10
21.33410108147933
 20
40.64313655041607
 10
21.40713910509946
 20
40.65244840168142
 10
21.4803836553023
 20
40.65996500556273
 10
21.55379061230957
 20
40.66568183433889
 10
21.62731575851525
 20
40.66959544440603
 10
21.70091480512054
 20
40.67170347835177
 10
21.77454341881181
 20
40.67200466637529
 10
21.84815724846533
 20
40.67049882705218
 10
21.92171195186271
 20
40.66718686744375
 10
21.99516322240101
 20
40.66207078255062
 10
22.06846681578138
 20
40.65515365411104
 10
22.14157857666016
 20
40.64643964874451
 10
22.21445446524643
 20
40.63593401544205
 10
22.2870505838299
 20
40.62364308240431
 10
22.35932320322329
 20
40.60957425322978
 10
22.43122878910312
 20
40.59373600245508
 10
22.50272402823318
 20
40.57613787045025
 10
22.5737658545548
 20
40.55679045767197
 10
22.64431147512822
 20
40.53570541827825
 10
22.71431839590949
 20
40.5128954531084
 10
22.78374444734725
 20
40.48837430203253
 10
22.85254780978411
 20
40.46215673567512
 10
22.92068703864729
 20
40.43425854651782
 10
22.98812108941319
 20
40.40469653938661
 10
23.05480934233115
 20
40.37348852132917
 10
23.12071162689126
 20
40.34065329088865
 10
23.18578824602154
 20
40.30621062678007
 10
23.25
 20
40.2701812759764
 10
23.31330821006707
 20
40.23258694121134
 10
23.37567474172426
 20
40.1934502679064
 10
23.43706202770492
 20
40.15279483053017
 10
23.49743309060341
 20
40.11064511839793
 10
23.55675156514885
 20
40.06702652092018
 10
23.61498172011024
 20
40.02196531230904
 10
23.67208847981959
 20
39.97548863575162
 10
23.72803744530021
 20
39.92762448706002
 10
23.78279491498737
 20
39.87840169780764
 10
23.83632790502884
 20
39.82784991796218
 10
23.88860416915314
 20
39.77599959802556
 10
23.93959221809351
 20
39.7228819706917
 10
23.98926133855582
 20
39.66852903203311
 10
24.03758161171917
 20
39.61297352222766
 10
24.0845239312578
 20
39.55624890583709
 10
24.13006002087371
 20
39.49838935164924
 10
24.17416245132922
 20
39.43942971209606
 10
24.21680465696933
 20
39.37940550225978
 10
24.25796095172385
 20
39.31835287847993
 10
24.29760654457974
 20
39.25630861657419
 10
24.33571755451432
 20
39.19331008968594
 10
24.37227102488028
 20
39.1293952457721
 10
24.40724493723388
 20
39.06460258474474
 10
24.44061822459807
 20
38.99897113528009
 10
24.47237078415246
 20
38.93254043130919
 10
24.50248348934248
 20
38.86535048820411
 10
24.5309382014005
 20
38.7974417786742
 10
24.55771778027198
 20
38.72885520838678
 10
24.58280609493995
 20
38.6596320913272
 10
24.60618803314178
 20
38.58981412491274
 10
24.62784951047218
 20
38.51944336487572
 10
24.64777747886721
 20
38.44856219993064
 10
24.66595993446384
 20
38.37721332624086
 10
24.68238592483072
 20
38.30543972169998
 10
24.69704555556545
 20
38.23328462004358
 10
24.70992999625464
 20
38.16079148480685
 10
24.721031485793
 20
38.08800398314376
 10
24.73034333705834
 20
38.01496595952362
 10
24.73785994093965
 20
37.94172140932078
 10
24.74357676971582
 20
37.86831445231351
 10
24.74749037978295
 20
37.79478930610783
 10
24.74959841372869
 20
37.72119025950254
 10
24.74989960175221
 20
37.64756164581127
 10
24.7483937624291
 20
37.57394781615776
 10
24.74508180282067
 20
37.50039311276038
 10
24.73996571792755
 20
37.42694184222208
 10
24.73304858948796
 20
37.35363824884171
 10
24.72433458412144
 20
37.28052648796293
 10
24.71382895081897
 20
37.20765059937666
 10
24.70153801778124
 20
37.13505448079319
 10
24.68746918860671
 20
37.06278186139979
 10
24.67163093783201
 20
36.99087627551997
 10
24.65403280582717
 20
36.9193810363899
 10
24.63468539304889
 20
36.84833921006829
 10
24.61360035365517
 20
36.77779358949486
 10
24.59079038848532
 20
36.7077866687136
 10
24.56626923740944
 20
36.63836061727584
 10
24.54005167105204
 20
36.56955725483897
 10
24.51215348189475
 20
36.50141802597579
 10
24.48259147476353
 20
36.4339839752099
 10
24.4513834567061
 20
36.36729572229194
 10
24.41854822626557
 20
36.30139343773182
 10
24.38410556215699
 20
36.23631681860154
 10
24.34807621135332
 20
36.17210506462308
 10
22.84807621135332
 20
33.57402885326977
 10
22.81048187658826
 20
33.5107206432027
 10
22.77134520328332
 20
33.44835411154551
 10
22.73068976590709
 20
33.38696682556485
 10
22.68854005377485
 20
33.32659576266636
 10
22.6449214562971
 20
33.26727728812092
 10
22.59986024768595
 20
33.20904713315954
 10
22.55338357112854
 20
33.15194037345019
 10
22.50551942243694
 20
33.09599140796956
 10
22.45629663318456
 20
33.0412339382824
 10
22.4057448533391
 20
32.98770094824093
 10
22.35389453340248
 20
32.93542468411663
 10
22.30077690606862
 20
32.88443663517626
 10
22.24642396741003
 20
32.83476751471395
 10
22.19086845760458
 20
32.7864472415506
 10
22.13414384121401
 20
32.73950492201197
 10
22.07628428702617
 20
32.69396883239606
 10
22.01732464747299
 20
32.64986640194055
 10
21.9573004376367
 20
32.60722419630044
 10
21.89624781385685
 20
32.56606790154593
 10
21.83420355195111
 20
32.52642230869003
 10
21.77120502506286
 20
32.48831129875544
 10
21.70729018114902
 20
32.45175782838949
 10
21.64249752012166
 20
32.4167839160359
 10
21.57686607065701
 20
32.3834106286717
 10
21.51043536668611
 20
32.35165806911731
 10
21.44324542358104
 20
32.32154536392729
 10
21.37533671405112
 20
32.29309065186927
 10
21.3067501437637
 20
32.26631107299779
 10
21.23752702670412
 20
32.24122275832982
 10
21.16770906028966
 20
32.217840820128
 10
21.09733830025264
 20
32.19617934279758
 10
21.02645713530757
 20
32.17625137440256
 10
20.95510826161778
 20
32.15806891880593
 10
20.8833346570769
 20
32.14164292843905
 10
20.8111795554205
 20
32.12698329770432
 10
20.73868642018377
 20
32.11409885701513
 10
20.66589891852069
 20
32.10299736747677
 10
20.59286089490054
 20
32.09368551621143
 10
20.51961634469771
 20
32.08616891233012
 10
20.44620938769043
 20
32.08045208355396
 10
20.37268424148476
 20
32.07653847348682
 10
20.29908519487946
 20
32.07443043954108
 10
20.22545658118819
 20
32.07412925151756
 10
20.15184275153468
 20
32.07563509084067
 10
20.0782880481373
 20
32.0789470504491
 10
20.004836777599
 20
32.08406313534223
 10
19.93153318421863
 20
32.09098026378181
 10
19.85842142333985
 20
32.09969426914834
 10
19.78554553475358
 20
32.1101999024508
 10
19.7129494161701
 20
32.12249083548853
 10
19.64067679677672
 20
32.13655966466307
 10
19.56877121089688
 20
32.15239791543777
 10
19.49727597176683
 20
32.16999604744259
 10
19.42623414544521
 20
32.18934346022088
 10
19.35568852487178
 20
32.2104284996146
 10
19.28568160409052
 20
32.23323846478445
 10
19.21625555265276
 20
32.25775961586032
 10
19.14745219021589
 20
32.28397718221773
 10
19.07931296135272
 20
32.31187537137502
 10
19.01187891058682
 20
32.34143737850624
 10
18.94519065766885
 20
32.37264539656368
 10
18.87928837310874
 20
32.4054806270042
 10
18.81421175397846
 20
32.43992329111278
 10
18.75
 20
32.47595264191645
 10
18.68669178993293
 20
32.51354697668151
 10
18.62432525827575
 20
32.55268364998645
 10
18.56293797229509
 20
32.59333908736268
 10
18.5025669093966
 20
32.63548879949492
 10
18.44324843485116
 20
32.67910739697267
 10
18.38501827988977
 20
32.72416860558381
 10
18.32791152018042
 20
32.77064528214123
 10
18.2719625546998
 20
32.81850943083283
 10
18.21720508501264
 20
32.86773222008521
 10
18.16367209497117
 20
32.91828399993067
 10
18.11139583084686
 20
32.97013431986729
 10
18.0604077819065
 20
33.02325194720115
 10
18.01073866144418
 20
33.07760488585974
 10
17.96241838828084
 20
33.13316039566519
 10
17.91547606874221
 20
33.18988501205576
 10
17.8699399791263
 20
33.2477445662436
 10
17.82583754867078
 20
33.30670420579678
 10
17.78319534303068
 20
33.36672841563307
 10
17.74203904827616
 20
33.42778103941292
 10
17.70239345542027
 20
33.48982530131866
 10
17.66428244548568
 20
33.55282382820691
 10
17.62772897511973
 20
33.61673867212075
 10
17.59275506276613
 20
33.68153133314811
 10
17.55938177540194
 20
33.74716278261276
 10
17.52762921584755
 20
33.81359348658366
 10
17.49751651065753
 20
33.88078342968873
 10
17.4690617985995
 20
33.94869213921865
 10
17.44228221972803
 20
34.01727870950607
 10
17.41719390506005
 20
34.08650182656565
 10
17.39381196685823
 20
34.15631979298011
 10
17.37215048952782
 20
34.22669055301713
 10
17.3522225211328
 20
34.2975717179622
 10
17.33404006553616
 20
34.36892059165199
 10
17.31761407516929
 20
34.44069419619287
 10
17.30295444443455
 20
34.51284929784927
 10
17.29007000374537
 20
34.585342433086
 10
17.27896851420701
 20
34.65812993474908
 10
17.26965666294167
 20
34.73116795836923
 10
17.26214005906036
 20
34.80441250857206
 10
17.25642323028419
 20
34.87781946557934
 10
17.25250962021706
 20
34.95134461178502
 10
17.25040158627132
 20
35.02494365839031
 10
17.2501003982478
 20
35.09857227208158
 10
17.25160623757091
 20
35.17218610173509
 10
17.25491819717934
 20
35.24574080513247
 10
17.26003428207246
 20
35.31919207567077
 10
17.26695141051205
 20
35.39249566905114
 10
17.27566541587857
 20
35.46560742992992
 10
17.28617104918104
 20
35.53848331851619
 10
17.29846198221877
 20
35.61107943709966
 10
17.3125308113933
 20
35.68335205649306
 10
17.328369062168
 20
35.75525764237288
 10
17.34596719417284
 20
35.82675288150295
 10
17.36531460695112
 20
35.89779470782456
 10
17.38639964634484
 20
35.96834032839799
 10
17.40920961151469
 20
36.03834724917925
 10
17.43373076259056
 20
36.107773300617
 10
17.45994832894797
 20
36.17657666305388
 10
17.48784651810526
 20
36.24471589191705
 10
17.51740852523648
 20
36.31214994268295
 10
17.54861654329391
 20
36.37883819560091
 10
17.58145177373444
 20
36.44474048016103
 10
17.61589443784301
 20
36.50981709929131
 10
17.65192378864669
 20
36.57402885326977
  0
LWPOLYLINE
  5
60
100
AcDbEntity
  8
RANURAS
  6
ByLayer
 62
  256
370
   -1
100
AcDbPolyline
 90
  258
 70
    1
 43
0
 10
-24.34807621135331
 20
36.17210506462308
 10
-24.38410556215698
 20
36.23631681860154
 10
-24.41854822626556
 20
36.30139343773182
 10
-24.45138345670608
 20
36.36729572229194
 10
-24.48259147476352
 20
36.4339839752099
 10
-24.51215348189473
 20
36.5014180259758
 10
-24.54005167105203
 20
36.56955725483897
 10
-24.56626923740943
 20
36.63836061727584
 10
-24.59079038848531
 20
36.7077866687136
 10
-24.61360035365515
 20
36.77779358949486
 10
-24.63468539304888
 20
36.84833921006829
 10
-24.65403280582716
 20
36.9193810363899
 10
-24.67163093783199
 20
36.99087627551997
 10
-24.68746918860669
 20
37.06278186139979
 10
-24.70153801778122
 20
37.13505448079319
 10
-24.71382895081896
 20
37.20765059937666
 10
-24.72433458412142
 20
37.28052648796293
 10
-24.73304858948794
 20
37.35363824884171
 10
-24.73996571792753
 20
37.42694184222208
 10
-24.74508180282066
 20
37.50039311276038
 10
-24.74839376242909
 20
37.57394781615776
 10
-24.74989960175219
 20
37.64756164581127
 10
-24.74959841372867
 20
37.72119025950254
 10
-24.74749037978293
 20
37.79478930610783
 10
-24.7435767697158
 20
37.86831445231351
 10
-24.73785994093963
 20
37.94172140932079
 10
-24.73034333705832
 20
38.01496595952362
 10
-24.72103148579298
 20
38.08800398314376
 10
-24.70992999625463
 20
38.16079148480685
 10
-24.69704555556544
 20
38.23328462004358
 10
-24.6823859248307
 20
38.30543972169998
 10
-24.66595993446383
 20
38.37721332624086
 10
-24.64777747886719
 20
38.44856219993065
 10
-24.62784951047217
 20
38.51944336487572
 10
-24.60618803314176
 20
38.58981412491274
 10
-24.58280609493994
 20
38.6596320913272
 10
-24.55771778027196
 20
38.72885520838678
 10
-24.53093820140049
 20
38.7974417786742
 10
-24.50248348934246
 20
38.86535048820411
 10
-24.47237078415245
 20
38.93254043130919
 10
-24.44061822459805
 20
38.99897113528009
 10
-24.40724493723386
 20
39.06460258474473
 10
-24.37227102488027
 20
39.1293952457721
 10
-24.33571755451431
 20
39.19331008968594
 10
-24.29760654457973
 20
39.25630861657419
 10
-24.25796095172383
 20
39.31835287847993
 10
-24.21680465696931
 20
39.37940550225978
 10
-24.17416245132921
 20
39.43942971209606
 10
-24.1300600208737
 20
39.49838935164924
 10
-24.08452393125778
 20
39.55624890583709
 10
-24.03758161171915
 20
39.61297352222766
 10
-23.98926133855581
 20
39.66852903203311
 10
-23.93959221809349
 20
39.7228819706917
 10
-23.88860416915313
 20
39.77599959802556
 10
-23.83632790502882
 20
39.82784991796218
 10
-23.78279491498736
 20
39.87840169780764
 10
-23.7280374453002
 20
39.92762448706002
 10
-23.67208847981957
 20
39.97548863575162
 10
-23.61498172011022
 20
40.02196531230904
 10
-23.55675156514884
 20
40.06702652092018
 10
-23.49743309060339
 20
40.11064511839793
 10
-23.43706202770491
 20
40.15279483053017
 10
-23.37567474172424
 20
40.1934502679064
 10
-23.31330821006706
 20
40.23258694121134
 10
-23.24999999999999
 20
40.2701812759764
 10
-23.18578824602153
 20
40.30621062678007
 10
-23.12071162689125
 20
40.34065329088865
 10
-23.05480934233114
 20
40.37348852132917
 10
-22.98812108941317
 20
40.40469653938661
 10
-22.92068703864727
 20
40.43425854651782
 10
-22.8525478097841
 20
40.46215673567512
 10
-22.78374444734723
 20
40.48837430203253
 10
-22.71431839590947
 20
40.5128954531084
 10
-22.64431147512821
 20
40.53570541827825
 10
-22.57376585455479
 20
40.55679045767197
 10
-22.50272402823317
 20
40.57613787045025
 10
-22.43122878910311
 20
40.59373600245508
 10
-22.35932320322328
 20
40.60957425322978
 10
-22.28705058382989
 20
40.62364308240431
 10
-22.21445446524641
 20
40.63593401544205
 10
-22.14157857666014
 20
40.64643964874451
 10
-22.06846681578136
 20
40.65515365411104
 10
-21.99516322240099
 20
40.66207078255062
 10
-21.92171195186269
 20
40.66718686744375
 10
-21.84815724846532
 20
40.67049882705218
 10
-21.7745434188118
 20
40.67200466637529
 10
-21.70091480512053
 20
40.67170347835177
 10
-21.62731575851524
 20
40.66959544440603
 10
-21.55379061230956
 20
40.66568183433889
 10
-21.48038365530228
 20
40.65996500556273
 10
-21.40713910509945
 20
40.65244840168142
 10
-21.33410108147931
 20
40.64313655041607
 10
-21.26131357981622
 20
40.63203506087772
 10
-21.18882044457949
 20
40.61915062018853
 10
-21.11666534292309
 20
40.60449098945379
 10
-21.04489173838221
 20
40.58806499908692
 10
-20.97354286469243
 20
40.56988254349029
 10
-20.90266169974735
 20
40.54995457509526
 10
-20.83229093971033
 20
40.52829309776485
 10
-20.76247297329587
 20
40.50491115956303
 10
-20.69324985623629
 20
40.47982284489506
 10
-20.62466328594887
 20
40.45304326602358
 10
-20.55675457641896
 20
40.42458855396556
 10
-20.48956463331388
 20
40.39447584877554
 10
-20.42313392934298
 20
40.36272328922114
 10
-20.35750247987833
 20
40.32935000185695
 10
-20.29270981885097
 20
40.29437608950336
 10
-20.22879497493714
 20
40.25782261913741
 10
-20.16579644804888
 20
40.21971160920282
 10
-20.10375218614314
 20
40.18006601634692
 10
-20.04269956236329
 20
40.13890972159241
 10
-19.982675352527
 20
40.0962675159523
 10
-19.92371571297383
 20
40.05216508549679
 10
-19.86585615878599
 20
40.00662899588087
 10
-19.80913154239542
 20
39.95968667634224
 10
-19.75357603258996
 20
39.9113664031789
 10
-19.69922309393138
 20
39.86169728271659
 10
-19.64610546659751
 20
39.81070923377622
 10
-19.5942551466609
 20
39.75843296965192
 10
-19.54370336681543
 20
39.70489997961045
 10
-19.49448057756306
 20
39.65014250992329
 10
-19.44661642887145
 20
39.59419354444266
 10
-19.40013975231404
 20
39.53708678473331
 10
-19.35507854370289
 20
39.47885662977193
 10
-19.31145994622514
 20
39.41953815522649
 10
-19.2693102340929
 20
39.359167092328
 10
-19.22865479671668
 20
39.29777980634734
 10
-19.18951812341174
 20
39.23541327469015
 10
-19.15192378864667
 20
39.17210506462308
 10
-17.65192378864667
 20
36.57402885326977
 10
-17.615894437843
 20
36.50981709929131
 10
-17.58145177373442
 20
36.44474048016103
 10
-17.5486165432939
 20
36.37883819560092
 10
-17.51740852523646
 20
36.31214994268295
 10
-17.48784651810525
 20
36.24471589191705
 10
-17.45994832894795
 20
36.17657666305388
 10
-17.43373076259055
 20
36.107773300617
 10
-17.40920961151467
 20
36.03834724917925
 10
-17.38639964634482
 20
35.96834032839799
 10
-17.3653146069511
 20
35.89779470782456
 10
-17.34596719417282
 20
35.82675288150295
 10
-17.32836906216799
 20
35.75525764237288
 10
-17.31253081139329
 20
35.68335205649306
 10
-17.29846198221876
 20
35.61107943709966
 10
-17.28617104918102
 20
35.53848331851619
 10
-17.27566541587856
 20
35.46560742992992
 10
-17.26695141051204
 20
35.39249566905114
 10
-17.26003428207245
 20
35.31919207567077
 10
-17.25491819717932
 20
35.24574080513247
 10
-17.25160623757089
 20
35.17218610173509
 10
-17.25010039824778
 20
35.09857227208158
 10
-17.25040158627131
 20
35.02494365839031
 10
-17.25250962021704
 20
34.95134461178502
 10
-17.25642323028418
 20
34.87781946557934
 10
-17.26214005906035
 20
34.80441250857206
 10
-17.26965666294166
 20
34.73116795836923
 10
-17.27896851420699
 20
34.65812993474908
 10
-17.29007000374535
 20
34.585342433086
 10
-17.30295444443454
 20
34.51284929784927
 10
-17.31761407516927
 20
34.44069419619287
 10
-17.33404006553615
 20
34.36892059165199
 10
-17.35222252113278
 20
34.29757171796221
 10
-17.37215048952781
 20
34.22669055301713
 10
-17.39381196685822
 20
34.15631979298011
 10
-17.41719390506004
 20
34.08650182656565
 10
-17.44228221972801
 20
34.01727870950607
 10
-17.46906179859949
 20
33.94869213921865
 10
-17.49751651065752
 20
33.88078342968873
 10
-17.52762921584753
 20
33.81359348658366
 10
-17.55938177540192
 20
33.74716278261276
 10
-17.59275506276612
 20
33.68153133314811
 10
-17.62772897511971
 20
33.61673867212075
 10
-17.66428244548567
 20
33.55282382820691
 10
-17.70239345542025
 20
33.48982530131866
 10
-17.74203904827615
 20
33.42778103941292
 10
-17.78319534303066
 20
33.36672841563307
 10
-17.82583754867077
 20
33.30670420579678
 10
-17.86993997912628
 20
33.2477445662436
 10
-17.91547606874219
 20
33.18988501205576
 10
-17.96241838828082
 20
33.13316039566519
 10
-18.01073866144417
 20
33.07760488585974
 10
-18.06040778190648
 20
33.02325194720115
 10
-18.11139583084685
 20
32.97013431986729
 10
-18.16367209497115
 20
32.91828399993067
 10
-18.21720508501262
 20
32.86773222008521
 10
-18.27196255469978
 20
32.81850943083283
 10
-18.32791152018041
 20
32.77064528214123
 10
-18.38501827988976
 20
32.72416860558381
 10
-18.44324843485114
 20
32.67910739697267
 10
-18.50256690939658
 20
32.63548879949492
 10
-18.56293797229507
 20
32.59333908736268
 10
-18.62432525827574
 20
32.55268364998645
 10
-18.68669178993292
 20
32.51354697668151
 10
-18.74999999999999
 20
32.47595264191645
 10
-18.81421175397845
 20
32.43992329111278
 10
-18.87928837310873
 20
32.4054806270042
 10
-18.94519065766884
 20
32.37264539656368
 10
-19.01187891058681
 20
32.34143737850624
 10
-19.07931296135271
 20
32.31187537137502
 10
-19.14745219021588
 20
32.28397718221773
 10
-19.21625555265275
 20
32.25775961586032
 10
-19.28568160409051
 20
32.23323846478445
 10
-19.35568852487177
 20
32.2104284996146
 10
-19.42623414544519
 20
32.18934346022088
 10
-19.49727597176681
 20
32.16999604744259
 10
-19.56877121089687
 20
32.15239791543777
 10
-19.6406767967767
 20
32.13655966466307
 10
-19.71294941617009
 20
32.12249083548853
 10
-19.78554553475357
 20
32.1101999024508
 10
-19.85842142333983
 20
32.09969426914834
 10
-19.93153318421862
 20
32.09098026378181
 10
-20.00483677759899
 20
32.08406313534223
 10
-20.07828804813728
 20
32.0789470504491
 10
-20.15184275153466
 20
32.07563509084067
 10
-20.22545658118818
 20
32.07412925151756
 10
-20.29908519487945
 20
32.07443043954108
 10
-20.37268424148474
 20
32.07653847348682
 10
-20.44620938769042
 20
32.08045208355396
 10
-20.5196163446977
 20
32.08616891233012
 10
-20.59286089490053
 20
32.09368551621143
 10
-20.66589891852067
 20
32.10299736747677
 10
-20.73868642018375
 20
32.11409885701513
 10
-20.81117955542048
 20
32.12698329770432
 10
-20.88333465707689
 20
32.14164292843905
 10
-20.95510826161777
 20
32.15806891880593
 10
-21.02645713530755
 20
32.17625137440256
 10
-21.09733830025263
 20
32.19617934279758
 10
-21.16770906028965
 20
32.217840820128
 10
-21.23752702670411
 20
32.24122275832982
 10
-21.30675014376369
 20
32.26631107299779
 10
-21.3753367140511
 20
32.29309065186926
 10
-21.44324542358102
 20
32.32154536392729
 10
-21.5104353666861
 20
32.35165806911731
 10
-21.57686607065699
 20
32.3834106286717
 10
-21.64249752012164
 20
32.4167839160359
 10
-21.70729018114901
 20
32.45175782838949
 10
-21.77120502506284
 20
32.48831129875544
 10
-21.83420355195109
 20
32.52642230869003
 10
-21.89624781385684
 20
32.56606790154593
 10
-21.95730043763669
 20
32.60722419630044
 10
-22.01732464747298
 20
32.64986640194055
 10
-22.07628428702615
 20
32.69396883239606
 10
-22.13414384121399
 20
32.73950492201197
 10
-22.19086845760456
 20
32.7864472415506
 10
-22.24642396741002
 20
32.83476751471395
 10
-22.3007769060686
 20
32.88443663517626
 10
-22.35389453340246
 20
32.93542468411663
 10
-22.40574485333908
 20
32.98770094824093
 10
-22.45629663318454
 20
33.0412339382824
 10
-22.50551942243692
 20
33.09599140796956
 10
-22.55338357112852
 20
33.15194037345019
 10
-22.59986024768594
 20
33.20904713315954
 10
-22.64492145629708
 20
33.26727728812092
 10
-22.68854005377484
 20
33.32659576266636
 10
-22.73068976590708
 20
33.38696682556485
 10
-22.7713452032833
 20
33.44835411154551
 10
-22.81048187658824
 20
33.5107206432027
 10
-22.84807621135331
 20
33.57402885326977
  0
LWPOLYLINE
  5
61
100
AcDbEntity
  8
RANURAS
  6
ByLayer
 62
  256
370
   -1
100
AcDbPolyline
 90
  258
 70
    1
 43
0
 10
-43.5
 20
-2.999999999999995
 10
-43.57362368556873
 20
-2.999096456088608
 10
-43.64720302298225
 20
-2.996386368615512
 10
-43.720693690799
 20
-2.991871370036066
 10
-43.79405142098868
 20
-2.985554180016585
 10
-43.86723202559764
 20
-2.977438603796125
 10
-43.94019142336609
 20
-2.967529529894337
 10
-44.01288566628091
 20
-2.955832927166818
 10
-44.08527096604838
 20
-2.942355841209686
 10
-44.15730372047061
 20
-2.92710639011558
 10
-44.22894053970979
 20
-2.910093759583626
 10
-44.3001382724247
 20
-2.891328197386314
 10
-44.37085403176339
 20
-2.870821007196621
 10
-44.44104522119667
 20
-2.848584541779105
 10
-44.51066956017666
 20
-2.824632195549057
 10
-44.57968510960497
 20
-2.798978396504212
 10
-44.64805029709527
 20
-2.771638597533854
 10
-44.71572394201497
 20
-2.742629267110586
 10
-44.78266528029085
 20
-2.711967879370324
 10
-44.84883398896382
 20
-2.67967290358654
 10
-44.91419021047799
 20
-2.645763793045059
 10
-44.97869457668935
 20
-2.610260973326129
 10
-45.04230823257966
 20
-2.573185830000811
 10
-45.10499285966129
 20
-2.534560695749116
 10
-45.1667106990588
 20
-2.49440883690763
 10
-45.22742457425353
 20
-2.452754439454746
 10
-45.2870979134773
 20
-2.40962259444193
 10
-45.34569477174188
 20
-2.365039282879812
 10
-45.40317985249094
 20
-2.319031360088204
 10
-45.45951852886133
 20
-2.271626539519447
 10
-45.51467686454106
 20
-2.222853376064871
 10
-45.5686216342112
 20
-2.172741248854395
 10
-45.62132034355965
 20
-2.121320343559637
 10
-45.6727412488544
 20
-2.068621634211195
 10
-45.72285337606488
 20
-2.01467686454105
 10
-45.77162653951945
 20
-1.959518528861325
 10
-45.81903136008821
 20
-1.90317985249093
 10
-45.86503928287982
 20
-1.845694771741875
 10
-45.90962259444193
 20
-1.787097913477294
 10
-45.95275443945475
 20
-1.727424574253531
 10
-45.99440883690764
 20
-1.666710699058801
 10
-46.03456069574912
 20
-1.604992859661285
 10
-46.07318583000082
 20
-1.542308232579659
 10
-46.11026097332613
 20
-1.478694576689346
 10
-46.14576379304506
 20
-1.414190210477988
 10
-46.17967290358655
 20
-1.348833988963815
 10
-46.21196787937033
 20
-1.282665280290841
 10
-46.24262926711059
 20
-1.215723942014964
 10
-46.27163859753386
 20
-1.148050297095264
 10
-46.29897839650422
 20
-1.079685109604959
 10
-46.32463219554906
 20
-1.010669560176654
 10
-46.34858454177911
 20
-0.9410452211966682
 10
-46.37082100719662
 20
-0.8708540317633811
 10
-46.39132819738632
 20
-0.8001382724246895
 10
-46.41009375958363
 20
-0.7289405397097861
 10
-46.42710639011558
 20
-0.657303720470604
 10
-46.44235584120969
 20
-0.5852709660483797
 10
-46.45583292716682
 20
-0.5128856662808989
 10
-46.46752952989434
 20
-0.4401914233660794
 10
-46.47743860379613
 20
-0.367232025597643
 10
-46.48555418001659
 20
-0.2940514209886764
 10
-46.49187137003607
 20
-0.2206936907989958
 10
-46.49638636861552
 20
-0.1472030229822479
 10
-46.49909645608862
 20
-0.07362368556873092
 10
-46.5
 20
5.327213576290987e-15
 10
-46.49909645608862
 20
0.07362368556874231
 10
-46.49638636861552
 20
0.1472030229822592
 10
-46.49187137003607
 20
0.2206936907990072
 10
-46.48555418001659
 20
0.2940514209886878
 10
-46.47743860379613
 20
0.3672320255976544
 10
-46.46752952989434
 20
0.4401914233660907
 10
-46.45583292716682
 20
0.5128856662809103
 10
-46.44235584120969
 20
0.5852709660483911
 10
-46.42710639011558
 20
0.6573037204706155
 10
-46.41009375958363
 20
0.7289405397097976
 10
-46.39132819738632
 20
0.8001382724247008
 10
-46.37082100719662
 20
0.8708540317633925
 10
-46.34858454177911
 20
0.9410452211966795
 10
-46.32463219554906
 20
1.010669560176665
 10
-46.29897839650422
 20
1.07968510960497
 10
-46.27163859753386
 20
1.148050297095275
 10
-46.24262926711059
 20
1.215723942014975
 10
-46.21196787937033
 20
1.282665280290851
 10
-46.17967290358654
 20
1.348833988963826
 10
-46.14576379304506
 20
1.414190210477999
 10
-46.11026097332613
 20
1.478694576689358
 10
-46.07318583000082
 20
1.542308232579671
 10
-46.03456069574912
 20
1.604992859661297
 10
-45.99440883690764
 20
1.666710699058812
 10
-45.95275443945475
 20
1.727424574253542
 10
-45.90962259444193
 20
1.787097913477306
 10
-45.86503928287982
 20
1.845694771741886
 10
-45.81903136008821
 20
1.903179852490942
 10
-45.77162653951945
 20
1.959518528861335
 10
-45.72285337606488
 20
2.014676864541061
 10
-45.6727412488544
 20
2.068621634211206
 10
-45.62132034355965
 20
2.121320343559648
 10
-45.5686216342112
 20
2.172741248854406
 10
-45.51467686454106
 20
2.222853376064882
 10
-45.45951852886133
 20
2.271626539519459
 10
-45.40317985249094
 20
2.319031360088217
 10
-45.34569477174188
 20
2.365039282879824
 10
-45.2870979134773
 20
2.40962259444194
 10
-45.22742457425353
 20
2.452754439454757
 10
-45.1667106990588
 20
2.494408836907642
 10
-45.10499285966129
 20
2.534560695749127
 10
-45.04230823257966
 20
2.573185830000821
 10
-44.97869457668935
 20
2.61026097332614
 10
-44.91419021047799
 20
2.645763793045071
 10
-44.84883398896382
 20
2.679672903586551
 10
-44.78266528029084
 20
2.711967879370336
 10
-44.71572394201497
 20
2.742629267110598
 10
-44.64805029709527
 20
2.771638597533865
 10
-44.57968510960497
 20
2.798978396504222
 10
-44.51066956017666
 20
2.824632195549067
 10
-44.44104522119667
 20
2.848584541779116
 10
-44.37085403176339
 20
2.870821007196632
 10
-44.3001382724247
 20
2.891328197386325
 10
-44.22894053970979
 20
2.910093759583637
 10
-44.15730372047061
 20
2.927106390115591
 10
-44.08527096604838
 20
2.942355841209697
 10
-44.0128856662809
 20
2.95583292716683
 10
-43.94019142336609
 20
2.967529529894348
 10
-43.86723202559765
 20
2.977438603796135
 10
-43.79405142098868
 20
2.985554180016596
 10
-43.720693690799
 20
2.991871370036076
 10
-43.64720302298225
 20
2.996386368615522
 10
-43.57362368556873
 20
2.999096456088618
 10
-43.5
 20
3.000000000000005
 10
-40.5
 20
3.000000000000005
 10
-40.42637631443126
 20
2.999096456088618
 10
-40.35279697701775
 20
2.996386368615522
 10
-40.279306309201
 20
2.991871370036076
 10
-40.20594857901132
 20
2.985554180016595
 10
-40.13276797440235
 20
2.977438603796135
 10
-40.05980857663391
 20
2.967529529894347
 10
-39.9871143337191
 20
2.955832927166829
 10
-39.91472903395162
 20
2.942355841209696
 10
-39.84269627952939
 20
2.92710639011559
 10
-39.77105946029021
 20
2.910093759583636
 10
-39.6998617275753
 20
2.891328197386324
 10
-39.62914596823661
 20
2.870821007196631
 10
-39.55895477880333
 20
2.848584541779115
 10
-39.48933043982334
 20
2.824632195549067
 10
-39.42031489039503
 20
2.798978396504221
 10
-39.35194970290473
 20
2.771638597533865
 10
-39.28427605798503
 20
2.742629267110596
 10
-39.21733471970915
 20
2.711967879370335
 10
-39.15116601103618
 20
2.679672903586551
 10
-39.08580978952201
 20
2.64576379304507
 10
-39.02130542331065
 20
2.610260973326139
 10
-38.95769176742034
 20
2.573185830000821
 10
-38.89500714033871
 20
2.534560695749125
 10
-38.8332893009412
 20
2.49440883690764
 10
-38.77257542574646
 20
2.452754439454755
 10
-38.7129020865227
 20
2.409622594441939
 10
-38.65430522825812
 20
2.365039282879823
 10
-38.59682014750906
 20
2.319031360088215
 10
-38.54048147113867
 20
2.271626539519458
 10
-38.48532313545894
 20
2.222853376064882
 10
-38.4313783657888
 20
2.172741248854405
 10
-38.37867965644035
 20
2.121320343559647
 10
-38.3272587511456
 20
2.068621634211205
 10
-38.27714662393512
 20
2.014676864541059
 10
-38.22837346048055
 20
1.959518528861335
 10
-38.18096863991179
 20
1.903179852490941
 10
-38.13496071712018
 20
1.845694771741885
 10
-38.09037740555807
 20
1.787097913477304
 10
-38.04724556054525
 20
1.72742457425354
 10
-38.00559116309236
 20
1.666710699058811
 10
-37.96543930425088
 20
1.604992859661296
 10
-37.92681416999918
 20
1.542308232579669
 10
-37.88973902667387
 20
1.478694576689356
 10
-37.85423620695494
 20
1.414190210477998
 10
-37.82032709641345
 20
1.348833988963824
 10
-37.78803212062967
 20
1.282665280290851
 10
-37.75737073288941
 20
1.215723942014974
 10
-37.72836140246614
 20
1.148050297095274
 10
-37.70102160349578
 20
1.079685109604969
 10
-37.67536780445094
 20
1.010669560176664
 10
-37.65141545822089
 20
0.9410452211966789
 10
-37.62917899280338
 20
0.8708540317633912
 10
-37.60867180261368
 20
0.8001382724246994
 10
-37.58990624041637
 20
0.7289405397097962
 10
-37.57289360988442
 20
0.6573037204706135
 10
-37.55764415879031
 20
0.5852709660483891
 10
-37.54416707283318
 20
0.5128856662809083
 10
-37.53247047010566
 20
0.4401914233660894
 10
-37.52256139620387
 20
0.3672320255976529
 10
-37.51444581998341
 20
0.2940514209886864
 10
-37.50812862996393
 20
0.2206936907990065
 10
-37.50361363138448
 20
0.1472030229822585
 10
-37.50090354391138
 20
0.0736236855687409
 10
-37.5
 20
4.959819536546781e-15
 10
-37.50090354391138
 20
-0.07362368556873232
 10
-37.50361363138448
 20
-0.1472030229822499
 10
-37.50812862996393
 20
-0.2206936907989979
 10
-37.51444581998341
 20
-0.2940514209886778
 10
-37.52256139620387
 20
-0.3672320255976444
 10
-37.53247047010566
 20
-0.4401914233660808
 10
-37.54416707283318
 20
-0.5128856662808996
 10
-37.55764415879031
 20
-0.5852709660483805
 10
-37.57289360988442
 20
-0.6573037204706048
 10
-37.58990624041637
 20
-0.7289405397097874
 10
-37.60867180261368
 20
-0.8001382724246907
 10
-37.62917899280338
 20
-0.8708540317633823
 10
-37.65141545822089
 20
-0.9410452211966701
 10
-37.67536780445094
 20
-1.010669560176656
 10
-37.70102160349578
 20
-1.07968510960496
 10
-37.72836140246614
 20
-1.148050297095265
 10
-37.75737073288941
 20
-1.215723942014965
 10
-37.78803212062967
 20
-1.282665280290842
 10
-37.82032709641346
 20
-1.348833988963816
 10
-37.85423620695494
 20
-1.414190210477989
 10
-37.88973902667387
 20
-1.478694576689348
 10
-37.92681416999918
 20
-1.542308232579661
 10
-37.96543930425088
 20
-1.604992859661287
 10
-38.00559116309236
 20
-1.666710699058802
 10
-38.04724556054525
 20
-1.727424574253532
 10
-38.09037740555807
 20
-1.787097913477296
 10
-38.13496071712018
 20
-1.845694771741876
 10
-38.18096863991179
 20
-1.903179852490932
 10
-38.22837346048055
 20
-1.959518528861325
 10
-38.27714662393512
 20
-2.014676864541051
 10
-38.3272587511456
 20
-2.068621634211197
 10
-38.37867965644035
 20
-2.121320343559638
 10
-38.4313783657888
 20
-2.172741248854396
 10
-38.48532313545895
 20
-2.222853376064872
 10
-38.54048147113867
 20
-2.271626539519449
 10
-38.59682014750906
 20
-2.319031360088207
 10
-38.65430522825812
 20
-2.365039282879814
 10
-38.7129020865227
 20
-2.40962259444193
 10
-38.77257542574647
 20
-2.452754439454746
 10
-38.8332893009412
 20
-2.494408836907632
 10
-38.89500714033871
 20
-2.534560695749117
 10
-38.95769176742034
 20
-2.573185830000812
 10
-39.02130542331065
 20
-2.61026097332613
 10
-39.08580978952201
 20
-2.64576379304506
 10
-39.15116601103618
 20
-2.679672903586541
 10
-39.21733471970916
 20
-2.711967879370325
 10
-39.28427605798503
 20
-2.742629267110587
 10
-39.35194970290473
 20
-2.771638597533856
 10
-39.42031489039503
 20
-2.798978396504212
 10
-39.48933043982334
 20
-2.824632195549058
 10
-39.55895477880333
 20
-2.848584541779105
 10
-39.62914596823661
 20
-2.870821007196622
 10
-39.6998617275753
 20
-2.891328197386315
 10
-39.77105946029021
 20
-2.910093759583627
 10
-39.84269627952939
 20
-2.927106390115581
 10
-39.91472903395162
 20
-2.942355841209686
 10
-39.9871143337191
 20
-2.955832927166819
 10
-40.05980857663391
 20
-2.967529529894338
 10
-40.13276797440235
 20
-2.977438603796125
 10
-40.20594857901132
 20
-2.985554180016586
 10
-40.279306309201
 20
-2.991871370036066
 10
-40.35279697701775
 20
-2.996386368615512
 10
-40.42637631443127
 20
-2.999096456088608
 10
-40.5
 20
-2.999999999999995
  0
LWPOLYLINE
  5
62
100
AcDbEntity
  8
RANURAS
  6
ByLayer
 62
  256
370
   -1
100
AcDbPolyline
 90
  258
 70
    1
 43
0
 10
-19.1519237886467
 20
-39.17210506462307
 10
-19.18951812341177
 20
-39.23541327469014
 10
-19.2286547967167
 20
-39.29777980634732
 10
-19.26931023409293
 20
-39.35916709232799
 10
-19.31145994622517
 20
-39.41953815522648
 10
-19.35507854370292
 20
-39.47885662977191
 10
-19.40013975231407
 20
-39.5370867847333
 10
-19.44661642887148
 20
-39.59419354444265
 10
-19.49448057756308
 20
-39.65014250992327
 10
-19.54370336681546
 20
-39.70489997961043
 10
-19.59425514666092
 20
-39.75843296965191
 10
-19.64610546659754
 20
-39.81070923377621
 10
-19.6992230939314
 20
-39.86169728271658
 10
-19.75357603258999
 20
-39.91136640317889
 10
-19.80913154239544
 20
-39.95968667634223
 10
-19.86585615878602
 20
-40.00662899588086
 10
-19.92371571297386
 20
-40.05216508549677
 10
-19.98267535252703
 20
-40.09626751595228
 10
-20.04269956236332
 20
-40.13890972159239
 10
-20.10375218614317
 20
-40.18006601634691
 10
-20.16579644804891
 20
-40.2197116092028
 10
-20.22879497493717
 20
-40.25782261913739
 10
-20.292709818851
 20
-40.29437608950334
 10
-20.35750247987836
 20
-40.32935000185694
 10
-20.42313392934301
 20
-40.36272328922113
 10
-20.48956463331391
 20
-40.39447584877552
 10
-20.55675457641899
 20
-40.42458855396554
 10
-20.6246632859489
 20
-40.45304326602356
 10
-20.69324985623632
 20
-40.47982284489505
 10
-20.7624729732959
 20
-40.50491115956302
 10
-20.83229093971036
 20
-40.52829309776484
 10
-20.90266169974738
 20
-40.54995457509525
 10
-20.97354286469245
 20
-40.56988254349027
 10
-21.04489173838224
 20
-40.5880649990869
 10
-21.11666534292312
 20
-40.60449098945378
 10
-21.18882044457952
 20
-40.61915062018851
 10
-21.26131357981625
 20
-40.6320350608777
 10
-21.33410108147934
 20
-40.64313655041606
 10
-21.40713910509948
 20
-40.6524484016814
 10
-21.48038365530231
 20
-40.65996500556271
 10
-21.55379061230959
 20
-40.66568183433888
 10
-21.62731575851527
 20
-40.66959544440601
 10
-21.70091480512056
 20
-40.67170347835175
 10
-21.77454341881183
 20
-40.67200466637527
 10
-21.84815724846534
 20
-40.67049882705216
 10
-21.92171195186272
 20
-40.66718686744373
 10
-21.99516322240102
 20
-40.66207078255061
 10
-22.06846681578139
 20
-40.65515365411103
 10
-22.14157857666017
 20
-40.6464396487445
 10
-22.21445446524644
 20
-40.63593401544203
 10
-22.28705058382992
 20
-40.6236430824043
 10
-22.3593232032233
 20
-40.60957425322977
 10
-22.43122878910314
 20
-40.59373600245507
 10
-22.5027240282332
 20
-40.57613787045024
 10
-22.57376585455481
 20
-40.55679045767195
 10
-22.64431147512824
 20
-40.53570541827823
 10
-22.7143183959095
 20
-40.51289545310838
 10
-22.78374444734726
 20
-40.48837430203251
 10
-22.85254780978413
 20
-40.4621567356751
 10
-22.9206870386473
 20
-40.43425854651781
 10
-22.9881210894132
 20
-40.4046965393866
 10
-23.05480934233117
 20
-40.37348852132916
 10
-23.12071162689128
 20
-40.34065329088864
 10
-23.18578824602156
 20
-40.30621062678006
 10
-23.25000000000002
 20
-40.27018127597638
 10
-23.31330821006709
 20
-40.23258694121132
 10
-23.37567474172427
 20
-40.19345026790639
 10
-23.43706202770494
 20
-40.15279483053015
 10
-23.49743309060342
 20
-40.11064511839791
 10
-23.55675156514886
 20
-40.06702652092017
 10
-23.61498172011025
 20
-40.02196531230902
 10
-23.6720884798196
 20
-39.9754886357516
 10
-23.72803744530022
 20
-39.92762448706
 10
-23.78279491498738
 20
-39.87840169780763
 10
-23.83632790502885
 20
-39.82784991796216
 10
-23.88860416915316
 20
-39.77599959802554
 10
-23.93959221809352
 20
-39.72288197069168
 10
-23.98926133855584
 20
-39.66852903203309
 10
-24.03758161171918
 20
-39.61297352222764
 10
-24.08452393125781
 20
-39.55624890583707
 10
-24.13006002087372
 20
-39.49838935164923
 10
-24.17416245132924
 20
-39.43942971209605
 10
-24.21680465696934
 20
-39.37940550225976
 10
-24.25796095172386
 20
-39.31835287847991
 10
-24.29760654457975
 20
-39.25630861657417
 10
-24.33571755451434
 20
-39.19331008968592
 10
-24.37227102488029
 20
-39.12939524577209
 10
-24.40724493723389
 20
-39.06460258474473
 10
-24.44061822459808
 20
-38.99897113528007
 10
-24.47237078415247
 20
-38.93254043130918
 10
-24.50248348934249
 20
-38.8653504882041
 10
-24.53093820140052
 20
-38.79744177867418
 10
-24.55771778027199
 20
-38.72885520838677
 10
-24.58280609493997
 20
-38.65963209132718
 10
-24.60618803314179
 20
-38.58981412491273
 10
-24.6278495104722
 20
-38.51944336487571
 10
-24.64777747886722
 20
-38.44856219993063
 10
-24.66595993446386
 20
-38.37721332624085
 10
-24.68238592483073
 20
-38.30543972169996
 10
-24.69704555556547
 20
-38.23328462004356
 10
-24.70992999625465
 20
-38.16079148480684
 10
-24.72103148579301
 20
-38.08800398314375
 10
-24.73034333705835
 20
-38.01496595952361
 10
-24.73785994093966
 20
-37.94172140932078
 10
-24.74357676971583
 20
-37.8683144523135
 10
-24.74749037978296
 20
-37.79478930610782
 10
-24.7495984137287
 20
-37.72119025950253
 10
-24.74989960175222
 20
-37.64756164581126
 10
-24.74839376242911
 20
-37.57394781615774
 10
-24.74508180282069
 20
-37.50039311276036
 10
-24.73996571792756
 20
-37.42694184222206
 10
-24.73304858948797
 20
-37.3536382488417
 10
-24.72433458412145
 20
-37.28052648796292
 10
-24.71382895081899
 20
-37.20765059937665
 10
-24.70153801778125
 20
-37.13505448079317
 10
-24.68746918860672
 20
-37.06278186139978
 10
-24.67163093783202
 20
-36.99087627551995
 10
-24.65403280582719
 20
-36.91938103638989
 10
-24.6346853930489
 20
-36.84833921006827
 10
-24.61360035365518
 20
-36.77779358949485
 10
-24.59079038848533
 20
-36.70778666871359
 10
-24.56626923740946
 20
-36.63836061727583
 10
-24.54005167105205
 20
-36.56955725483895
 10
-24.51215348189476
 20
-36.50141802597579
 10
-24.48259147476355
 20
-36.43398397520988
 10
-24.45138345670611
 20
-36.36729572229192
 10
-24.41854822626559
 20
-36.3013934377318
 10
-24.38410556215701
 20
-36.23631681860152
 10
-24.34807621135333
 20
-36.17210506462307
 10
-22.84807621135333
 20
-33.57402885326975
 10
-22.81048187658827
 20
-33.51072064320268
 10
-22.77134520328333
 20
-33.4483541115455
 10
-22.7306897659071
 20
-33.38696682556483
 10
-22.68854005377487
 20
-33.32659576266634
 10
-22.64492145629711
 20
-33.26727728812091
 10
-22.59986024768597
 20
-33.20904713315952
 10
-22.55338357112855
 20
-33.15194037345017
 10
-22.50551942243695
 20
-33.09599140796955
 10
-22.45629663318457
 20
-33.04123393828239
 10
-22.40574485333911
 20
-32.98770094824091
 10
-22.35389453340249
 20
-32.93542468411661
 10
-22.30077690606863
 20
-32.88443663517624
 10
-22.24642396741005
 20
-32.83476751471393
 10
-22.19086845760459
 20
-32.78644724155059
 10
-22.13414384121402
 20
-32.73950492201196
 10
-22.07628428702618
 20
-32.69396883239605
 10
-22.017324647473
 20
-32.64986640194054
 10
-21.95730043763671
 20
-32.60722419630043
 10
-21.89624781385687
 20
-32.56606790154591
 10
-21.83420355195112
 20
-32.52642230869002
 10
-21.77120502506287
 20
-32.48831129875543
 10
-21.70729018114904
 20
-32.45175782838947
 10
-21.64249752012167
 20
-32.41678391603588
 10
-21.57686607065702
 20
-32.38341062867168
 10
-21.51043536668612
 20
-32.3516580691173
 10
-21.44324542358105
 20
-32.32154536392728
 10
-21.37533671405113
 20
-32.29309065186925
 10
-21.30675014376372
 20
-32.26631107299777
 10
-21.23752702670414
 20
-32.2412227583298
 10
-21.16770906028968
 20
-32.21784082012798
 10
-21.09733830025266
 20
-32.19617934279757
 10
-21.02645713530758
 20
-32.17625137440255
 10
-20.9551082616178
 20
-32.15806891880592
 10
-20.88333465707692
 20
-32.14164292843903
 10
-20.81117955542051
 20
-32.12698329770431
 10
-20.73868642018378
 20
-32.11409885701512
 10
-20.6658989185207
 20
-32.10299736747676
 10
-20.59286089490056
 20
-32.09368551621142
 10
-20.51961634469772
 20
-32.08616891233011
 10
-20.44620938769045
 20
-32.08045208355394
 10
-20.37268424148477
 20
-32.07653847348681
 10
-20.29908519487948
 20
-32.07443043954107
 10
-20.22545658118821
 20
-32.07412925151755
 10
-20.15184275153469
 20
-32.07563509084066
 10
-20.07828804813731
 20
-32.07894705044909
 10
-20.00483677759901
 20
-32.08406313534221
 10
-19.93153318421864
 20
-32.09098026378179
 10
-19.85842142333986
 20
-32.09969426914832
 10
-19.7855455347536
 20
-32.11019990245079
 10
-19.71294941617012
 20
-32.12249083548852
 10
-19.64067679677673
 20
-32.13655966466305
 10
-19.5687712108969
 20
-32.15239791543775
 10
-19.49727597176684
 20
-32.16999604744258
 10
-19.42623414544522
 20
-32.18934346022087
 10
-19.3556885248718
 20
-32.21042849961459
 10
-19.28568160409053
 20
-32.23323846478443
 10
-19.21625555265278
 20
-32.25775961586031
 10
-19.14745219021591
 20
-32.28397718221772
 10
-19.07931296135273
 20
-32.31187537137501
 10
-19.01187891058683
 20
-32.34143737850622
 10
-18.94519065766887
 20
-32.37264539656366
 10
-18.87928837310876
 20
-32.40548062700418
 10
-18.81421175397848
 20
-32.43992329111276
 10
-18.75000000000002
 20
-32.47595264191644
 10
-18.68669178993295
 20
-32.5135469766815
 10
-18.62432525827576
 20
-32.55268364998643
 10
-18.5629379722951
 20
-32.59333908736266
 10
-18.50256690939661
 20
-32.63548879949491
 10
-18.44324843485117
 20
-32.67910739697265
 10
-18.38501827988978
 20
-32.7241686055838
 10
-18.32791152018044
 20
-32.77064528214122
 10
-18.27196255469981
 20
-32.81850943083282
 10
-18.21720508501265
 20
-32.86773222008519
 10
-18.16367209497118
 20
-32.91828399993066
 10
-18.11139583084688
 20
-32.97013431986728
 10
-18.06040778190651
 20
-33.02325194720114
 10
-18.0107386614442
 20
-33.07760488585973
 10
-17.96241838828085
 20
-33.13316039566518
 10
-17.91547606874222
 20
-33.18988501205575
 10
-17.86993997912631
 20
-33.24774456624359
 10
-17.8258375486708
 20
-33.30670420579677
 10
-17.78319534303069
 20
-33.36672841563306
 10
-17.74203904827618
 20
-33.42778103941291
 10
-17.70239345542028
 20
-33.48982530131865
 10
-17.6642824454857
 20
-33.5528238282069
 10
-17.62772897511974
 20
-33.61673867212073
 10
-17.59275506276614
 20
-33.68153133314809
 10
-17.55938177540195
 20
-33.74716278261275
 10
-17.52762921584756
 20
-33.81359348658364
 10
-17.49751651065754
 20
-33.88078342968872
 10
-17.46906179859952
 20
-33.94869213921864
 10
-17.44228221972804
 20
-34.01727870950605
 10
-17.41719390506007
 20
-34.08650182656564
 10
-17.39381196685824
 20
-34.15631979298009
 10
-17.37215048952784
 20
-34.22669055301711
 10
-17.35222252113281
 20
-34.29757171796219
 10
-17.33404006553618
 20
-34.36892059165197
 10
-17.3176140751693
 20
-34.44069419619286
 10
-17.30295444443457
 20
-34.51284929784926
 10
-17.29007000374538
 20
-34.58534243308598
 10
-17.27896851420702
 20
-34.65812993474907
 10
-17.26965666294168
 20
-34.73116795836921
 10
-17.26214005906037
 20
-34.80441250857205
 10
-17.25642323028421
 20
-34.87781946557932
 10
-17.25250962021707
 20
-34.951344611785
 10
-17.25040158627133
 20
-35.02494365839029
 10
-17.25010039824781
 20
-35.09857227208156
 10
-17.25160623757092
 20
-35.17218610173508
 10
-17.25491819717935
 20
-35.24574080513246
 10
-17.26003428207247
 20
-35.31919207567076
 10
-17.26695141051206
 20
-35.39249566905112
 10
-17.27566541587858
 20
-35.4656074299299
 10
-17.28617104918105
 20
-35.53848331851617
 10
-17.29846198221879
 20
-35.61107943709965
 10
-17.31253081139332
 20
-35.68335205649304
 10
-17.32836906216802
 20
-35.75525764237287
 10
-17.34596719417285
 20
-35.82675288150293
 10
-17.36531460695113
 20
-35.89779470782454
 10
-17.38639964634485
 20
-35.96834032839797
 10
-17.4092096115147
 20
-36.03834724917924
 10
-17.43373076259058
 20
-36.10777330061699
 10
-17.45994832894798
 20
-36.17657666305386
 10
-17.48784651810528
 20
-36.24471589191704
 10
-17.51740852523649
 20
-36.31214994268294
 10
-17.54861654329392
 20
-36.3788381956009
 10
-17.58145177373445
 20
-36.44474048016102
 10
-17.61589443784303
 20
-36.5098170992913
 10
-17.6519237886467
 20
-36.57402885326975
  0
LWPOLYLINE
  5
63
100
AcDbEntity
  8
RANURAS
  6
ByLayer
 62
  256
370
   -1
100
AcDbPolyline
 90
  258
 70
    1
 43
0
 10
24.34807621135332
 20
-36.17210506462308
 10
24.38410556215699
 20
-36.23631681860154
 10
24.41854822626557
 20
-36.30139343773182
 10
24.45138345670609
 20
-36.36729572229193
 10
24.48259147476353
 20
-36.4339839752099
 10
24.51215348189475
 20
-36.50141802597579
 10
24.54005167105204
 20
-36.56955725483897
 10
24.56626923740944
 20
-36.63836061727584
 10
24.59079038848532
 20
-36.7077866687136
 10
24.61360035365517
 20
-36.77779358949486
 10
24.63468539304889
 20
-36.84833921006829
 10
24.65403280582717
 20
-36.9193810363899
 10
24.67163093783201
 20
-36.99087627551997
 10
24.68746918860671
 20
-37.06278186139979
 10
24.70153801778124
 20
-37.13505448079319
 10
24.71382895081897
 20
-37.20765059937666
 10
24.72433458412144
 20
-37.28052648796293
 10
24.73304858948796
 20
-37.35363824884171
 10
24.73996571792755
 20
-37.42694184222208
 10
24.74508180282067
 20
-37.50039311276038
 10
24.7483937624291
 20
-37.57394781615776
 10
24.74989960175221
 20
-37.64756164581127
 10
24.74959841372869
 20
-37.72119025950254
 10
24.74749037978295
 20
-37.79478930610783
 10
24.74357676971582
 20
-37.86831445231351
 10
24.73785994093965
 20
-37.94172140932078
 10
24.73034333705834
 20
-38.01496595952362
 10
24.721031485793
 20
-38.08800398314376
 10
24.70992999625464
 20
-38.16079148480685
 10
24.69704555556545
 20
-38.23328462004358
 10
24.68238592483072
 20
-38.30543972169998
 10
24.66595993446384
 20
-38.37721332624086
 10
24.64777747886721
 20
-38.44856219993064
 10
24.62784951047218
 20
-38.51944336487572
 10
24.60618803314178
 20
-38.58981412491274
 10
24.58280609493995
 20
-38.6596320913272
 10
24.55771778027198
 20
-38.72885520838678
 10
24.5309382014005
 20
-38.7974417786742
 10
24.50248348934248
 20
-38.86535048820411
 10
24.47237078415246
 20
-38.93254043130919
 10
24.44061822459807
 20
-38.99897113528009
 10
24.40724493723388
 20
-39.06460258474473
 10
24.37227102488028
 20
-39.1293952457721
 10
24.33571755451432
 20
-39.19331008968594
 10
24.29760654457974
 20
-39.25630861657419
 10
24.25796095172385
 20
-39.31835287847993
 10
24.21680465696933
 20
-39.37940550225978
 10
24.17416245132922
 20
-39.43942971209606
 10
24.13006002087371
 20
-39.49838935164924
 10
24.0845239312578
 20
-39.55624890583709
 10
24.03758161171917
 20
-39.61297352222766
 10
23.98926133855582
 20
-39.66852903203311
 10
23.93959221809351
 20
-39.7228819706917
 10
23.88860416915314
 20
-39.77599959802556
 10
23.83632790502884
 20
-39.82784991796218
 10
23.78279491498737
 20
-39.87840169780764
 10
23.72803744530021
 20
-39.92762448706002
 10
23.67208847981959
 20
-39.97548863575162
 10
23.61498172011024
 20
-40.02196531230904
 10
23.55675156514885
 20
-40.06702652092018
 10
23.49743309060341
 20
-40.11064511839793
 10
23.43706202770492
 20
-40.15279483053017
 10
23.37567474172426
 20
-40.1934502679064
 10
23.31330821006707
 20
-40.23258694121134
 10
23.25
 20
-40.2701812759764
 10
23.18578824602154
 20
-40.30621062678007
 10
23.12071162689126
 20
-40.34065329088865
 10
23.05480934233115
 20
-40.37348852132917
 10
22.98812108941319
 20
-40.40469653938661
 10
22.92068703864729
 20
-40.43425854651782
 10
22.85254780978411
 20
-40.46215673567512
 10
22.78374444734725
 20
-40.48837430203253
 10
22.71431839590949
 20
-40.5128954531084
 10
22.64431147512822
 20
-40.53570541827825
 10
22.5737658545548
 20
-40.55679045767197
 10
22.50272402823318
 20
-40.57613787045025
 10
22.43122878910312
 20
-40.59373600245508
 10
22.35932320322329
 20
-40.60957425322978
 10
22.2870505838299
 20
-40.62364308240431
 10
22.21445446524643
 20
-40.63593401544205
 10
22.14157857666016
 20
-40.64643964874451
 10
22.06846681578138
 20
-40.65515365411104
 10
21.99516322240101
 20
-40.66207078255062
 10
21.92171195186271
 20
-40.66718686744375
 10
21.84815724846533
 20
-40.67049882705218
 10
21.77454341881181
 20
-40.67200466637529
 10
21.70091480512054
 20
-40.67170347835177
 10
21.62731575851525
 20
-40.66959544440603
 10
21.55379061230957
 20
-40.66568183433889
 10
21.4803836553023
 20
-40.65996500556273
 10
21.40713910509946
 20
-40.65244840168142
 10
21.33410108147933
 20
-40.64313655041607
 10
21.26131357981624
 20
-40.63203506087772
 10
21.18882044457951
 20
-40.61915062018853
 10
21.11666534292311
 20
-40.60449098945379
 10
21.04489173838222
 20
-40.58806499908692
 10
20.97354286469244
 20
-40.56988254349029
 10
20.90266169974737
 20
-40.54995457509526
 10
20.83229093971034
 20
-40.52829309776485
 10
20.76247297329589
 20
-40.50491115956303
 10
20.6932498562363
 20
-40.47982284489506
 10
20.62466328594889
 20
-40.45304326602358
 10
20.55675457641897
 20
-40.42458855396556
 10
20.4895646333139
 20
-40.39447584877554
 10
20.423133929343
 20
-40.36272328922114
 10
20.35750247987835
 20
-40.32935000185695
 10
20.29270981885098
 20
-40.29437608950336
 10
20.22879497493715
 20
-40.25782261913741
 10
20.1657964480489
 20
-40.21971160920282
 10
20.10375218614315
 20
-40.18006601634692
 10
20.04269956236331
 20
-40.13890972159241
 10
19.98267535252702
 20
-40.0962675159523
 10
19.92371571297384
 20
-40.05216508549679
 10
19.865856158786
 20
-40.00662899588087
 10
19.80913154239543
 20
-39.95968667634224
 10
19.75357603258998
 20
-39.9113664031789
 10
19.69922309393139
 20
-39.86169728271659
 10
19.64610546659753
 20
-39.81070923377622
 10
19.59425514666091
 20
-39.75843296965192
 10
19.54370336681545
 20
-39.70489997961045
 10
19.49448057756307
 20
-39.65014250992329
 10
19.44661642887147
 20
-39.59419354444266
 10
19.40013975231405
 20
-39.53708678473331
 10
19.35507854370291
 20
-39.47885662977193
 10
19.31145994622516
 20
-39.41953815522649
 10
19.26931023409292
 20
-39.359167092328
 10
19.22865479671669
 20
-39.29777980634734
 10
19.18951812341175
 20
-39.23541327469015
 10
19.15192378864669
 20
-39.17210506462308
 10
17.65192378864669
 20
-36.57402885326977
 10
17.61589443784301
 20
-36.50981709929131
 10
17.58145177373444
 20
-36.44474048016103
 10
17.54861654329391
 20
-36.37883819560091
 10
17.51740852523648
 20
-36.31214994268295
 10
17.48784651810526
 20
-36.24471589191705
 10
17.45994832894797
 20
-36.17657666305388
 10
17.43373076259056
 20
-36.107773300617
 10
17.40920961151469
 20
-36.03834724917925
 10
17.38639964634484
 20
-35.96834032839799
 10
17.36531460695112
 20
-35.89779470782456
 10
17.34596719417284
 20
-35.82675288150295
 10
17.328369062168
 20
-35.75525764237288
 10
17.3125308113933
 20
-35.68335205649306
 10
17.29846198221877
 20
-35.61107943709966
 10
17.28617104918104
 20
-35.53848331851619
 10
17.27566541587857
 20
-35.46560742992992
 10
17.26695141051205
 20
-35.39249566905114
 10
17.26003428207246
 20
-35.31919207567077
 10
17.25491819717934
 20
-35.24574080513247
 10
17.25160623757091
 20
-35.17218610173509
 10
17.2501003982478
 20
-35.09857227208158
 10
17.25040158627132
 20
-35.02494365839031
 10
17.25250962021706
 20
-34.95134461178502
 10
17.25642323028419
 20
-34.87781946557934
 10
17.26214005906036
 20
-34.80441250857206
 10
17.26965666294167
 20
-34.73116795836923
 10
17.27896851420701
 20
-34.65812993474908
 10
17.29007000374537
 20
-34.585342433086
 10
17.30295444443455
 20
-34.51284929784927
 10
17.31761407516929
 20
-34.44069419619287
 10
17.33404006553616
 20
-34.36892059165199
 10
17.3522225211328
 20
-34.2975717179622
 10
17.37215048952782
 20
-34.22669055301713
 10
17.39381196685823
 20
-34.15631979298011
 10
17.41719390506005
 20
-34.08650182656565
 10
17.44228221972803
 20
-34.01727870950607
 10
17.4690617985995
 20
-33.94869213921865
 10
17.49751651065753
 20
-33.88078342968873
 10
17.52762921584755
 20
-33.81359348658366
 10
17.55938177540194
 20
-33.74716278261276
 10
17.59275506276613
 20
-33.68153133314811
 10
17.62772897511973
 20
-33.61673867212075
 10
17.66428244548568
 20
-33.55282382820691
 10
17.70239345542027
 20
-33.48982530131866
 10
17.74203904827617
 20
-33.42778103941292
 10
17.78319534303068
 20
-33.36672841563307
 10
17.82583754867078
 20
-33.30670420579678
 10
17.8699399791263
 20
-33.2477445662436
 10
17.91547606874221
 20
-33.18988501205576
 10
17.96241838828084
 20
-33.13316039566519
 10
18.01073866144418
 20
-33.07760488585974
 10
18.0604077819065
 20
-33.02325194720115
 10
18.11139583084686
 20
-32.97013431986729
 10
18.16367209497117
 20
-32.91828399993067
 10
18.21720508501264
 20
-32.86773222008521
 10
18.2719625546998
 20
-32.81850943083283
 10
18.32791152018042
 20
-32.77064528214123
 10
18.38501827988977
 20
-32.72416860558381
 10
18.44324843485116
 20
-32.67910739697267
 10
18.5025669093966
 20
-32.63548879949492
 10
18.56293797229509
 20
-32.59333908736268
 10
18.62432525827575
 20
-32.55268364998645
 10
18.68669178993293
 20
-32.51354697668151
 10
18.75
 20
-32.47595264191645
 10
18.81421175397846
 20
-32.43992329111278
 10
18.87928837310874
 20
-32.4054806270042
 10
18.94519065766885
 20
-32.37264539656368
 10
19.01187891058682
 20
-32.34143737850624
 10
19.07931296135272
 20
-32.31187537137502
 10
19.14745219021589
 20
-32.28397718221773
 10
19.21625555265276
 20
-32.25775961586032
 10
19.28568160409052
 20
-32.23323846478445
 10
19.35568852487178
 20
-32.2104284996146
 10
19.42623414544521
 20
-32.18934346022088
 10
19.49727597176683
 20
-32.16999604744259
 10
19.56877121089688
 20
-32.15239791543777
 10
19.64067679677672
 20
-32.13655966466307
 10
19.7129494161701
 20
-32.12249083548853
 10
19.78554553475358
 20
-32.1101999024508
 10
19.85842142333985
 20
-32.09969426914834
 10
19.93153318421863
 20
-32.09098026378181
 10
20.004836777599
 20
-32.08406313534223
 10
20.0782880481373
 20
-32.0789470504491
 10
20.15184275153468
 20
-32.07563509084067
 10
20.22545658118819
 20
-32.07412925151756
 10
20.29908519487946
 20
-32.07443043954108
 10
20.37268424148476
 20
-32.07653847348682
 10
20.44620938769043
 20
-32.08045208355396
 10
20.51961634469771
 20
-32.08616891233012
 10
20.59286089490054
 20
-32.09368551621143
 10
20.66589891852069
 20
-32.10299736747677
 10
20.73868642018377
 20
-32.11409885701513
 10
20.8111795554205
 20
-32.12698329770432
 10
20.8833346570769
 20
-32.14164292843905
 10
20.95510826161778
 20
-32.15806891880593
 10
21.02645713530757
 20
-32.17625137440256
 10
21.09733830025264
 20
-32.19617934279758
 10
21.16770906028966
 20
-32.217840820128
 10
21.23752702670412
 20
-32.24122275832982
 10
21.3067501437637
 20
-32.26631107299779
 10
21.37533671405112
 20
-32.29309065186927
 10
21.44324542358104
 20
-32.32154536392729
 10
21.51043536668611
 20
-32.35165806911731
 10
21.57686607065701
 20
-32.3834106286717
 10
21.64249752012166
 20
-32.4167839160359
 10
21.70729018114902
 20
-32.45175782838949
 10
21.77120502506286
 20
-32.48831129875544
 10
21.83420355195111
 20
-32.52642230869003
 10
21.89624781385685
 20
-32.56606790154593
 10
21.9573004376367
 20
-32.60722419630044
 10
22.01732464747299
 20
-32.64986640194055
 10
22.07628428702617
 20
-32.69396883239606
 10
22.13414384121401
 20
-32.73950492201197
 10
22.19086845760458
 20
-32.7864472415506
 10
22.24642396741003
 20
-32.83476751471395
 10
22.30077690606862
 20
-32.88443663517626
 10
22.35389453340248
 20
-32.93542468411663
 10
22.4057448533391
 20
-32.98770094824093
 10
22.45629663318456
 20
-33.0412339382824
 10
22.50551942243694
 20
-33.09599140796956
 10
22.55338357112854
 20
-33.15194037345019
 10
22.59986024768595
 20
-33.20904713315954
 10
22.6449214562971
 20
-33.26727728812092
 10
22.68854005377485
 20
-33.32659576266636
 10
22.73068976590709
 20
-33.38696682556485
 10
22.77134520328332
 20
-33.44835411154551
 10
22.81048187658826
 20
-33.5107206432027
 10
22.84807621135332
 20
-33.57402885326977
  0
ENDSEC
  0
SECTION
  2
OBJECTS
  0
DICTIONARY
  5
C
330
0
100
AcDbDictionary
281
    1
  3
ACAD_GROUP
350
D
  0
DICTIONARY
  5
D
330
C
100
AcDbDictionary
281
    1
  0
PLOTSETTINGS
  5
64
100
AcDbPlotSettings
  6
1x1
 40
0
 41
0
 42
0
 43
0
  0
ENDSEC
  0
EOF
